<ttFont>
<head>
    <!-- Most of this table will be recalculated by the compiler -->
    <tableVersion value="1.0"/>
    <fontRevision value="2.00099"/>
    <checkSumAdjustment value="0xf23b88e3"/>
    <magicNumber value="0x5f0f3cf5"/>
    <flags value="00000000 00001001"/>
    <unitsPerEm value="2048"/>
    <created value="Fri Sep 12 12:29:34 2008"/>
    <modified value="Thu Oct  5 11:34:04 2017"/>
    <xMin value="-1019"/>
    <yMin value="-555"/>
    <xMax value="1945"/>
    <yMax value="2163"/>
    <macStyle value="00000000 00000000"/>
    <lowestRecPPEM value="9"/>
    <fontDirectionHint value="2"/>
    <indexToLocFormat value="0"/>
    <glyphDataFormat value="0"/>
  </head>
    <TTGlyph name="A" xMin="81" yMin="0" xMax="1168" yMax="1456">
      <contour>
        <pt x="869" y="377" on="1"/>
        <pt x="383" y="377" on="1"/>
        <pt x="266" y="0" on="1"/>
        <pt x="81" y="0" on="1"/>
        <pt x="551" y="1456" on="1"/>
        <pt x="706" y="1456" on="1"/>
        <pt x="1168" y="0" on="1"/>
        <pt x="984" y="0" on="1"/>
      </contour>
      <contour>
        <pt x="433" y="538" on="1"/>
        <pt x="820" y="538" on="1"/>
        <pt x="628" y="1170" on="1"/>
      </contour>
    </TTGlyph>
    <TTGlyph name="A.smcp" xMin="54" yMin="0" xMax="1166" yMax="1165">
      <contour>
        <pt x="870" y="279" on="1"/>
        <pt x="352" y="279" on="1"/>
        <pt x="242" y="0" on="1"/>
        <pt x="54" y="0" on="1"/>
        <pt x="531" y="1165" on="1"/>
        <pt x="696" y="1165" on="1"/>
        <pt x="1166" y="0" on="1"/>
        <pt x="979" y="0" on="1"/>
      </contour>
      <contour>
        <pt x="412" y="430" on="1"/>
        <pt x="811" y="430" on="1"/>
        <pt x="612" y="937" on="1"/>
      </contour>
    </TTGlyph>
    <TTGlyph name="AE" xMin="32" yMin="0" xMax="1195" yMax="1456">
      <contour>
        <pt x="1195" y="0" on="1"/>
        <pt x="664" y="0" on="1"/>
        <pt x="663" y="353" on="1"/>
        <pt x="353" y="353" on="1"/>
        <pt x="230" y="0" on="1"/>
        <pt x="32" y="0" on="1"/>
        <pt x="592" y="1456" on="1"/>
        <pt x="1172" y="1456" on="1"/>
        <pt x="1172" y="1304" on="1"/>
        <pt x="835" y="1304" on="1"/>
        <pt x="837" y="833" on="1"/>
        <pt x="1139" y="833" on="1"/>
        <pt x="1139" y="682" on="1"/>
        <pt x="837" y="682" on="1"/>
        <pt x="838" y="151" on="1"/>
        <pt x="1195" y="151" on="1"/>
      </contour>
      <contour>
        <pt x="414" y="527" on="1"/>
        <pt x="663" y="527" on="1"/>
        <pt x="661" y="1233" on="1"/>
      </contour>
    </TTGlyph>
    <TTGlyph name="AEacute" xMin="32" yMin="0" xMax="1195" yMax="1824">
      <component glyphName="AE" x="0" y="0" flags="0x204"/>
      <component glyphName="acute" x="215" y="343" flags="0x4"/>
    </TTGlyph>
    <TTGlyph name="Aacute" xMin="81" yMin="0" xMax="1168" yMax="1824">
      <component glyphName="A" x="0" y="0" flags="0x204"/>
      <component glyphName="acute" x="133" y="343" flags="0x4"/>
    </TTGlyph>
    <TTGlyph name="Aacute.smcp" xMin="54" yMin="0" xMax="1166" yMax="1532">
      <component glyphName="A.smcp" x="0" y="0" flags="0x204"/>
      <component glyphName="acute" x="119" y="51" flags="0x4"/>
    </TTGlyph>
    <TTGlyph name="Abreve" xMin="81" yMin="0" xMax="1168" yMax="1866">
      <component glyphName="A" x="0" y="0" flags="0x204"/>
      <component glyphName="breve" x="15" y="408" flags="0x4"/>
    </TTGlyph>
    <TTGlyph name="Abreve.smcp" xMin="54" yMin="0" xMax="1166" yMax="1574">
      <component glyphName="A.smcp" x="0" y="0" flags="0x204"/>
      <component glyphName="breve" x="1" y="116" flags="0x4"/>
    </TTGlyph>
    <TTGlyph name="Acircumflex" xMin="81" yMin="0" xMax="1168" yMax="1864">
      <component glyphName="A" x="0" y="0" flags="0x204"/>
      <component glyphName="circumflex" x="135" y="347" flags="0x4"/>
    </TTGlyph>
    <TTGlyph name="Acircumflex.smcp" xMin="54" yMin="0" xMax="1166" yMax="1572">
      <component glyphName="A.smcp" x="0" y="0" flags="0x204"/>
      <component glyphName="circumflex" x="121" y="55" flags="0x4"/>
    </TTGlyph>
    <TTGlyph name="Adieresis" xMin="81" yMin="0" xMax="1168" yMax="1824">
      <component glyphName="A" x="0" y="0" flags="0x204"/>
      <component glyphName="dieresis" x="15" y="347" flags="0x4"/>
    </TTGlyph>
    <TTGlyph name="Adieresis.smcp" xMin="54" yMin="0" xMax="1166" yMax="1532">
      <component glyphName="A.smcp" x="0" y="0" flags="0x204"/>
      <component glyphName="dieresis" x="1" y="55" flags="0x4"/>
    </TTGlyph>
    <TTGlyph name="Agrave" xMin="81" yMin="0" xMax="1168" yMax="1827">
      <component glyphName="A" x="0" y="0" flags="0x204"/>
      <component glyphName="grave" x="-103" y="346" flags="0x4"/>
    </TTGlyph>
    <TTGlyph name="Agrave.smcp" xMin="54" yMin="0" xMax="1166" yMax="1535">
      <component glyphName="A.smcp" x="0" y="0" flags="0x204"/>
      <component glyphName="grave" x="-117" y="54" flags="0x4"/>
    </TTGlyph>
    <TTGlyph name="Alpha" xMin="81" yMin="0" xMax="1168" yMax="1456">
      <component glyphName="A" x="0" y="0" flags="0x204"/>
    </TTGlyph>
    <TTGlyph name="Alphatonos" xMin="81" yMin="0" xMax="1168" yMax="1658">
      <component glyphName="A" x="0" y="0" flags="0x204"/>
      <component glyphName="tonos" x="-320" y="0" flags="0x4"/>
    </TTGlyph>
    <TTGlyph name="Amacron" xMin="81" yMin="0" xMax="1168" yMax="1786">
      <component glyphName="A" x="0" y="0" flags="0x204"/>
      <component glyphName="macron" x="19" y="330" flags="0x4"/>
    </TTGlyph>
    <TTGlyph name="Amacron.smcp" xMin="54" yMin="0" xMax="1166" yMax="1494">
      <component glyphName="A.smcp" x="0" y="0" flags="0x204"/>
      <component glyphName="macron" x="5" y="38" flags="0x4"/>
    </TTGlyph>
    <TTGlyph name="Aogonek" xMin="81" yMin="-433" xMax="1168" yMax="1456">
      <contour>
        <pt x="551" y="1456" on="1"/>
        <pt x="706" y="1456" on="1"/>
        <pt x="1168" y="0" on="1"/>
        <pt x="1120" y="0" on="1"/>
        <pt x="1042" y="-42" on="0"/>
        <pt x="948" y="-153" on="0"/>
        <pt x="948" y="-219" on="1"/>
        <pt x="948" y="-253" on="0"/>
        <pt x="984" y="-294" on="0"/>
        <pt x="1026" y="-294" on="1"/>
        <pt x="1058" y="-295" on="0"/>
        <pt x="1111" y="-276" on="0"/>
        <pt x="1127" y="-268" on="1"/>
        <pt x="1158" y="-389" on="1"/>
        <pt x="1130" y="-405" on="0"/>
        <pt x="1045" y="-433" on="0"/>
        <pt x="980" y="-433" on="1"/>
        <pt x="939" y="-433" on="0"/>
        <pt x="869" y="-409" on="0"/>
        <pt x="817" y="-361" on="0"/>
        <pt x="787" y="-290" on="0"/>
        <pt x="787" y="-243" on="1"/>
        <pt x="787" y="-207" on="0"/>
        <pt x="813" y="-135" on="0"/>
        <pt x="862" y="-66" on="0"/>
        <pt x="932" y="-2" on="0"/>
        <pt x="976" y="25" on="1"/>
        <pt x="869" y="377" on="1"/>
        <pt x="383" y="377" on="1"/>
        <pt x="266" y="0" on="1"/>
        <pt x="81" y="0" on="1"/>
      </contour>
      <contour>
        <pt x="433" y="538" on="1"/>
        <pt x="820" y="538" on="1"/>
        <pt x="628" y="1170" on="1"/>
      </contour>
    </TTGlyph>
    <TTGlyph name="Aogonek.smcp" xMin="54" yMin="-433" xMax="1169" yMax="1165">
      <contour>
        <pt x="696" y="1165" on="1"/>
        <pt x="1166" y="0" on="1"/>
        <pt x="1131" y="0" on="1"/>
        <pt x="1053" y="-42" on="0"/>
        <pt x="959" y="-153" on="0"/>
        <pt x="959" y="-219" on="1"/>
        <pt x="959" y="-253" on="0"/>
        <pt x="995" y="-294" on="0"/>
        <pt x="1037" y="-294" on="1"/>
        <pt x="1069" y="-295" on="0"/>
        <pt x="1122" y="-276" on="0"/>
        <pt x="1138" y="-268" on="1"/>
        <pt x="1169" y="-389" on="1"/>
        <pt x="1141" y="-405" on="0"/>
        <pt x="1056" y="-433" on="0"/>
        <pt x="991" y="-433" on="1"/>
        <pt x="950" y="-433" on="0"/>
        <pt x="880" y="-409" on="0"/>
        <pt x="828" y="-361" on="0"/>
        <pt x="798" y="-290" on="0"/>
        <pt x="798" y="-243" on="1"/>
        <pt x="798" y="-174" on="0"/>
        <pt x="891" y="-39" on="0"/>
        <pt x="973" y="15" on="1"/>
        <pt x="870" y="279" on="1"/>
        <pt x="352" y="279" on="1"/>
        <pt x="242" y="0" on="1"/>
        <pt x="54" y="0" on="1"/>
        <pt x="531" y="1165" on="1"/>
      </contour>
      <contour>
        <pt x="412" y="430" on="1"/>
        <pt x="811" y="430" on="1"/>
        <pt x="612" y="937" on="1"/>
      </contour>
    </TTGlyph>
    <TTGlyph name="Aring" xMin="81" yMin="0" xMax="1168" yMax="1931">
      <component glyphName="A" x="0" y="0" flags="0x204"/>
      <component glyphName="ring" x="14" y="420" flags="0x4"/>
    </TTGlyph>
    <TTGlyph name="Aring.smcp" xMin="54" yMin="0" xMax="1166" yMax="1639">
      <component glyphName="A.smcp" x="0" y="0" flags="0x204"/>
      <component glyphName="ring" x="0" y="128" flags="0x4"/>
    </TTGlyph>
    <TTGlyph name="Aringacute" xMin="81" yMin="0" xMax="1168" yMax="2072">
      <component glyphName="A" x="0" y="0" flags="0x204"/>
      <component glyphName="ringacute" x="-4" y="422" flags="0x4"/>
    </TTGlyph>
    <TTGlyph name="Aringacute.smcp" xMin="54" yMin="0" xMax="1166" yMax="1780">
      <component glyphName="A.smcp" x="0" y="0" flags="0x204"/>
      <component glyphName="ringacute" x="-18" y="130" flags="0x4"/>
    </TTGlyph>
    <TTGlyph name="Atilde" xMin="81" yMin="0" xMax="1168" yMax="1874">
      <component glyphName="A" x="0" y="0" flags="0x204"/>
      <component glyphName="tilde" x="147" y="353" flags="0x4"/>
    </TTGlyph>
    <TTGlyph name="Atilde.smcp" xMin="54" yMin="0" xMax="1166" yMax="1582">
      <component glyphName="A.smcp" x="0" y="0" flags="0x204"/>
      <component glyphName="tilde" x="133" y="61" flags="0x4"/>
    </TTGlyph>
    <TTGlyph name="B" xMin="172" yMin="0" xMax="1120" yMax="1456">
      <contour>
        <pt x="172" y="0" on="1"/>
        <pt x="172" y="1456" on="1"/>
        <pt x="605" y="1456" on="1"/>
        <pt x="695" y="1455" on="0"/>
        <pt x="867" y="1410" on="0"/>
        <pt x="1001" y="1316" on="0"/>
        <pt x="1081" y="1170" on="0"/>
        <pt x="1080" y="1068" on="1"/>
        <pt x="1079" y="1011" on="0"/>
        <pt x="1044" y="917" on="0"/>
        <pt x="983" y="842" on="0"/>
        <pt x="901" y="786" on="0"/>
        <pt x="855" y="766" on="1"/>
        <pt x="913" y="749" on="0"/>
        <pt x="1010" y="686" on="0"/>
        <pt x="1080" y="597" on="0"/>
        <pt x="1119" y="485" on="0"/>
        <pt x="1119" y="420" on="1"/>
        <pt x="1120" y="318" on="0"/>
        <pt x="1040" y="162" on="0"/>
        <pt x="906" y="57" on="0"/>
        <pt x="731" y="1" on="0"/>
        <pt x="638" y="0" on="1"/>
      </contour>
      <contour>
        <pt x="358" y="681" on="1"/>
        <pt x="358" y="157" on="1"/>
        <pt x="643" y="157" on="1"/>
        <pt x="701" y="158" on="0"/>
        <pt x="805" y="195" on="0"/>
        <pt x="885" y="261" on="0"/>
        <pt x="932" y="357" on="0"/>
        <pt x="932" y="418" on="1"/>
        <pt x="933" y="480" on="0"/>
        <pt x="890" y="576" on="0"/>
        <pt x="814" y="643" on="0"/>
        <pt x="712" y="679" on="0"/>
        <pt x="653" y="681" on="1"/>
      </contour>
      <contour>
        <pt x="358" y="835" on="1"/>
        <pt x="616" y="835" on="1"/>
        <pt x="668" y="836" on="0"/>
        <pt x="768" y="867" on="0"/>
        <pt x="846" y="926" on="0"/>
        <pt x="894" y="1012" on="0"/>
        <pt x="894" y="1069" on="1"/>
        <pt x="894" y="1130" on="0"/>
        <pt x="847" y="1216" on="0"/>
        <pt x="768" y="1271" on="0"/>
        <pt x="665" y="1297" on="0"/>
        <pt x="611" y="1298" on="1"/>
        <pt x="358" y="1298" on="1"/>
      </contour>
    </TTGlyph>
    <TTGlyph name="B.smcp" xMin="208" yMin="0" xMax="1094" yMax="1165">
      <contour>
        <pt x="208" y="0" on="1"/>
        <pt x="208" y="1165" on="1"/>
        <pt x="621" y="1165" on="1"/>
        <pt x="672" y="1165" on="0"/>
        <pt x="777" y="1151" on="0"/>
        <pt x="875" y="1121" on="0"/>
        <pt x="961" y="1073" on="0"/>
        <pt x="1024" y="1002" on="0"/>
        <pt x="1060" y="908" on="0"/>
        <pt x="1060" y="847" on="1"/>
        <pt x="1060" y="799" on="0"/>
        <pt x="1028" y="722" on="0"/>
        <pt x="975" y="663" on="0"/>
        <pt x="904" y="620" on="0"/>
        <pt x="864" y="606" on="1"/>
        <pt x="913" y="594" on="0"/>
        <pt x="997" y="548" on="0"/>
        <pt x="1058" y="479" on="0"/>
        <pt x="1094" y="388" on="0"/>
        <pt x="1094" y="333" on="1"/>
        <pt x="1094" y="272" on="0"/>
        <pt x="1060" y="176" on="0"/>
        <pt x="1000" y="102" on="0"/>
        <pt x="917" y="50" on="0"/>
        <pt x="821" y="16" on="0"/>
        <pt x="716" y="0" on="0"/>
        <pt x="663" y="0" on="1"/>
      </contour>
      <contour>
        <pt x="395" y="530" on="1"/>
        <pt x="395" y="151" on="1"/>
        <pt x="663" y="151" on="1"/>
        <pt x="707" y="152" on="0"/>
        <pt x="795" y="171" on="0"/>
        <pt x="865" y="214" on="0"/>
        <pt x="908" y="283" on="0"/>
        <pt x="908" y="334" on="1"/>
        <pt x="908" y="386" on="0"/>
        <pt x="870" y="459" on="0"/>
        <pt x="805" y="506" on="0"/>
        <pt x="719" y="529" on="0"/>
        <pt x="672" y="530" on="1"/>
      </contour>
      <contour>
        <pt x="395" y="671" on="1"/>
        <pt x="644" y="671" on="1"/>
        <pt x="684" y="672" on="0"/>
        <pt x="766" y="689" on="0"/>
        <pt x="832" y="728" on="0"/>
        <pt x="875" y="792" on="0"/>
        <pt x="875" y="839" on="1"/>
        <pt x="875" y="891" on="0"/>
        <pt x="829" y="958" on="0"/>
        <pt x="755" y="996" on="0"/>
        <pt x="665" y="1011" on="0"/>
        <pt x="622" y="1012" on="1"/>
        <pt x="395" y="1012" on="1"/>
      </contour>
    </TTGlyph>
    <TTGlyph name="Beta" xMin="172" yMin="0" xMax="1120" yMax="1456">
      <component glyphName="B" x="0" y="0" flags="0x204"/>
    </TTGlyph>
    <TTGlyph name="C" xMin="107" yMin="-20" xMax="1117" yMax="1476">
      <contour>
        <pt x="1117" y="438" on="1"/>
        <pt x="1104" y="337" on="0"/>
        <pt x="1026" y="168" on="0"/>
        <pt x="901" y="47" on="0"/>
        <pt x="730" y="-20" on="0"/>
        <pt x="625" y="-20" on="1"/>
        <pt x="535" y="-20" on="0"/>
        <pt x="388" y="31" on="0"/>
        <pt x="273" y="121" on="0"/>
        <pt x="190" y="243" on="0"/>
        <pt x="135" y="387" on="0"/>
        <pt x="108" y="545" on="0"/>
        <pt x="107" y="626" on="1"/>
        <pt x="107" y="829" on="1"/>
        <pt x="108" y="910" on="0"/>
        <pt x="135" y="1068" on="0"/>
        <pt x="190" y="1212" on="0"/>
        <pt x="273" y="1335" on="0"/>
        <pt x="388" y="1425" on="0"/>
        <pt x="534" y="1476" on="0"/>
        <pt x="625" y="1476" on="1"/>
        <pt x="734" y="1476" on="0"/>
        <pt x="906" y="1409" on="0"/>
        <pt x="1030" y="1286" on="0"/>
        <pt x="1105" y="1114" on="0"/>
        <pt x="1117" y="1010" on="1"/>
        <pt x="932" y="1010" on="1"/>
        <pt x="923" y="1076" on="0"/>
        <pt x="879" y="1190" on="0"/>
        <pt x="805" y="1276" on="0"/>
        <pt x="698" y="1325" on="0"/>
        <pt x="625" y="1325" on="1"/>
        <pt x="559" y="1325" on="0"/>
        <pt x="458" y="1282" on="0"/>
        <pt x="385" y="1208" on="0"/>
        <pt x="336" y="1110" on="0"/>
        <pt x="306" y="1000" on="0"/>
        <pt x="293" y="885" on="0"/>
        <pt x="293" y="831" on="1"/>
        <pt x="293" y="626" on="1"/>
        <pt x="293" y="572" on="0"/>
        <pt x="306" y="457" on="0"/>
        <pt x="336" y="346" on="0"/>
        <pt x="384" y="248" on="0"/>
        <pt x="458" y="173" on="0"/>
        <pt x="558" y="130" on="0"/>
        <pt x="625" y="130" on="1"/>
        <pt x="698" y="130" on="0"/>
        <pt x="805" y="176" on="0"/>
        <pt x="879" y="259" on="0"/>
        <pt x="923" y="372" on="0"/>
        <pt x="932" y="438" on="1"/>
      </contour>
    </TTGlyph>
    <TTGlyph name="C.smcp" xMin="110" yMin="-16" xMax="1078" yMax="1181">
      <contour>
        <pt x="1078" y="377" on="1"/>
        <pt x="1066" y="281" on="0"/>
        <pt x="984" y="135" on="0"/>
        <pt x="858" y="35" on="0"/>
        <pt x="695" y="-16" on="0"/>
        <pt x="601" y="-16" on="1"/>
        <pt x="484" y="-16" on="0"/>
        <pt x="302" y="72" on="0"/>
        <pt x="177" y="222" on="0"/>
        <pt x="111" y="420" on="0"/>
        <pt x="110" y="531" on="1"/>
        <pt x="110" y="632" on="1"/>
        <pt x="111" y="745" on="0"/>
        <pt x="179" y="944" on="0"/>
        <pt x="308" y="1094" on="0"/>
        <pt x="493" y="1181" on="0"/>
        <pt x="612" y="1181" on="1"/>
        <pt x="706" y="1181" on="0"/>
        <pt x="867" y="1127" on="0"/>
        <pt x="988" y="1025" on="0"/>
        <pt x="1066" y="877" on="0"/>
        <pt x="1078" y="783" on="1"/>
        <pt x="893" y="783" on="1"/>
        <pt x="872" y="901" on="0"/>
        <pt x="737" y="1029" on="0"/>
        <pt x="612" y="1029" on="1"/>
        <pt x="527" y="1029" on="0"/>
        <pt x="407" y="962" on="0"/>
        <pt x="331" y="851" on="0"/>
        <pt x="296" y="708" on="0"/>
        <pt x="295" y="633" on="1"/>
        <pt x="295" y="531" on="1"/>
        <pt x="296" y="458" on="0"/>
        <pt x="328" y="316" on="0"/>
        <pt x="400" y="204" on="0"/>
        <pt x="517" y="135" on="0"/>
        <pt x="601" y="135" on="1"/>
        <pt x="729" y="134" on="0"/>
        <pt x="870" y="255" on="0"/>
        <pt x="893" y="377" on="1"/>
      </contour>
    </TTGlyph>
    <TTGlyph name="Cacute" xMin="107" yMin="-20" xMax="1117" yMax="1845">
      <component glyphName="C" x="0" y="0" flags="0x204"/>
      <component glyphName="acute" x="170" y="364" flags="0x4"/>
    </TTGlyph>
    <TTGlyph name="Cacute.smcp" xMin="110" yMin="-16" xMax="1078" yMax="1532">
      <component glyphName="C.smcp" x="0" y="0" flags="0x204"/>
      <component glyphName="acute" x="104" y="51" flags="0x4"/>
    </TTGlyph>
    <TTGlyph name="Ccaron" xMin="107" yMin="-20" xMax="1117" yMax="1886">
      <component glyphName="C" x="0" y="0" flags="0x204"/>
      <component glyphName="caron" x="53" y="369" flags="0x4"/>
    </TTGlyph>
    <TTGlyph name="Ccaron.smcp" xMin="110" yMin="-16" xMax="1078" yMax="1573">
      <component glyphName="C.smcp" x="0" y="0" flags="0x204"/>
      <component glyphName="caron" x="-12" y="56" flags="0x4"/>
    </TTGlyph>
    <TTGlyph name="Ccedilla" xMin="107" yMin="-435" xMax="1117" yMax="1476">
      <component glyphName="C" x="0" y="0" flags="0x204"/>
      <component glyphName="cedilla" x="54" y="0" flags="0x4"/>
    </TTGlyph>
    <TTGlyph name="Ccedilla.smcp" xMin="110" yMin="-438" xMax="1078" yMax="1181">
      <component glyphName="C.smcp" x="0" y="0" flags="0x204"/>
      <component glyphName="cedilla" x="42" y="-3" flags="0x4"/>
    </TTGlyph>
    <TTGlyph name="Ccircumflex" xMin="107" yMin="-20" xMax="1117" yMax="1885">
      <component glyphName="C" x="0" y="0" flags="0x204"/>
      <component glyphName="circumflex" x="172" y="368" flags="0x4"/>
    </TTGlyph>
    <TTGlyph name="Ccircumflex.smcp" xMin="110" yMin="-16" xMax="1078" yMax="1572">
      <component glyphName="C.smcp" x="0" y="0" flags="0x204"/>
      <component glyphName="circumflex" x="106" y="55" flags="0x4"/>
    </TTGlyph>
    <TTGlyph name="Chi" xMin="87" yMin="0" xMax="1167" yMax="1456">
      <component glyphName="X" x="0" y="0" flags="0x204"/>
    </TTGlyph>
    <TTGlyph name="D" xMin="155" yMin="0" xMax="1136" yMax="1456">
      <contour>
        <pt x="155" y="0" on="1"/>
        <pt x="155" y="1456" on="1"/>
        <pt x="492" y="1456" on="1"/>
        <pt x="644" y="1454" on="0"/>
        <pt x="883" y="1355" on="0"/>
        <pt x="1048" y="1178" on="0"/>
        <pt x="1135" y="931" on="0"/>
        <pt x="1136" y="781" on="1"/>
        <pt x="1136" y="674" on="1"/>
        <pt x="1135" y="524" on="0"/>
        <pt x="1048" y="277" on="0"/>
        <pt x="883" y="100" on="0"/>
        <pt x="644" y="1" on="0"/>
        <pt x="492" y="0" on="1"/>
      </contour>
      <contour>
        <pt x="343" y="1304" on="1"/>
        <pt x="343" y="151" on="1"/>
        <pt x="492" y="151" on="1"/>
        <pt x="610" y="152" on="0"/>
        <pt x="782" y="233" on="0"/>
        <pt x="895" y="373" on="0"/>
        <pt x="950" y="563" on="0"/>
        <pt x="951" y="674" on="1"/>
        <pt x="951" y="783" on="1"/>
        <pt x="950" y="894" on="0"/>
        <pt x="894" y="1083" on="0"/>
        <pt x="782" y="1222" on="0"/>
        <pt x="610" y="1302" on="0"/>
        <pt x="492" y="1304" on="1"/>
      </contour>
    </TTGlyph>
    <TTGlyph name="D.smcp" xMin="183" yMin="0" xMax="1107" yMax="1165">
      <contour>
        <pt x="183" y="0" on="1"/>
        <pt x="183" y="1165" on="1"/>
        <pt x="546" y="1165" on="1"/>
        <pt x="667" y="1163" on="0"/>
        <pt x="872" y="1083" on="0"/>
        <pt x="1021" y="938" on="0"/>
        <pt x="1106" y="736" on="0"/>
        <pt x="1107" y="613" on="1"/>
        <pt x="1107" y="550" on="1"/>
        <pt x="1106" y="424" on="0"/>
        <pt x="1018" y="222" on="0"/>
        <pt x="865" y="79" on="0"/>
        <pt x="657" y="1" on="0"/>
        <pt x="534" y="0" on="1"/>
      </contour>
      <contour>
        <pt x="369" y="1012" on="1"/>
        <pt x="369" y="151" on="1"/>
        <pt x="534" y="151" on="1"/>
        <pt x="626" y="152" on="0"/>
        <pt x="769" y="209" on="0"/>
        <pt x="868" y="313" on="0"/>
        <pt x="921" y="460" on="0"/>
        <pt x="922" y="550" on="1"/>
        <pt x="922" y="615" on="1"/>
        <pt x="921" y="703" on="0"/>
        <pt x="872" y="848" on="0"/>
        <pt x="777" y="953" on="0"/>
        <pt x="637" y="1011" on="0"/>
        <pt x="546" y="1012" on="1"/>
      </contour>
    </TTGlyph>
    <TTGlyph name="Dcaron" xMin="155" yMin="0" xMax="1136" yMax="1865">
      <component glyphName="D" x="0" y="0" flags="0x204"/>
      <component glyphName="caron" x="-38" y="348" flags="0x4"/>
    </TTGlyph>
    <TTGlyph name="Dcaron.smcp" xMin="183" yMin="0" xMax="1107" yMax="1573">
      <component glyphName="D.smcp" x="0" y="0" flags="0x204"/>
      <component glyphName="caron" x="-69" y="56" flags="0x4"/>
    </TTGlyph>
    <TTGlyph name="Dcroat" xMin="-44" yMin="0" xMax="1166" yMax="1456">
      <contour>
        <pt x="185" y="0" on="1"/>
        <pt x="185" y="666" on="1"/>
        <pt x="-44" y="666" on="1"/>
        <pt x="-44" y="817" on="1"/>
        <pt x="185" y="817" on="1"/>
        <pt x="185" y="1456" on="1"/>
        <pt x="522" y="1456" on="1"/>
        <pt x="674" y="1454" on="0"/>
        <pt x="913" y="1355" on="0"/>
        <pt x="1078" y="1178" on="0"/>
        <pt x="1165" y="931" on="0"/>
        <pt x="1166" y="781" on="1"/>
        <pt x="1166" y="674" on="1"/>
        <pt x="1165" y="524" on="0"/>
        <pt x="1078" y="277" on="0"/>
        <pt x="913" y="100" on="0"/>
        <pt x="674" y="1" on="0"/>
        <pt x="522" y="0" on="1"/>
      </contour>
      <contour>
        <pt x="593" y="666" on="1"/>
        <pt x="373" y="666" on="1"/>
        <pt x="373" y="151" on="1"/>
        <pt x="522" y="151" on="1"/>
        <pt x="640" y="152" on="0"/>
        <pt x="812" y="233" on="0"/>
        <pt x="925" y="373" on="0"/>
        <pt x="980" y="563" on="0"/>
        <pt x="981" y="674" on="1"/>
        <pt x="981" y="783" on="1"/>
        <pt x="980" y="894" on="0"/>
        <pt x="924" y="1083" on="0"/>
        <pt x="812" y="1222" on="0"/>
        <pt x="640" y="1302" on="0"/>
        <pt x="522" y="1304" on="1"/>
        <pt x="373" y="1304" on="1"/>
        <pt x="373" y="817" on="1"/>
        <pt x="593" y="817" on="1"/>
      </contour>
    </TTGlyph>
    <TTGlyph name="Dcroat.smcp" xMin="-25" yMin="0" xMax="1107" yMax="1165">
      <component glyphName="D.smcp" x="0" y="0" flags="0x204"/>
      <component glyphName="crossbar" x="-334" y="-136" flags="0x4"/>
    </TTGlyph>
    <TTGlyph name="Delta" xMin="46" yMin="0" xMax="1204" yMax="1456">
      <contour>
        <pt x="564" y="1456" on="1"/>
        <pt x="724" y="1456" on="1"/>
        <pt x="1204" y="0" on="1"/>
        <pt x="46" y="0" on="1"/>
      </contour>
      <contour>
        <pt x="286" y="151" on="1"/>
        <pt x="967" y="151" on="1"/>
        <pt x="641" y="1203" on="1"/>
      </contour>
    </TTGlyph>
    <TTGlyph name="E" xMin="182" yMin="0" xMax="1076" yMax="1456">
      <contour>
        <pt x="975" y="673" on="1"/>
        <pt x="367" y="673" on="1"/>
        <pt x="367" y="157" on="1"/>
        <pt x="1076" y="157" on="1"/>
        <pt x="1076" y="0" on="1"/>
        <pt x="182" y="0" on="1"/>
        <pt x="182" y="1456" on="1"/>
        <pt x="1067" y="1456" on="1"/>
        <pt x="1067" y="1298" on="1"/>
        <pt x="367" y="1298" on="1"/>
        <pt x="367" y="830" on="1"/>
        <pt x="975" y="830" on="1"/>
      </contour>
    </TTGlyph>
    <TTGlyph name="E.smcp" xMin="200" yMin="0" xMax="1059" yMax="1165">
      <contour>
        <pt x="965" y="526" on="1"/>
        <pt x="389" y="526" on="1"/>
        <pt x="389" y="151" on="1"/>
        <pt x="1059" y="151" on="1"/>
        <pt x="1059" y="0" on="1"/>
        <pt x="200" y="0" on="1"/>
        <pt x="200" y="1165" on="1"/>
        <pt x="1053" y="1165" on="1"/>
        <pt x="1053" y="1012" on="1"/>
        <pt x="389" y="1012" on="1"/>
        <pt x="389" y="678" on="1"/>
        <pt x="965" y="678" on="1"/>
      </contour>
    </TTGlyph>
    <TTGlyph name="Eacute" xMin="182" yMin="0" xMax="1076" yMax="1824">
      <component glyphName="E" x="0" y="0" flags="0x204"/>
      <component glyphName="acute" x="123" y="343" flags="0x4"/>
    </TTGlyph>
    <TTGlyph name="Eacute.smcp" xMin="200" yMin="0" xMax="1059" yMax="1532">
      <component glyphName="E.smcp" x="0" y="0" flags="0x204"/>
      <component glyphName="acute" x="89" y="51" flags="0x4"/>
    </TTGlyph>
    <TTGlyph name="Ebreve" xMin="182" yMin="0" xMax="1076" yMax="1866">
      <component glyphName="E" x="0" y="0" flags="0x204"/>
      <component glyphName="breve" x="5" y="408" flags="0x4"/>
    </TTGlyph>
    <TTGlyph name="Ebreve.smcp" xMin="200" yMin="0" xMax="1059" yMax="1574">
      <component glyphName="E.smcp" x="0" y="0" flags="0x204"/>
      <component glyphName="breve" x="-28" y="116" flags="0x4"/>
    </TTGlyph>
    <TTGlyph name="Ecaron" xMin="182" yMin="0" xMax="1076" yMax="1865">
      <component glyphName="E" x="0" y="0" flags="0x204"/>
      <component glyphName="caron" x="6" y="348" flags="0x4"/>
    </TTGlyph>
    <TTGlyph name="Ecaron.smcp" xMin="200" yMin="0" xMax="1059" yMax="1573">
      <component glyphName="E.smcp" x="0" y="0" flags="0x204"/>
      <component glyphName="caron" x="-27" y="56" flags="0x4"/>
    </TTGlyph>
    <TTGlyph name="Ecircumflex" xMin="182" yMin="0" xMax="1076" yMax="1864">
      <component glyphName="E" x="0" y="0" flags="0x204"/>
      <component glyphName="circumflex" x="125" y="347" flags="0x4"/>
    </TTGlyph>
    <TTGlyph name="Ecircumflex.smcp" xMin="200" yMin="0" xMax="1059" yMax="1572">
      <component glyphName="E.smcp" x="0" y="0" flags="0x204"/>
      <component glyphName="circumflex" x="91" y="55" flags="0x4"/>
    </TTGlyph>
    <TTGlyph name="Edieresis" xMin="182" yMin="0" xMax="1076" yMax="1824">
      <component glyphName="E" x="0" y="0" flags="0x204"/>
      <component glyphName="dieresis" x="5" y="347" flags="0x4"/>
    </TTGlyph>
    <TTGlyph name="Edieresis.smcp" xMin="200" yMin="0" xMax="1059" yMax="1532">
      <component glyphName="E.smcp" x="0" y="0" flags="0x204"/>
      <component glyphName="dieresis" x="-28" y="55" flags="0x4"/>
    </TTGlyph>
    <TTGlyph name="Edotaccent" xMin="182" yMin="0" xMax="1076" yMax="1817">
      <component glyphName="E" x="0" y="0" flags="0x204"/>
      <component glyphName="dotaccent" x="5" y="347" flags="0x4"/>
    </TTGlyph>
    <TTGlyph name="Edotaccent.smcp" xMin="200" yMin="0" xMax="1059" yMax="1525">
      <component glyphName="E.smcp" x="0" y="0" flags="0x204"/>
      <component glyphName="dotaccent" x="-28" y="55" flags="0x4"/>
    </TTGlyph>
    <TTGlyph name="Egrave" xMin="182" yMin="0" xMax="1076" yMax="1827">
      <component glyphName="E" x="0" y="0" flags="0x204"/>
      <component glyphName="grave" x="-113" y="346" flags="0x4"/>
    </TTGlyph>
    <TTGlyph name="Egrave.smcp" xMin="200" yMin="0" xMax="1059" yMax="1535">
      <component glyphName="E.smcp" x="0" y="0" flags="0x204"/>
      <component glyphName="grave" x="-147" y="54" flags="0x4"/>
    </TTGlyph>
    <TTGlyph name="Emacron" xMin="182" yMin="0" xMax="1076" yMax="1786">
      <component glyphName="E" x="0" y="0" flags="0x204"/>
      <component glyphName="macron" x="9" y="330" flags="0x4"/>
    </TTGlyph>
    <TTGlyph name="Emacron.smcp" xMin="200" yMin="0" xMax="1059" yMax="1494">
      <component glyphName="E.smcp" x="0" y="0" flags="0x204"/>
      <component glyphName="macron" x="-24" y="38" flags="0x4"/>
    </TTGlyph>
    <TTGlyph name="Eng" xMin="175" yMin="-437" xMax="1053" yMax="1456">
      <contour>
        <pt x="1052" y="1456" on="1"/>
        <pt x="1053" y="-89" on="1"/>
        <pt x="1053" y="-171" on="0"/>
        <pt x="1010" y="-300" on="0"/>
        <pt x="929" y="-390" on="0"/>
        <pt x="811" y="-437" on="0"/>
        <pt x="735" y="-437" on="1"/>
        <pt x="705" y="-437" on="0"/>
        <pt x="654" y="-429" on="0"/>
        <pt x="625" y="-419" on="1"/>
        <pt x="639" y="-272" on="1"/>
        <pt x="647" y="-275" on="0"/>
        <pt x="674" y="-280" on="0"/>
        <pt x="703" y="-283" on="0"/>
        <pt x="729" y="-285" on="0"/>
        <pt x="735" y="-285" on="1"/>
        <pt x="800" y="-285" on="0"/>
        <pt x="867" y="-176" on="0"/>
        <pt x="867" y="-89" on="1"/>
        <pt x="867" y="2" on="1"/>
        <pt x="360" y="1069" on="1"/>
        <pt x="360" y="0" on="1"/>
        <pt x="175" y="0" on="1"/>
        <pt x="175" y="1456" on="1"/>
        <pt x="360" y="1456" on="1"/>
        <pt x="867" y="389" on="1"/>
        <pt x="867" y="1456" on="1"/>
      </contour>
    </TTGlyph>
    <TTGlyph name="Eogonek" xMin="182" yMin="-433" xMax="1076" yMax="1456">
      <contour>
        <pt x="975" y="673" on="1"/>
        <pt x="367" y="673" on="1"/>
        <pt x="367" y="157" on="1"/>
        <pt x="1076" y="157" on="1"/>
        <pt x="1076" y="0" on="1"/>
        <pt x="992" y="0" on="1"/>
        <pt x="914" y="-42" on="0"/>
        <pt x="820" y="-153" on="0"/>
        <pt x="820" y="-219" on="1"/>
        <pt x="820" y="-253" on="0"/>
        <pt x="856" y="-294" on="0"/>
        <pt x="898" y="-294" on="1"/>
        <pt x="930" y="-295" on="0"/>
        <pt x="983" y="-276" on="0"/>
        <pt x="999" y="-268" on="1"/>
        <pt x="1030" y="-389" on="1"/>
        <pt x="1002" y="-405" on="0"/>
        <pt x="917" y="-433" on="0"/>
        <pt x="852" y="-433" on="1"/>
        <pt x="811" y="-433" on="0"/>
        <pt x="741" y="-409" on="0"/>
        <pt x="689" y="-361" on="0"/>
        <pt x="659" y="-290" on="0"/>
        <pt x="659" y="-243" on="1"/>
        <pt x="659" y="-180" on="0"/>
        <pt x="739" y="-53" on="0"/>
        <pt x="811" y="0" on="1"/>
        <pt x="182" y="0" on="1"/>
        <pt x="182" y="1456" on="1"/>
        <pt x="1067" y="1456" on="1"/>
        <pt x="1067" y="1298" on="1"/>
        <pt x="367" y="1298" on="1"/>
        <pt x="367" y="830" on="1"/>
        <pt x="975" y="830" on="1"/>
      </contour>
    </TTGlyph>
    <TTGlyph name="Eogonek.smcp" xMin="200" yMin="-433" xMax="1059" yMax="1165">
      <contour>
        <pt x="965" y="526" on="1"/>
        <pt x="389" y="526" on="1"/>
        <pt x="389" y="151" on="1"/>
        <pt x="1059" y="151" on="1"/>
        <pt x="1059" y="0" on="1"/>
        <pt x="924" y="0" on="1"/>
        <pt x="846" y="-42" on="0"/>
        <pt x="752" y="-153" on="0"/>
        <pt x="752" y="-219" on="1"/>
        <pt x="752" y="-253" on="0"/>
        <pt x="788" y="-294" on="0"/>
        <pt x="830" y="-294" on="1"/>
        <pt x="862" y="-295" on="0"/>
        <pt x="915" y="-276" on="0"/>
        <pt x="931" y="-268" on="1"/>
        <pt x="962" y="-389" on="1"/>
        <pt x="934" y="-405" on="0"/>
        <pt x="849" y="-433" on="0"/>
        <pt x="784" y="-433" on="1"/>
        <pt x="743" y="-433" on="0"/>
        <pt x="673" y="-409" on="0"/>
        <pt x="621" y="-361" on="0"/>
        <pt x="591" y="-290" on="0"/>
        <pt x="591" y="-243" on="1"/>
        <pt x="591" y="-180" on="0"/>
        <pt x="671" y="-53" on="0"/>
        <pt x="743" y="0" on="1"/>
        <pt x="200" y="0" on="1"/>
        <pt x="200" y="1165" on="1"/>
        <pt x="1053" y="1165" on="1"/>
        <pt x="1053" y="1012" on="1"/>
        <pt x="389" y="1012" on="1"/>
        <pt x="389" y="678" on="1"/>
        <pt x="965" y="678" on="1"/>
      </contour>
    </TTGlyph>
    <TTGlyph name="Epsilon" xMin="182" yMin="0" xMax="1076" yMax="1456">
      <component glyphName="E" x="0" y="0" flags="0x204"/>
    </TTGlyph>
    <TTGlyph name="Epsilontonos" xMin="15" yMin="0" xMax="1176" yMax="1658">
      <component glyphName="E" x="100" y="0" flags="0x4"/>
      <component glyphName="tonos" x="-538" y="0" flags="0x4"/>
    </TTGlyph>
    <TTGlyph name="Eta" xMin="141" yMin="0" xMax="1087" yMax="1456">
      <component glyphName="H" x="0" y="0" flags="0x204"/>
    </TTGlyph>
    <TTGlyph name="Etatonos" xMin="-3" yMin="0" xMax="1187" yMax="1660">
      <component glyphName="H" x="100" y="0" flags="0x4"/>
      <component glyphName="tonos" x="-556" y="2" flags="0x4"/>
    </TTGlyph>
    <TTGlyph name="Eth" xMin="-44" yMin="0" xMax="1166" yMax="1456">
      <contour>
        <pt x="185" y="0" on="1"/>
        <pt x="185" y="666" on="1"/>
        <pt x="-44" y="666" on="1"/>
        <pt x="-44" y="817" on="1"/>
        <pt x="185" y="817" on="1"/>
        <pt x="185" y="1456" on="1"/>
        <pt x="522" y="1456" on="1"/>
        <pt x="674" y="1454" on="0"/>
        <pt x="913" y="1355" on="0"/>
        <pt x="1078" y="1178" on="0"/>
        <pt x="1165" y="931" on="0"/>
        <pt x="1166" y="781" on="1"/>
        <pt x="1166" y="674" on="1"/>
        <pt x="1165" y="524" on="0"/>
        <pt x="1078" y="277" on="0"/>
        <pt x="913" y="100" on="0"/>
        <pt x="674" y="1" on="0"/>
        <pt x="522" y="0" on="1"/>
      </contour>
      <contour>
        <pt x="593" y="666" on="1"/>
        <pt x="373" y="666" on="1"/>
        <pt x="373" y="151" on="1"/>
        <pt x="522" y="151" on="1"/>
        <pt x="640" y="152" on="0"/>
        <pt x="812" y="233" on="0"/>
        <pt x="925" y="373" on="0"/>
        <pt x="980" y="563" on="0"/>
        <pt x="981" y="674" on="1"/>
        <pt x="981" y="783" on="1"/>
        <pt x="980" y="894" on="0"/>
        <pt x="924" y="1083" on="0"/>
        <pt x="812" y="1222" on="0"/>
        <pt x="640" y="1302" on="0"/>
        <pt x="522" y="1304" on="1"/>
        <pt x="373" y="1304" on="1"/>
        <pt x="373" y="817" on="1"/>
        <pt x="593" y="817" on="1"/>
      </contour>
    </TTGlyph>
    <TTGlyph name="Eth.smcp" xMin="-25" yMin="0" xMax="1107" yMax="1165">
      <component glyphName="D.smcp" x="0" y="0" flags="0x204"/>
      <component glyphName="crossbar" x="-334" y="-136" flags="0x4"/>
    </TTGlyph>
    <TTGlyph name="Euro" xMin="127" yMin="-21" xMax="1081" yMax="1476">
      <contour>
        <pt x="878" y="543" on="1"/>
        <pt x="492" y="543" on="1"/>
        <pt x="494" y="440" on="0"/>
        <pt x="545" y="285" on="0"/>
        <pt x="635" y="182" on="0"/>
        <pt x="763" y="130" on="0"/>
        <pt x="842" y="130" on="1"/>
        <pt x="901" y="130" on="0"/>
        <pt x="1011" y="147" on="0"/>
        <pt x="1063" y="164" on="1"/>
        <pt x="1081" y="10" on="1"/>
        <pt x="1025" y="-5" on="0"/>
        <pt x="905" y="-21" on="0"/>
        <pt x="842" y="-21" on="1"/>
        <pt x="725" y="-21" on="0"/>
        <pt x="530" y="51" on="0"/>
        <pt x="389" y="193" on="0"/>
        <pt x="309" y="404" on="0"/>
        <pt x="306" y="543" on="1"/>
        <pt x="127" y="543" on="1"/>
        <pt x="127" y="665" on="1"/>
        <pt x="306" y="665" on="1"/>
        <pt x="306" y="803" on="1"/>
        <pt x="127" y="803" on="1"/>
        <pt x="127" y="926" on="1"/>
        <pt x="306" y="926" on="1"/>
        <pt x="311" y="1062" on="0"/>
        <pt x="392" y="1268" on="0"/>
        <pt x="532" y="1406" on="0"/>
        <pt x="724" y="1476" on="0"/>
        <pt x="840" y="1476" on="1"/>
        <pt x="903" y="1476" on="0"/>
        <pt x="1020" y="1459" on="0"/>
        <pt x="1081" y="1445" on="1"/>
        <pt x="1063" y="1290" on="1"/>
        <pt x="1011" y="1306" on="0"/>
        <pt x="900" y="1325" on="0"/>
        <pt x="840" y="1325" on="1"/>
        <pt x="762" y="1325" on="0"/>
        <pt x="636" y="1275" on="0"/>
        <pt x="546" y="1176" on="0"/>
        <pt x="495" y="1026" on="0"/>
        <pt x="492" y="926" on="1"/>
        <pt x="878" y="926" on="1"/>
        <pt x="878" y="803" on="1"/>
        <pt x="492" y="803" on="1"/>
        <pt x="492" y="665" on="1"/>
        <pt x="878" y="665" on="1"/>
      </contour>
    </TTGlyph>
    <TTGlyph name="F" xMin="191" yMin="0" xMax="1085" yMax="1456">
      <contour>
        <pt x="984" y="643" on="1"/>
        <pt x="378" y="643" on="1"/>
        <pt x="378" y="0" on="1"/>
        <pt x="191" y="0" on="1"/>
        <pt x="191" y="1456" on="1"/>
        <pt x="1085" y="1456" on="1"/>
        <pt x="1085" y="1298" on="1"/>
        <pt x="378" y="1298" on="1"/>
        <pt x="378" y="800" on="1"/>
        <pt x="984" y="800" on="1"/>
      </contour>
    </TTGlyph>
    <TTGlyph name="F.smcp" xMin="231" yMin="0" xMax="1085" yMax="1165">
      <contour>
        <pt x="996" y="499" on="1"/>
        <pt x="423" y="499" on="1"/>
        <pt x="423" y="0" on="1"/>
        <pt x="231" y="0" on="1"/>
        <pt x="231" y="1165" on="1"/>
        <pt x="1085" y="1165" on="1"/>
        <pt x="1085" y="1012" on="1"/>
        <pt x="423" y="1012" on="1"/>
        <pt x="423" y="652" on="1"/>
        <pt x="996" y="652" on="1"/>
      </contour>
    </TTGlyph>
    <TTGlyph name="G" xMin="100" yMin="-21" xMax="1116" yMax="1476">
      <contour>
        <pt x="1116" y="191" on="1"/>
        <pt x="1024" y="83" on="0"/>
        <pt x="786" y="-21" on="0"/>
        <pt x="644" y="-20" on="1"/>
        <pt x="554" y="-19" on="0"/>
        <pt x="403" y="34" on="0"/>
        <pt x="283" y="127" on="0"/>
        <pt x="193" y="253" on="0"/>
        <pt x="132" y="400" on="0"/>
        <pt x="101" y="561" on="0"/>
        <pt x="100" y="643" on="1"/>
        <pt x="100" y="812" on="1"/>
        <pt x="101" y="893" on="0"/>
        <pt x="128" y="1054" on="0"/>
        <pt x="184" y="1202" on="0"/>
        <pt x="268" y="1329" on="0"/>
        <pt x="385" y="1422" on="0"/>
        <pt x="533" y="1476" on="0"/>
        <pt x="625" y="1476" on="1"/>
        <pt x="727" y="1476" on="0"/>
        <pt x="899" y="1413" on="0"/>
        <pt x="1027" y="1296" on="0"/>
        <pt x="1105" y="1131" on="0"/>
        <pt x="1114" y="1029" on="1"/>
        <pt x="931" y="1029" on="1"/>
        <pt x="920" y="1092" on="0"/>
        <pt x="874" y="1199" on="0"/>
        <pt x="799" y="1275" on="0"/>
        <pt x="695" y="1318" on="0"/>
        <pt x="626" y="1318" on="1"/>
        <pt x="560" y="1318" on="0"/>
        <pt x="458" y="1273" on="0"/>
        <pt x="382" y="1197" on="0"/>
        <pt x="332" y="1096" on="0"/>
        <pt x="300" y="984" on="0"/>
        <pt x="286" y="868" on="0"/>
        <pt x="286" y="814" on="1"/>
        <pt x="286" y="643" on="1"/>
        <pt x="287" y="588" on="0"/>
        <pt x="304" y="471" on="0"/>
        <pt x="340" y="359" on="0"/>
        <pt x="396" y="259" on="0"/>
        <pt x="475" y="183" on="0"/>
        <pt x="579" y="138" on="0"/>
        <pt x="645" y="137" on="1"/>
        <pt x="683" y="136" on="0"/>
        <pt x="766" y="144" on="0"/>
        <pt x="844" y="168" on="0"/>
        <pt x="912" y="209" on="0"/>
        <pt x="935" y="242" on="1"/>
        <pt x="937" y="569" on="1"/>
        <pt x="641" y="569" on="1"/>
        <pt x="641" y="725" on="1"/>
        <pt x="1113" y="725" on="1"/>
      </contour>
    </TTGlyph>
    <TTGlyph name="G.smcp" xMin="124" yMin="-16" xMax="1089" yMax="1181">
      <contour>
        <pt x="1089" y="150" on="1"/>
        <pt x="1048" y="101" on="0"/>
        <pt x="945" y="37" on="0"/>
        <pt x="829" y="-1" on="0"/>
        <pt x="705" y="-16" on="0"/>
        <pt x="645" y="-16" on="1"/>
        <pt x="524" y="-16" on="0"/>
        <pt x="332" y="71" on="0"/>
        <pt x="198" y="222" on="0"/>
        <pt x="125" y="424" on="0"/>
        <pt x="124" y="540" on="1"/>
        <pt x="124" y="624" on="1"/>
        <pt x="125" y="740" on="0"/>
        <pt x="191" y="943" on="0"/>
        <pt x="317" y="1094" on="0"/>
        <pt x="504" y="1181" on="0"/>
        <pt x="626" y="1181" on="1"/>
        <pt x="715" y="1181" on="0"/>
        <pt x="872" y="1134" on="0"/>
        <pt x="994" y="1042" on="0"/>
        <pt x="1075" y="903" on="0"/>
        <pt x="1089" y="812" on="1"/>
        <pt x="906" y="812" on="1"/>
        <pt x="881" y="919" on="0"/>
        <pt x="740" y="1029" on="0"/>
        <pt x="628" y="1029" on="1"/>
        <pt x="541" y="1029" on="0"/>
        <pt x="420" y="961" on="0"/>
        <pt x="345" y="847" on="0"/>
        <pt x="312" y="702" on="0"/>
        <pt x="311" y="626" on="1"/>
        <pt x="311" y="540" on="1"/>
        <pt x="312" y="462" on="0"/>
        <pt x="352" y="316" on="0"/>
        <pt x="435" y="204" on="0"/>
        <pt x="561" y="135" on="0"/>
        <pt x="648" y="135" on="1"/>
        <pt x="681" y="135" on="0"/>
        <pt x="751" y="140" on="0"/>
        <pt x="818" y="156" on="0"/>
        <pt x="880" y="185" on="0"/>
        <pt x="905" y="209" on="1"/>
        <pt x="906" y="447" on="1"/>
        <pt x="629" y="447" on="1"/>
        <pt x="629" y="591" on="1"/>
        <pt x="1089" y="591" on="1"/>
      </contour>
    </TTGlyph>
    <TTGlyph name="Gamma" xMin="181" yMin="0" xMax="1072" yMax="1456">
      <contour>
        <pt x="1072" y="1304" on="1"/>
        <pt x="367" y="1304" on="1"/>
        <pt x="367" y="0" on="1"/>
        <pt x="181" y="0" on="1"/>
        <pt x="181" y="1456" on="1"/>
        <pt x="1072" y="1456" on="1"/>
      </contour>
    </TTGlyph>
    <TTGlyph name="Gbreve" xMin="100" yMin="-21" xMax="1116" yMax="1887">
      <component glyphName="G" x="0" y="0" flags="0x204"/>
      <component glyphName="breve" x="25" y="429" flags="0x4"/>
    </TTGlyph>
    <TTGlyph name="Gbreve.smcp" xMin="124" yMin="-16" xMax="1089" yMax="1574">
      <component glyphName="G.smcp" x="0" y="0" flags="0x204"/>
      <component glyphName="breve" x="-3" y="116" flags="0x4"/>
    </TTGlyph>
    <TTGlyph name="Gcircumflex" xMin="100" yMin="-21" xMax="1116" yMax="1885">
      <component glyphName="G" x="0" y="0" flags="0x204"/>
      <component glyphName="circumflex" x="145" y="368" flags="0x4"/>
    </TTGlyph>
    <TTGlyph name="Gcircumflex.smcp" xMin="124" yMin="-16" xMax="1089" yMax="1572">
      <component glyphName="G.smcp" x="0" y="0" flags="0x204"/>
      <component glyphName="circumflex" x="116" y="55" flags="0x4"/>
    </TTGlyph>
    <TTGlyph name="Gcommaaccent" xMin="100" yMin="-475" xMax="1116" yMax="1476">
      <component glyphName="G" x="0" y="0" flags="0x204"/>
      <component glyphName="commaaccent" x="177" y="-305" flags="0x4"/>
    </TTGlyph>
    <TTGlyph name="Gcommaaccent.smcp" xMin="124" yMin="-469" xMax="1089" yMax="1181">
      <component glyphName="G.smcp" x="0" y="0" flags="0x204"/>
      <component glyphName="commaaccent" x="157" y="-299" flags="0x4"/>
    </TTGlyph>
    <TTGlyph name="Germandbls" xMin="143" yMin="-20" xMax="1151" yMax="1476">
      <contour>
        <pt x="327" y="0" on="1"/>
        <pt x="143" y="0" on="1"/>
        <pt x="143" y="961" on="1"/>
        <pt x="143" y="1216" on="0"/>
        <pt x="362" y="1476" on="0"/>
        <pt x="589" y="1476" on="1"/>
        <pt x="664" y="1476" on="0"/>
        <pt x="791" y="1441" on="0"/>
        <pt x="902" y="1379" on="0"/>
        <pt x="999" y="1294" on="0"/>
        <pt x="1043" y="1244" on="1"/>
        <pt x="748" y="844" on="1"/>
        <pt x="844" y="835" on="0"/>
        <pt x="994" y="770" on="0"/>
        <pt x="1097" y="659" on="0"/>
        <pt x="1151" y="505" on="0"/>
        <pt x="1151" y="408" on="1"/>
        <pt x="1151" y="306" on="0"/>
        <pt x="1084" y="146" on="0"/>
        <pt x="964" y="37" on="0"/>
        <pt x="798" y="-20" on="0"/>
        <pt x="699" y="-20" on="1"/>
        <pt x="638" y="-20" on="0"/>
        <pt x="516" y="3" on="0"/>
        <pt x="454" y="29" on="1"/>
        <pt x="508" y="181" on="1"/>
        <pt x="543" y="161" on="0"/>
        <pt x="638" y="130" on="0"/>
        <pt x="699" y="130" on="1"/>
        <pt x="762" y="130" on="0"/>
        <pt x="860" y="171" on="0"/>
        <pt x="929" y="243" on="0"/>
        <pt x="965" y="344" on="0"/>
        <pt x="965" y="404" on="1"/>
        <pt x="965" y="558" on="0"/>
        <pt x="819" y="700" on="0"/>
        <pt x="675" y="700" on="1"/>
        <pt x="564" y="700" on="1"/>
        <pt x="564" y="851" on="1"/>
        <pt x="832" y="1224" on="1"/>
        <pt x="811" y="1243" on="0"/>
        <pt x="763" y="1279" on="0"/>
        <pt x="703" y="1307" on="0"/>
        <pt x="632" y="1324" on="0"/>
        <pt x="589" y="1324" on="1"/>
        <pt x="508" y="1324" on="0"/>
        <pt x="406" y="1265" on="0"/>
        <pt x="348" y="1165" on="0"/>
        <pt x="327" y="1033" on="0"/>
        <pt x="327" y="959" on="1"/>
      </contour>
    </TTGlyph>
    <TTGlyph name="Germandbls.smcp" xMin="210" yMin="-20" xMax="1089" yMax="1181">
      <contour>
        <pt x="523" y="181" on="1"/>
        <pt x="555" y="161" on="0"/>
        <pt x="639" y="130" on="0"/>
        <pt x="693" y="130" on="1"/>
        <pt x="743" y="130" on="0"/>
        <pt x="821" y="163" on="0"/>
        <pt x="875" y="222" on="0"/>
        <pt x="904" y="303" on="0"/>
        <pt x="904" y="352" on="1"/>
        <pt x="904" y="450" on="0"/>
        <pt x="768" y="535" on="0"/>
        <pt x="633" y="535" on="1"/>
        <pt x="549" y="535" on="1"/>
        <pt x="549" y="672" on="1"/>
        <pt x="786" y="967" on="1"/>
        <pt x="757" y="990" on="0"/>
        <pt x="673" y="1029" on="0"/>
        <pt x="610" y="1029" on="1"/>
        <pt x="547" y="1029" on="0"/>
        <pt x="464" y="985" on="0"/>
        <pt x="415" y="910" on="0"/>
        <pt x="394" y="809" on="0"/>
        <pt x="394" y="753" on="1"/>
        <pt x="394" y="0" on="1"/>
        <pt x="210" y="0" on="1"/>
        <pt x="210" y="753" on="1"/>
        <pt x="210" y="966" on="0"/>
        <pt x="406" y="1181" on="0"/>
        <pt x="610" y="1181" on="1"/>
        <pt x="675" y="1181" on="0"/>
        <pt x="787" y="1152" on="0"/>
        <pt x="886" y="1103" on="0"/>
        <pt x="973" y="1036" on="0"/>
        <pt x="1012" y="998" on="1"/>
        <pt x="738" y="668" on="1"/>
        <pt x="819" y="661" on="0"/>
        <pt x="949" y="614" on="0"/>
        <pt x="1040" y="535" on="0"/>
        <pt x="1089" y="426" on="0"/>
        <pt x="1089" y="356" on="1"/>
        <pt x="1089" y="266" on="0"/>
        <pt x="1030" y="126" on="0"/>
        <pt x="925" y="30" on="0"/>
        <pt x="780" y="-20" on="0"/>
        <pt x="693" y="-20" on="1"/>
        <pt x="636" y="-20" on="0"/>
        <pt x="525" y="3" on="0"/>
        <pt x="470" y="29" on="1"/>
      </contour>
    </TTGlyph>
    <TTGlyph name="H" xMin="141" yMin="0" xMax="1087" yMax="1456">
      <contour>
        <pt x="1087" y="0" on="1"/>
        <pt x="912" y="0" on="1"/>
        <pt x="912" y="673" on="1"/>
        <pt x="315" y="673" on="1"/>
        <pt x="315" y="0" on="1"/>
        <pt x="141" y="0" on="1"/>
        <pt x="141" y="1456" on="1"/>
        <pt x="315" y="1456" on="1"/>
        <pt x="315" y="830" on="1"/>
        <pt x="912" y="830" on="1"/>
        <pt x="912" y="1456" on="1"/>
        <pt x="1087" y="1456" on="1"/>
      </contour>
    </TTGlyph>
    <TTGlyph name="H.smcp" xMin="155" yMin="0" xMax="1017" yMax="1165">
      <contour>
        <pt x="1017" y="0" on="1"/>
        <pt x="839" y="0" on="1"/>
        <pt x="839" y="498" on="1"/>
        <pt x="333" y="498" on="1"/>
        <pt x="333" y="0" on="1"/>
        <pt x="155" y="0" on="1"/>
        <pt x="155" y="1165" on="1"/>
        <pt x="333" y="1165" on="1"/>
        <pt x="333" y="650" on="1"/>
        <pt x="839" y="650" on="1"/>
        <pt x="839" y="1165" on="1"/>
        <pt x="1017" y="1165" on="1"/>
      </contour>
    </TTGlyph>
    <TTGlyph name="Hbar" xMin="24" yMin="0" xMax="1212" yMax="1456">
      <contour>
        <pt x="1084" y="1167" on="1"/>
        <pt x="1212" y="1167" on="1"/>
        <pt x="1212" y="1024" on="1"/>
        <pt x="1084" y="1024" on="1"/>
        <pt x="1084" y="0" on="1"/>
        <pt x="909" y="0" on="1"/>
        <pt x="909" y="673" on="1"/>
        <pt x="312" y="673" on="1"/>
        <pt x="312" y="0" on="1"/>
        <pt x="138" y="0" on="1"/>
        <pt x="138" y="1024" on="1"/>
        <pt x="24" y="1024" on="1"/>
        <pt x="24" y="1167" on="1"/>
        <pt x="138" y="1167" on="1"/>
        <pt x="138" y="1456" on="1"/>
        <pt x="312" y="1456" on="1"/>
        <pt x="312" y="1167" on="1"/>
        <pt x="909" y="1167" on="1"/>
        <pt x="909" y="1456" on="1"/>
        <pt x="1084" y="1456" on="1"/>
      </contour>
      <contour>
        <pt x="312" y="830" on="1"/>
        <pt x="909" y="830" on="1"/>
        <pt x="909" y="1024" on="1"/>
        <pt x="312" y="1024" on="1"/>
      </contour>
    </TTGlyph>
    <TTGlyph name="Hcircumflex" xMin="141" yMin="0" xMax="1087" yMax="1864">
      <component glyphName="H" x="0" y="0" flags="0x204"/>
      <component glyphName="circumflex" x="113" y="347" flags="0x4"/>
    </TTGlyph>
    <TTGlyph name="Hcircumflex.smcp" xMin="155" yMin="0" xMax="1017" yMax="1572">
      <component glyphName="H.smcp" x="0" y="0" flags="0x204"/>
      <component glyphName="circumflex" x="158" y="55" flags="0x4"/>
    </TTGlyph>
    <TTGlyph name="I" xMin="174" yMin="0" xMax="1054" yMax="1456">
      <contour>
        <pt x="174" y="1456" on="1"/>
        <pt x="1054" y="1456" on="1"/>
        <pt x="1054" y="1295" on="1"/>
        <pt x="705" y="1295" on="1"/>
        <pt x="705" y="160" on="1"/>
        <pt x="1054" y="160" on="1"/>
        <pt x="1054" y="0" on="1"/>
        <pt x="174" y="0" on="1"/>
        <pt x="174" y="160" on="1"/>
        <pt x="515" y="160" on="1"/>
        <pt x="515" y="1295" on="1"/>
        <pt x="174" y="1295" on="1"/>
      </contour>
    </TTGlyph>
    <TTGlyph name="I.smcp" xMin="217" yMin="0" xMax="1040" yMax="1164">
      <contour>
        <pt x="217" y="1164" on="1"/>
        <pt x="1040" y="1164" on="1"/>
        <pt x="1040" y="1003" on="1"/>
        <pt x="717" y="1003" on="1"/>
        <pt x="717" y="160" on="1"/>
        <pt x="1040" y="160" on="1"/>
        <pt x="1040" y="0" on="1"/>
        <pt x="217" y="0" on="1"/>
        <pt x="217" y="160" on="1"/>
        <pt x="532" y="160" on="1"/>
        <pt x="532" y="1003" on="1"/>
        <pt x="217" y="1003" on="1"/>
      </contour>
    </TTGlyph>
    <TTGlyph name="IJ" xMin="128" yMin="-19" xMax="1100" yMax="1456">
      <contour>
        <pt x="313" y="0" on="1"/>
        <pt x="128" y="0" on="1"/>
        <pt x="128" y="1456" on="1"/>
        <pt x="313" y="1456" on="1"/>
      </contour>
      <contour>
        <pt x="915" y="1456" on="1"/>
        <pt x="1100" y="1456" on="1"/>
        <pt x="1100" y="323" on="1"/>
        <pt x="1100" y="242" on="0"/>
        <pt x="1059" y="115" on="0"/>
        <pt x="974" y="27" on="0"/>
        <pt x="845" y="-19" on="0"/>
        <pt x="758" y="-19" on="1"/>
        <pt x="685" y="-19" on="0"/>
        <pt x="562" y="22" on="0"/>
        <pt x="474" y="106" on="0"/>
        <pt x="424" y="234" on="0"/>
        <pt x="424" y="321" on="1"/>
        <pt x="610" y="321" on="1"/>
        <pt x="610" y="222" on="0"/>
        <pt x="690" y="132" on="0"/>
        <pt x="758" y="132" on="1"/>
        <pt x="804" y="132" on="0"/>
        <pt x="864" y="159" on="0"/>
        <pt x="900" y="208" on="0"/>
        <pt x="915" y="279" on="0"/>
        <pt x="915" y="323" on="1"/>
      </contour>
    </TTGlyph>
    <TTGlyph name="Iacute" xMin="174" yMin="0" xMax="1054" yMax="1824">
      <component glyphName="I" x="0" y="0" flags="0x204"/>
      <component glyphName="acute" x="71" y="343" flags="0x4"/>
    </TTGlyph>
    <TTGlyph name="Iacute.smcp" xMin="217" yMin="0" xMax="1040" yMax="1504">
      <component glyphName="I.smcp" x="0" y="0" flags="0x204"/>
      <component glyphName="acute" x="146" y="23" flags="0x4"/>
    </TTGlyph>
    <TTGlyph name="Ibreve" xMin="174" yMin="0" xMax="1054" yMax="1866">
      <component glyphName="I" x="0" y="0" flags="0x204"/>
      <component glyphName="breve" x="-46" y="408" flags="0x4"/>
    </TTGlyph>
    <TTGlyph name="Ibreve.smcp" xMin="217" yMin="0" xMax="1040" yMax="1546">
      <component glyphName="I.smcp" x="0" y="0" flags="0x204"/>
      <component glyphName="breve" x="28" y="88" flags="0x4"/>
    </TTGlyph>
    <TTGlyph name="Icircumflex" xMin="174" yMin="0" xMax="1054" yMax="1864">
      <component glyphName="I" x="0" y="0" flags="0x204"/>
      <component glyphName="circumflex" x="73" y="347" flags="0x4"/>
    </TTGlyph>
    <TTGlyph name="Icircumflex.smcp" xMin="217" yMin="0" xMax="1040" yMax="1544">
      <component glyphName="I.smcp" x="0" y="0" flags="0x204"/>
      <component glyphName="circumflex" x="148" y="27" flags="0x4"/>
    </TTGlyph>
    <TTGlyph name="Idieresis" xMin="174" yMin="0" xMax="1054" yMax="1824">
      <component glyphName="I" x="0" y="0" flags="0x204"/>
      <component glyphName="dieresis" x="-46" y="347" flags="0x4"/>
    </TTGlyph>
    <TTGlyph name="Idieresis.smcp" xMin="217" yMin="0" xMax="1040" yMax="1504">
      <component glyphName="I.smcp" x="0" y="0" flags="0x204"/>
      <component glyphName="dieresis" x="28" y="27" flags="0x4"/>
    </TTGlyph>
    <TTGlyph name="Idotaccent" xMin="174" yMin="0" xMax="1054" yMax="1817">
      <component glyphName="I" x="0" y="0" flags="0x204"/>
      <component glyphName="dotaccent" x="-46" y="347" flags="0x4"/>
    </TTGlyph>
    <TTGlyph name="Idotaccent.smcp" xMin="217" yMin="0" xMax="1040" yMax="1497">
      <component glyphName="I.smcp" x="0" y="0" flags="0x204"/>
      <component glyphName="dotaccent" x="28" y="27" flags="0x4"/>
    </TTGlyph>
    <TTGlyph name="Igrave" xMin="174" yMin="0" xMax="1054" yMax="1827">
      <component glyphName="I" x="0" y="0" flags="0x204"/>
      <component glyphName="grave" x="-165" y="346" flags="0x4"/>
    </TTGlyph>
    <TTGlyph name="Igrave.smcp" xMin="217" yMin="0" xMax="1040" yMax="1507">
      <component glyphName="I.smcp" x="0" y="0" flags="0x204"/>
      <component glyphName="grave" x="-90" y="26" flags="0x4"/>
    </TTGlyph>
    <TTGlyph name="Imacron" xMin="174" yMin="0" xMax="1054" yMax="1786">
      <component glyphName="I" x="0" y="0" flags="0x204"/>
      <component glyphName="macron" x="-42" y="330" flags="0x4"/>
    </TTGlyph>
    <TTGlyph name="Imacron.smcp" xMin="217" yMin="0" xMax="1040" yMax="1466">
      <component glyphName="I.smcp" x="0" y="0" flags="0x204"/>
      <component glyphName="macron" x="32" y="10" flags="0x4"/>
    </TTGlyph>
    <TTGlyph name="Iogonek" xMin="174" yMin="-433" xMax="1054" yMax="1456">
      <contour>
        <pt x="174" y="1456" on="1"/>
        <pt x="1054" y="1456" on="1"/>
        <pt x="1054" y="1295" on="1"/>
        <pt x="705" y="1295" on="1"/>
        <pt x="705" y="160" on="1"/>
        <pt x="1054" y="160" on="1"/>
        <pt x="1054" y="0" on="1"/>
        <pt x="762" y="0" on="1"/>
        <pt x="684" y="-42" on="0"/>
        <pt x="590" y="-153" on="0"/>
        <pt x="590" y="-219" on="1"/>
        <pt x="590" y="-253" on="0"/>
        <pt x="626" y="-294" on="0"/>
        <pt x="668" y="-294" on="1"/>
        <pt x="700" y="-295" on="0"/>
        <pt x="753" y="-276" on="0"/>
        <pt x="769" y="-268" on="1"/>
        <pt x="800" y="-389" on="1"/>
        <pt x="772" y="-405" on="0"/>
        <pt x="687" y="-433" on="0"/>
        <pt x="622" y="-433" on="1"/>
        <pt x="581" y="-433" on="0"/>
        <pt x="511" y="-409" on="0"/>
        <pt x="459" y="-361" on="0"/>
        <pt x="429" y="-290" on="0"/>
        <pt x="429" y="-243" on="1"/>
        <pt x="429" y="-180" on="0"/>
        <pt x="509" y="-53" on="0"/>
        <pt x="581" y="0" on="1"/>
        <pt x="174" y="0" on="1"/>
        <pt x="174" y="160" on="1"/>
        <pt x="515" y="160" on="1"/>
        <pt x="515" y="1295" on="1"/>
        <pt x="174" y="1295" on="1"/>
      </contour>
    </TTGlyph>
    <TTGlyph name="Iogonek.smcp" xMin="217" yMin="-433" xMax="1040" yMax="1164">
      <contour>
        <pt x="217" y="1164" on="1"/>
        <pt x="1040" y="1164" on="1"/>
        <pt x="1040" y="1003" on="1"/>
        <pt x="717" y="1003" on="1"/>
        <pt x="717" y="160" on="1"/>
        <pt x="1040" y="160" on="1"/>
        <pt x="1040" y="0" on="1"/>
        <pt x="762" y="0" on="1"/>
        <pt x="684" y="-42" on="0"/>
        <pt x="590" y="-153" on="0"/>
        <pt x="590" y="-219" on="1"/>
        <pt x="590" y="-253" on="0"/>
        <pt x="626" y="-294" on="0"/>
        <pt x="668" y="-294" on="1"/>
        <pt x="700" y="-295" on="0"/>
        <pt x="753" y="-276" on="0"/>
        <pt x="769" y="-268" on="1"/>
        <pt x="800" y="-389" on="1"/>
        <pt x="772" y="-405" on="0"/>
        <pt x="687" y="-433" on="0"/>
        <pt x="622" y="-433" on="1"/>
        <pt x="581" y="-433" on="0"/>
        <pt x="511" y="-409" on="0"/>
        <pt x="459" y="-361" on="0"/>
        <pt x="429" y="-290" on="0"/>
        <pt x="429" y="-243" on="1"/>
        <pt x="429" y="-180" on="0"/>
        <pt x="509" y="-53" on="0"/>
        <pt x="581" y="0" on="1"/>
        <pt x="217" y="0" on="1"/>
        <pt x="217" y="160" on="1"/>
        <pt x="532" y="160" on="1"/>
        <pt x="532" y="1003" on="1"/>
        <pt x="217" y="1003" on="1"/>
      </contour>
    </TTGlyph>
    <TTGlyph name="Iota" xMin="174" yMin="0" xMax="1054" yMax="1456">
      <component glyphName="I" x="0" y="0" flags="0x204"/>
    </TTGlyph>
    <TTGlyph name="Iotadieresis" xMin="174" yMin="0" xMax="1054" yMax="1824">
      <component glyphName="I" x="0" y="0" flags="0x204"/>
      <component glyphName="dieresis" x="-46" y="347" flags="0x4"/>
    </TTGlyph>
    <TTGlyph name="Iotatonos" xMin="-20" yMin="0" xMax="1154" yMax="1660">
      <component glyphName="I" x="100" y="0" flags="0x4"/>
      <component glyphName="tonos" x="-573" y="2" flags="0x4"/>
    </TTGlyph>
    <TTGlyph name="Itilde" xMin="174" yMin="0" xMax="1054" yMax="1874">
      <component glyphName="I" x="0" y="0" flags="0x204"/>
      <component glyphName="tilde" x="85" y="353" flags="0x4"/>
    </TTGlyph>
    <TTGlyph name="Itilde.smcp" xMin="217" yMin="0" xMax="1040" yMax="1554">
      <component glyphName="I.smcp" x="0" y="0" flags="0x204"/>
      <component glyphName="tilde" x="160" y="33" flags="0x4"/>
    </TTGlyph>
    <TTGlyph name="J" xMin="98" yMin="-20" xMax="1046" yMax="1456">
      <contour>
        <pt x="857" y="1456" on="1"/>
        <pt x="1046" y="1456" on="1"/>
        <pt x="1046" y="443" on="1"/>
        <pt x="1044" y="342" on="0"/>
        <pt x="971" y="172" on="0"/>
        <pt x="845" y="49" on="0"/>
        <pt x="674" y="-20" on="0"/>
        <pt x="573" y="-20" on="1"/>
        <pt x="471" y="-20" on="0"/>
        <pt x="304" y="42" on="0"/>
        <pt x="181" y="157" on="0"/>
        <pt x="107" y="320" on="0"/>
        <pt x="98" y="421" on="1"/>
        <pt x="286" y="421" on="1"/>
        <pt x="289" y="360" on="0"/>
        <pt x="332" y="256" on="0"/>
        <pt x="406" y="179" on="0"/>
        <pt x="509" y="137" on="0"/>
        <pt x="573" y="137" on="1"/>
        <pt x="639" y="137" on="0"/>
        <pt x="743" y="186" on="0"/>
        <pt x="816" y="270" on="0"/>
        <pt x="855" y="381" on="0"/>
        <pt x="857" y="443" on="1"/>
      </contour>
    </TTGlyph>
    <TTGlyph name="J.smcp" xMin="150" yMin="-16" xMax="998" yMax="1165">
      <contour>
        <pt x="808" y="1165" on="1"/>
        <pt x="998" y="1165" on="1"/>
        <pt x="996" y="375" on="1"/>
        <pt x="994" y="280" on="0"/>
        <pt x="926" y="134" on="0"/>
        <pt x="813" y="35" on="0"/>
        <pt x="665" y="-16" on="0"/>
        <pt x="585" y="-16" on="1"/>
        <pt x="498" y="-16" on="0"/>
        <pt x="346" y="28" on="0"/>
        <pt x="231" y="121" on="0"/>
        <pt x="158" y="266" on="0"/>
        <pt x="150" y="367" on="1"/>
        <pt x="340" y="367" on="1"/>
        <pt x="340" y="305" on="0"/>
        <pt x="380" y="216" on="0"/>
        <pt x="448" y="160" on="0"/>
        <pt x="536" y="135" on="0"/>
        <pt x="585" y="135" on="1"/>
        <pt x="632" y="135" on="0"/>
        <pt x="712" y="168" on="0"/>
        <pt x="772" y="229" on="0"/>
        <pt x="807" y="318" on="0"/>
        <pt x="809" y="375" on="1"/>
      </contour>
    </TTGlyph>
    <TTGlyph name="Jcircumflex" xMin="98" yMin="-20" xMax="1247" yMax="1851">
      <component glyphName="J" x="0" y="0" flags="0x204"/>
      <component glyphName="circumflex" x="449" y="334" flags="0x4"/>
    </TTGlyph>
    <TTGlyph name="Jcircumflex.smcp" xMin="150" yMin="-16" xMax="1143" yMax="1572">
      <component glyphName="J.smcp" x="0" y="0" flags="0x204"/>
      <component glyphName="circumflex" x="345" y="55" flags="0x4"/>
    </TTGlyph>
    <TTGlyph name="K" xMin="172" yMin="0" xMax="1188" yMax="1456">
      <contour>
        <pt x="523" y="676" on="1"/>
        <pt x="361" y="492" on="1"/>
        <pt x="361" y="0" on="1"/>
        <pt x="172" y="0" on="1"/>
        <pt x="172" y="1456" on="1"/>
        <pt x="361" y="1456" on="1"/>
        <pt x="361" y="745" on="1"/>
        <pt x="502" y="921" on="1"/>
        <pt x="929" y="1456" on="1"/>
        <pt x="1154" y="1456" on="1"/>
        <pt x="645" y="819" on="1"/>
        <pt x="1188" y="0" on="1"/>
        <pt x="963" y="0" on="1"/>
      </contour>
    </TTGlyph>
    <TTGlyph name="K.alt" xMin="169" yMin="0" xMax="1206" yMax="1456">
      <contour>
        <pt x="525" y="659" on="1"/>
        <pt x="354" y="659" on="1"/>
        <pt x="354" y="0" on="1"/>
        <pt x="169" y="0" on="1"/>
        <pt x="169" y="1456" on="1"/>
        <pt x="354" y="1456" on="1"/>
        <pt x="354" y="810" on="1"/>
        <pt x="510" y="810" on="1"/>
        <pt x="953" y="1456" on="1"/>
        <pt x="1165" y="1456" on="1"/>
        <pt x="670" y="751" on="1"/>
        <pt x="1206" y="0" on="1"/>
        <pt x="979" y="0" on="1"/>
      </contour>
    </TTGlyph>
    <TTGlyph name="K.smcp" xMin="180" yMin="0" xMax="1152" yMax="1165">
      <contour>
        <pt x="512" y="519" on="1"/>
        <pt x="365" y="377" on="1"/>
        <pt x="365" y="0" on="1"/>
        <pt x="180" y="0" on="1"/>
        <pt x="180" y="1165" on="1"/>
        <pt x="365" y="1165" on="1"/>
        <pt x="365" y="611" on="1"/>
        <pt x="495" y="754" on="1"/>
        <pt x="891" y="1165" on="1"/>
        <pt x="1118" y="1165" on="1"/>
        <pt x="640" y="646" on="1"/>
        <pt x="1152" y="0" on="1"/>
        <pt x="927" y="0" on="1"/>
      </contour>
    </TTGlyph>
    <TTGlyph name="Kappa" xMin="172" yMin="0" xMax="1188" yMax="1456">
      <component glyphName="K" x="0" y="0" flags="0x204"/>
    </TTGlyph>
    <TTGlyph name="Kcommaaccent" xMin="172" yMin="-450" xMax="1188" yMax="1456">
      <component glyphName="K" x="0" y="0" flags="0x204"/>
      <component glyphName="commaaccent" x="182" y="-280" flags="0x4"/>
    </TTGlyph>
    <TTGlyph name="Kcommaaccent.smcp" xMin="180" yMin="-460" xMax="1152" yMax="1165">
      <component glyphName="K.smcp" x="0" y="0" flags="0x204"/>
      <component glyphName="commaaccent" x="107" y="-290" flags="0x4"/>
    </TTGlyph>
    <TTGlyph name="L" xMin="198" yMin="0" xMax="1095" yMax="1456">
      <contour>
        <pt x="383" y="157" on="1"/>
        <pt x="1095" y="157" on="1"/>
        <pt x="1095" y="0" on="1"/>
        <pt x="198" y="0" on="1"/>
        <pt x="198" y="1456" on="1"/>
        <pt x="383" y="1456" on="1"/>
      </contour>
    </TTGlyph>
    <TTGlyph name="L.smcp" xMin="209" yMin="0" xMax="1106" yMax="1165">
      <contour>
        <pt x="405" y="151" on="1"/>
        <pt x="1106" y="151" on="1"/>
        <pt x="1106" y="0" on="1"/>
        <pt x="209" y="0" on="1"/>
        <pt x="209" y="1165" on="1"/>
        <pt x="405" y="1165" on="1"/>
      </contour>
    </TTGlyph>
    <TTGlyph name="Lacute" xMin="198" yMin="0" xMax="1095" yMax="1792">
      <component glyphName="L" x="0" y="0" flags="0x204"/>
      <component glyphName="acute" x="-202" y="311" flags="0x4"/>
    </TTGlyph>
    <TTGlyph name="Lacute.smcp" xMin="182" yMin="0" xMax="1106" yMax="1532">
      <component glyphName="L.smcp" x="0" y="0" flags="0x204"/>
      <component glyphName="acute" x="-228" y="51" flags="0x4"/>
    </TTGlyph>
    <TTGlyph name="Lambda" xMin="54" yMin="0" xMax="1184" yMax="1456">
      <contour>
        <pt x="618" y="1180" on="1"/>
        <pt x="243" y="0" on="1"/>
        <pt x="54" y="0" on="1"/>
        <pt x="538" y="1456" on="1"/>
        <pt x="699" y="1456" on="1"/>
        <pt x="1184" y="0" on="1"/>
        <pt x="995" y="0" on="1"/>
      </contour>
    </TTGlyph>
    <TTGlyph name="Lcaron" xMin="198" yMin="0" xMax="1095" yMax="1456">
      <component glyphName="L" x="0" y="0" flags="0x204"/>
      <component glyphName="quoteright" x="242" y="-102" flags="0x4"/>
    </TTGlyph>
    <TTGlyph name="Lcaron.smcp" xMin="209" yMin="0" xMax="1106" yMax="1165">
      <component glyphName="L.smcp" x="0" y="0" flags="0x204"/>
      <component glyphName="quoteright" x="148" y="-393" flags="0x4"/>
    </TTGlyph>
    <TTGlyph name="Lcommaaccent" xMin="198" yMin="-456" xMax="1095" yMax="1456">
      <component glyphName="L" x="0" y="0" flags="0x204"/>
      <component glyphName="commaaccent" x="183" y="-286" flags="0x4"/>
    </TTGlyph>
    <TTGlyph name="Lcommaaccent.smcp" xMin="209" yMin="-458" xMax="1106" yMax="1165">
      <component glyphName="L.smcp" x="0" y="0" flags="0x204"/>
      <component glyphName="commaaccent" x="104" y="-288" flags="0x4"/>
    </TTGlyph>
    <TTGlyph name="Ldot" xMin="198" yMin="0" xMax="1095" yMax="1456">
      <component glyphName="L" x="0" y="0" flags="0x204"/>
      <component glyphName="dotaccent" x="116" y="-571" flags="0x4"/>
    </TTGlyph>
    <TTGlyph name="Ldot.smcp" xMin="209" yMin="0" xMax="1106" yMax="1165">
      <component glyphName="L.smcp" x="0" y="0" flags="0x204"/>
      <component glyphName="dotaccent" x="25" y="-713" flags="0x4"/>
    </TTGlyph>
    <TTGlyph name="Lslash" xMin="58" yMin="0" xMax="1099" yMax="1456">
      <contour>
        <pt x="387" y="845" on="1"/>
        <pt x="649" y="928" on="1"/>
        <pt x="649" y="766" on="1"/>
        <pt x="387" y="683" on="1"/>
        <pt x="387" y="157" on="1"/>
        <pt x="1099" y="157" on="1"/>
        <pt x="1099" y="0" on="1"/>
        <pt x="202" y="0" on="1"/>
        <pt x="202" y="624" on="1"/>
        <pt x="58" y="579" on="1"/>
        <pt x="58" y="741" on="1"/>
        <pt x="202" y="786" on="1"/>
        <pt x="202" y="1456" on="1"/>
        <pt x="387" y="1456" on="1"/>
      </contour>
    </TTGlyph>
    <TTGlyph name="M" xMin="148" yMin="0" xMax="1100" yMax="1456">
      <contour>
        <pt x="377" y="1456" on="1"/>
        <pt x="614" y="728" on="1"/>
        <pt x="870" y="1456" on="1"/>
        <pt x="1100" y="1456" on="1"/>
        <pt x="1100" y="0" on="1"/>
        <pt x="920" y="0" on="1"/>
        <pt x="920" y="581" on="1"/>
        <pt x="935" y="1189" on="1"/>
        <pt x="666" y="405" on="1"/>
        <pt x="560" y="405" on="1"/>
        <pt x="313" y="1168" on="1"/>
        <pt x="328" y="581" on="1"/>
        <pt x="328" y="0" on="1"/>
        <pt x="148" y="0" on="1"/>
        <pt x="148" y="1456" on="1"/>
      </contour>
    </TTGlyph>
    <TTGlyph name="M.smcp" xMin="155" yMin="0" xMax="1082" yMax="1165">
      <contour>
        <pt x="621" y="600" on="1"/>
        <pt x="841" y="1165" on="1"/>
        <pt x="1082" y="1165" on="1"/>
        <pt x="1082" y="0" on="1"/>
        <pt x="906" y="0" on="1"/>
        <pt x="906" y="959" on="1"/>
        <pt x="688" y="318" on="1"/>
        <pt x="557" y="318" on="1"/>
        <pt x="331" y="945" on="1"/>
        <pt x="331" y="0" on="1"/>
        <pt x="155" y="0" on="1"/>
        <pt x="155" y="1165" on="1"/>
        <pt x="403" y="1165" on="1"/>
      </contour>
    </TTGlyph>
    <TTGlyph name="Mu" xMin="148" yMin="0" xMax="1100" yMax="1456">
      <component glyphName="M" x="0" y="0" flags="0x204"/>
    </TTGlyph>
    <TTGlyph name="N" xMin="143" yMin="0" xMax="1086" yMax="1456">
      <contour>
        <pt x="1086" y="0" on="1"/>
        <pt x="898" y="0" on="1"/>
        <pt x="333" y="1088" on="1"/>
        <pt x="330" y="0" on="1"/>
        <pt x="143" y="0" on="1"/>
        <pt x="143" y="1456" on="1"/>
        <pt x="331" y="1456" on="1"/>
        <pt x="896" y="370" on="1"/>
        <pt x="899" y="1456" on="1"/>
        <pt x="1086" y="1456" on="1"/>
      </contour>
    </TTGlyph>
    <TTGlyph name="N.smcp" xMin="194" yMin="0" xMax="1039" yMax="1165">
      <contour>
        <pt x="1039" y="0" on="1"/>
        <pt x="867" y="0" on="1"/>
        <pt x="366" y="876" on="1"/>
        <pt x="371" y="0" on="1"/>
        <pt x="194" y="0" on="1"/>
        <pt x="194" y="1165" on="1"/>
        <pt x="368" y="1165" on="1"/>
        <pt x="869" y="288" on="1"/>
        <pt x="863" y="1165" on="1"/>
        <pt x="1039" y="1165" on="1"/>
      </contour>
    </TTGlyph>
    <TTGlyph name="Nacute" xMin="143" yMin="0" xMax="1086" yMax="1824">
      <component glyphName="N" x="0" y="0" flags="0x204"/>
      <component glyphName="acute" x="94" y="343" flags="0x4"/>
    </TTGlyph>
    <TTGlyph name="Nacute.smcp" xMin="194" yMin="0" xMax="1039" yMax="1532">
      <component glyphName="N.smcp" x="0" y="0" flags="0x204"/>
      <component glyphName="acute" x="206" y="51" flags="0x4"/>
    </TTGlyph>
    <TTGlyph name="Ncaron" xMin="143" yMin="0" xMax="1086" yMax="1865">
      <component glyphName="N" x="0" y="0" flags="0x204"/>
      <component glyphName="caron" x="-22" y="348" flags="0x4"/>
    </TTGlyph>
    <TTGlyph name="Ncaron.smcp" xMin="194" yMin="0" xMax="1039" yMax="1573">
      <component glyphName="N.smcp" x="0" y="0" flags="0x204"/>
      <component glyphName="caron" x="89" y="56" flags="0x4"/>
    </TTGlyph>
    <TTGlyph name="Ncommaaccent" xMin="143" yMin="-456" xMax="1086" yMax="1456">
      <component glyphName="N" x="0" y="0" flags="0x204"/>
      <component glyphName="commaaccent" x="132" y="-286" flags="0x4"/>
    </TTGlyph>
    <TTGlyph name="Ncommaaccent.smcp" xMin="194" yMin="-462" xMax="1039" yMax="1165">
      <component glyphName="N.smcp" x="0" y="0" flags="0x204"/>
      <component glyphName="commaaccent" x="239" y="-292" flags="0x4"/>
    </TTGlyph>
    <TTGlyph name="Ntilde" xMin="143" yMin="0" xMax="1086" yMax="1874">
      <component glyphName="N" x="0" y="0" flags="0x204"/>
      <component glyphName="tilde" x="108" y="353" flags="0x4"/>
    </TTGlyph>
    <TTGlyph name="Ntilde.smcp" xMin="194" yMin="0" xMax="1046" yMax="1582">
      <component glyphName="N.smcp" x="0" y="0" flags="0x204"/>
      <component glyphName="tilde" x="220" y="61" flags="0x4"/>
    </TTGlyph>
    <TTGlyph name="Nu" xMin="143" yMin="0" xMax="1086" yMax="1456">
      <component glyphName="N" x="0" y="0" flags="0x204"/>
    </TTGlyph>
    <TTGlyph name="O" xMin="106" yMin="-20" xMax="1121" yMax="1476">
      <contour>
        <pt x="1121" y="644" on="1"/>
        <pt x="1120" y="566" on="0"/>
        <pt x="1095" y="407" on="0"/>
        <pt x="1043" y="259" on="0"/>
        <pt x="962" y="131" on="0"/>
        <pt x="850" y="35" on="0"/>
        <pt x="705" y="-20" on="0"/>
        <pt x="615" y="-20" on="1"/>
        <pt x="525" y="-20" on="0"/>
        <pt x="380" y="35" on="0"/>
        <pt x="268" y="131" on="0"/>
        <pt x="186" y="260" on="0"/>
        <pt x="133" y="408" on="0"/>
        <pt x="107" y="566" on="0"/>
        <pt x="106" y="644" on="1"/>
        <pt x="106" y="810" on="1"/>
        <pt x="107" y="888" on="0"/>
        <pt x="132" y="1047" on="0"/>
        <pt x="185" y="1195" on="0"/>
        <pt x="266" y="1324" on="0"/>
        <pt x="378" y="1421" on="0"/>
        <pt x="523" y="1476" on="0"/>
        <pt x="613" y="1476" on="1"/>
        <pt x="703" y="1476" on="0"/>
        <pt x="849" y="1421" on="0"/>
        <pt x="961" y="1325" on="0"/>
        <pt x="1042" y="1196" on="0"/>
        <pt x="1095" y="1048" on="0"/>
        <pt x="1120" y="888" on="0"/>
        <pt x="1121" y="810" on="1"/>
      </contour>
      <contour>
        <pt x="938" y="812" on="1"/>
        <pt x="937" y="864" on="0"/>
        <pt x="925" y="977" on="0"/>
        <pt x="896" y="1088" on="0"/>
        <pt x="848" y="1189" on="0"/>
        <pt x="776" y="1266" on="0"/>
        <pt x="678" y="1311" on="0"/>
        <pt x="613" y="1311" on="1"/>
        <pt x="549" y="1311" on="0"/>
        <pt x="451" y="1265" on="0"/>
        <pt x="379" y="1188" on="0"/>
        <pt x="331" y="1087" on="0"/>
        <pt x="302" y="976" on="0"/>
        <pt x="289" y="863" on="0"/>
        <pt x="288" y="812" on="1"/>
        <pt x="288" y="644" on="1"/>
        <pt x="289" y="593" on="0"/>
        <pt x="302" y="479" on="0"/>
        <pt x="332" y="368" on="0"/>
        <pt x="380" y="266" on="0"/>
        <pt x="452" y="189" on="0"/>
        <pt x="550" y="143" on="0"/>
        <pt x="615" y="143" on="1"/>
        <pt x="680" y="143" on="0"/>
        <pt x="779" y="189" on="0"/>
        <pt x="850" y="266" on="0"/>
        <pt x="897" y="367" on="0"/>
        <pt x="926" y="478" on="0"/>
        <pt x="937" y="592" on="0"/>
        <pt x="938" y="644" on="1"/>
      </contour>
    </TTGlyph>
    <TTGlyph name="O.smcp" xMin="130" yMin="-16" xMax="1098" yMax="1181">
      <contour>
        <pt x="1098" y="548" on="1"/>
        <pt x="1097" y="438" on="0"/>
        <pt x="1036" y="234" on="0"/>
        <pt x="915" y="78" on="0"/>
        <pt x="735" y="-16" on="0"/>
        <pt x="615" y="-16" on="1"/>
        <pt x="496" y="-16" on="0"/>
        <pt x="316" y="78" on="0"/>
        <pt x="194" y="235" on="0"/>
        <pt x="131" y="439" on="0"/>
        <pt x="130" y="548" on="1"/>
        <pt x="130" y="615" on="1"/>
        <pt x="131" y="724" on="0"/>
        <pt x="193" y="928" on="0"/>
        <pt x="315" y="1086" on="0"/>
        <pt x="495" y="1181" on="0"/>
        <pt x="614" y="1181" on="1"/>
        <pt x="734" y="1181" on="0"/>
        <pt x="915" y="1087" on="0"/>
        <pt x="1036" y="930" on="0"/>
        <pt x="1097" y="725" on="0"/>
        <pt x="1098" y="615" on="1"/>
      </contour>
      <contour>
        <pt x="915" y="617" on="1"/>
        <pt x="914" y="688" on="0"/>
        <pt x="883" y="834" on="0"/>
        <pt x="813" y="951" on="0"/>
        <pt x="698" y="1025" on="0"/>
        <pt x="614" y="1025" on="1"/>
        <pt x="530" y="1025" on="0"/>
        <pt x="416" y="950" on="0"/>
        <pt x="345" y="832" on="0"/>
        <pt x="314" y="687" on="0"/>
        <pt x="313" y="617" on="1"/>
        <pt x="313" y="548" on="1"/>
        <pt x="314" y="477" on="0"/>
        <pt x="346" y="332" on="0"/>
        <pt x="417" y="213" on="0"/>
        <pt x="531" y="138" on="0"/>
        <pt x="615" y="138" on="1"/>
        <pt x="700" y="138" on="0"/>
        <pt x="815" y="213" on="0"/>
        <pt x="884" y="331" on="0"/>
        <pt x="914" y="477" on="0"/>
        <pt x="915" y="548" on="1"/>
      </contour>
    </TTGlyph>
    <TTGlyph name="OE" xMin="79" yMin="-20" xMax="1190" yMax="1476">
      <contour>
        <pt x="1190" y="0" on="1"/>
        <pt x="762" y="0" on="1"/>
        <pt x="700" y="-7" on="0"/>
        <pt x="568" y="-20" on="0"/>
        <pt x="499" y="-20" on="1"/>
        <pt x="402" y="-20" on="0"/>
        <pt x="247" y="47" on="0"/>
        <pt x="138" y="179" on="0"/>
        <pt x="79" y="374" on="0"/>
        <pt x="79" y="502" on="1"/>
        <pt x="79" y="953" on="1"/>
        <pt x="79" y="1081" on="0"/>
        <pt x="137" y="1276" on="0"/>
        <pt x="245" y="1408" on="0"/>
        <pt x="400" y="1476" on="0"/>
        <pt x="497" y="1476" on="1"/>
        <pt x="566" y="1476" on="0"/>
        <pt x="700" y="1464" on="0"/>
        <pt x="762" y="1456" on="1"/>
        <pt x="1180" y="1456" on="1"/>
        <pt x="1180" y="1304" on="1"/>
        <pt x="783" y="1304" on="1"/>
        <pt x="783" y="828" on="1"/>
        <pt x="1127" y="828" on="1"/>
        <pt x="1127" y="676" on="1"/>
        <pt x="783" y="676" on="1"/>
        <pt x="783" y="151" on="1"/>
        <pt x="1190" y="151" on="1"/>
      </contour>
      <contour>
        <pt x="499" y="131" on="1"/>
        <pt x="548" y="131" on="0"/>
        <pt x="598" y="134" on="1"/>
        <pt x="598" y="1320" on="1"/>
        <pt x="573" y="1322" on="0"/>
        <pt x="523" y="1324" on="0"/>
        <pt x="497" y="1324" on="1"/>
        <pt x="440" y="1324" on="0"/>
        <pt x="352" y="1287" on="0"/>
        <pt x="294" y="1201" on="0"/>
        <pt x="264" y="1060" on="0"/>
        <pt x="264" y="955" on="1"/>
        <pt x="264" y="502" on="1"/>
        <pt x="264" y="397" on="0"/>
        <pt x="294" y="254" on="0"/>
        <pt x="354" y="168" on="0"/>
        <pt x="442" y="131" on="0"/>
      </contour>
    </TTGlyph>
    <TTGlyph name="Oacute" xMin="106" yMin="-20" xMax="1121" yMax="1845">
      <component glyphName="O" x="0" y="0" flags="0x204"/>
      <component glyphName="acute" x="137" y="364" flags="0x4"/>
    </TTGlyph>
    <TTGlyph name="Oacute.smcp" xMin="130" yMin="-16" xMax="1098" yMax="1532">
      <component glyphName="O.smcp" x="0" y="0" flags="0x204"/>
      <component glyphName="acute" x="153" y="51" flags="0x4"/>
    </TTGlyph>
    <TTGlyph name="Obreve" xMin="106" yMin="-20" xMax="1121" yMax="1887">
      <component glyphName="O" x="0" y="0" flags="0x204"/>
      <component glyphName="breve" x="19" y="429" flags="0x4"/>
    </TTGlyph>
    <TTGlyph name="Obreve.smcp" xMin="130" yMin="-16" xMax="1098" yMax="1574">
      <component glyphName="O.smcp" x="0" y="0" flags="0x204"/>
      <component glyphName="breve" x="35" y="116" flags="0x4"/>
    </TTGlyph>
    <TTGlyph name="Ocircumflex" xMin="106" yMin="-20" xMax="1121" yMax="1885">
      <component glyphName="O" x="0" y="0" flags="0x204"/>
      <component glyphName="circumflex" x="139" y="368" flags="0x4"/>
    </TTGlyph>
    <TTGlyph name="Ocircumflex.smcp" xMin="130" yMin="-16" xMax="1098" yMax="1572">
      <component glyphName="O.smcp" x="0" y="0" flags="0x204"/>
      <component glyphName="circumflex" x="155" y="55" flags="0x4"/>
    </TTGlyph>
    <TTGlyph name="Odieresis" xMin="106" yMin="-20" xMax="1121" yMax="1845">
      <component glyphName="O" x="0" y="0" flags="0x204"/>
      <component glyphName="dieresis" x="19" y="368" flags="0x4"/>
    </TTGlyph>
    <TTGlyph name="Odieresis.smcp" xMin="130" yMin="-16" xMax="1098" yMax="1532">
      <component glyphName="O.smcp" x="0" y="0" flags="0x204"/>
      <component glyphName="dieresis" x="35" y="55" flags="0x4"/>
    </TTGlyph>
    <TTGlyph name="Ograve" xMin="106" yMin="-20" xMax="1121" yMax="1848">
      <component glyphName="O" x="0" y="0" flags="0x204"/>
      <component glyphName="grave" x="-99" y="367" flags="0x4"/>
    </TTGlyph>
    <TTGlyph name="Ograve.smcp" xMin="130" yMin="-16" xMax="1098" yMax="1535">
      <component glyphName="O.smcp" x="0" y="0" flags="0x204"/>
      <component glyphName="grave" x="-83" y="54" flags="0x4"/>
    </TTGlyph>
    <TTGlyph name="Ohorn" xMin="99" yMin="-20" xMax="1222" yMax="1530">
      <contour>
        <pt x="1114" y="644" on="1"/>
        <pt x="1113" y="566" on="0"/>
        <pt x="1088" y="407" on="0"/>
        <pt x="1036" y="259" on="0"/>
        <pt x="955" y="131" on="0"/>
        <pt x="843" y="35" on="0"/>
        <pt x="698" y="-20" on="0"/>
        <pt x="608" y="-20" on="1"/>
        <pt x="518" y="-20" on="0"/>
        <pt x="373" y="35" on="0"/>
        <pt x="261" y="131" on="0"/>
        <pt x="179" y="260" on="0"/>
        <pt x="126" y="408" on="0"/>
        <pt x="100" y="566" on="0"/>
        <pt x="99" y="644" on="1"/>
        <pt x="99" y="810" on="1"/>
        <pt x="100" y="888" on="0"/>
        <pt x="125" y="1047" on="0"/>
        <pt x="178" y="1195" on="0"/>
        <pt x="259" y="1324" on="0"/>
        <pt x="371" y="1421" on="0"/>
        <pt x="516" y="1476" on="0"/>
        <pt x="606" y="1476" on="1"/>
        <pt x="719" y="1476" on="0"/>
        <pt x="888" y="1392" on="0"/>
        <pt x="949" y="1321" on="1"/>
        <pt x="1003" y="1339" on="0"/>
        <pt x="1053" y="1447" on="0"/>
        <pt x="1054" y="1530" on="1"/>
        <pt x="1221" y="1530" on="1"/>
        <pt x="1222" y="1403" on="0"/>
        <pt x="1122" y="1235" on="0"/>
        <pt x="1028" y="1200" on="1"/>
        <pt x="1072" y="1112" on="0"/>
        <pt x="1112" y="910" on="0"/>
        <pt x="1114" y="810" on="1"/>
      </contour>
      <contour>
        <pt x="931" y="812" on="1"/>
        <pt x="930" y="864" on="0"/>
        <pt x="918" y="977" on="0"/>
        <pt x="889" y="1088" on="0"/>
        <pt x="841" y="1189" on="0"/>
        <pt x="769" y="1266" on="0"/>
        <pt x="671" y="1311" on="0"/>
        <pt x="606" y="1311" on="1"/>
        <pt x="542" y="1311" on="0"/>
        <pt x="444" y="1265" on="0"/>
        <pt x="372" y="1188" on="0"/>
        <pt x="324" y="1087" on="0"/>
        <pt x="295" y="976" on="0"/>
        <pt x="282" y="863" on="0"/>
        <pt x="281" y="812" on="1"/>
        <pt x="281" y="644" on="1"/>
        <pt x="282" y="593" on="0"/>
        <pt x="295" y="479" on="0"/>
        <pt x="325" y="368" on="0"/>
        <pt x="373" y="266" on="0"/>
        <pt x="445" y="189" on="0"/>
        <pt x="543" y="143" on="0"/>
        <pt x="608" y="143" on="1"/>
        <pt x="673" y="143" on="0"/>
        <pt x="772" y="189" on="0"/>
        <pt x="843" y="266" on="0"/>
        <pt x="890" y="367" on="0"/>
        <pt x="919" y="478" on="0"/>
        <pt x="930" y="592" on="0"/>
        <pt x="931" y="644" on="1"/>
      </contour>
    </TTGlyph>
    <TTGlyph name="Ohungarumlaut" xMin="106" yMin="-20" xMax="1135" yMax="1887">
      <component glyphName="O" x="0" y="0" flags="0x204"/>
      <component glyphName="hungarumlaut" x="153" y="368" flags="0x4"/>
    </TTGlyph>
    <TTGlyph name="Ohungarumlaut.smcp" xMin="130" yMin="-16" xMax="1151" yMax="1574">
      <component glyphName="O.smcp" x="0" y="0" flags="0x204"/>
      <component glyphName="hungarumlaut" x="169" y="55" flags="0x4"/>
    </TTGlyph>
    <TTGlyph name="Omacron" xMin="106" yMin="-20" xMax="1121" yMax="1807">
      <component glyphName="O" x="0" y="0" flags="0x204"/>
      <component glyphName="macron" x="23" y="351" flags="0x4"/>
    </TTGlyph>
    <TTGlyph name="Omacron.smcp" xMin="130" yMin="-16" xMax="1098" yMax="1494">
      <component glyphName="O.smcp" x="0" y="0" flags="0x204"/>
      <component glyphName="macron" x="39" y="38" flags="0x4"/>
    </TTGlyph>
    <TTGlyph name="Omega" xMin="97" yMin="0" xMax="1132" yMax="1476">
      <contour>
        <pt x="680" y="193" on="1"/>
        <pt x="808" y="222" on="0"/>
        <pt x="944" y="510" on="0"/>
        <pt x="944" y="759" on="1"/>
        <pt x="944" y="840" on="1"/>
        <pt x="944" y="957" on="0"/>
        <pt x="899" y="1138" on="0"/>
        <pt x="814" y="1261" on="0"/>
        <pt x="690" y="1325" on="0"/>
        <pt x="612" y="1325" on="1"/>
        <pt x="535" y="1325" on="0"/>
        <pt x="413" y="1261" on="0"/>
        <pt x="328" y="1138" on="0"/>
        <pt x="282" y="957" on="0"/>
        <pt x="282" y="840" on="1"/>
        <pt x="282" y="759" on="1"/>
        <pt x="283" y="508" on="0"/>
        <pt x="424" y="222" on="0"/>
        <pt x="553" y="193" on="1"/>
        <pt x="553" y="0" on="1"/>
        <pt x="101" y="0" on="1"/>
        <pt x="101" y="151" on="1"/>
        <pt x="363" y="151" on="1"/>
        <pt x="301" y="198" on="0"/>
        <pt x="202" y="333" on="0"/>
        <pt x="133" y="494" on="0"/>
        <pt x="97" y="670" on="0"/>
        <pt x="97" y="759" on="1"/>
        <pt x="97" y="838" on="1"/>
        <pt x="97" y="977" on="0"/>
        <pt x="170" y="1212" on="0"/>
        <pt x="305" y="1381" on="0"/>
        <pt x="495" y="1476" on="0"/>
        <pt x="612" y="1476" on="1"/>
        <pt x="729" y="1476" on="0"/>
        <pt x="920" y="1381" on="0"/>
        <pt x="1055" y="1212" on="0"/>
        <pt x="1129" y="977" on="0"/>
        <pt x="1129" y="838" on="1"/>
        <pt x="1129" y="759" on="1"/>
        <pt x="1129" y="670" on="0"/>
        <pt x="1093" y="493" on="0"/>
        <pt x="1026" y="333" on="0"/>
        <pt x="928" y="198" on="0"/>
        <pt x="866" y="151" on="1"/>
        <pt x="1132" y="151" on="1"/>
        <pt x="1132" y="0" on="1"/>
        <pt x="680" y="0" on="1"/>
      </contour>
    </TTGlyph>
    <TTGlyph name="Omegatonos" xMin="5" yMin="0" xMax="1152" yMax="1658">
      <component glyphName="Omega" x="20" y="0" flags="0x4"/>
      <component glyphName="tonos" x="-548" y="0" flags="0x4"/>
    </TTGlyph>
    <TTGlyph name="Omicron" xMin="106" yMin="-20" xMax="1121" yMax="1476">
      <component glyphName="O" x="0" y="0" flags="0x204"/>
    </TTGlyph>
    <TTGlyph name="Omicrontonos" xMin="9" yMin="-20" xMax="1141" yMax="1658">
      <component glyphName="O" x="20" y="0" flags="0x4"/>
      <component glyphName="tonos" x="-544" y="0" flags="0x4"/>
    </TTGlyph>
    <TTGlyph name="Oslash" xMin="71" yMin="-93" xMax="1164" yMax="1516">
      <contour>
        <pt x="1113" y="644" on="1"/>
        <pt x="1112" y="566" on="0"/>
        <pt x="1087" y="407" on="0"/>
        <pt x="1035" y="259" on="0"/>
        <pt x="954" y="131" on="0"/>
        <pt x="842" y="35" on="0"/>
        <pt x="697" y="-20" on="0"/>
        <pt x="607" y="-20" on="1"/>
        <pt x="516" y="-20" on="0"/>
        <pt x="374" y="35" on="0"/>
        <pt x="317" y="83" on="1"/>
        <pt x="213" y="-93" on="1"/>
        <pt x="71" y="-93" on="1"/>
        <pt x="231" y="177" on="1"/>
        <pt x="197" y="226" on="0"/>
        <pt x="147" y="338" on="0"/>
        <pt x="114" y="458" on="0"/>
        <pt x="98" y="583" on="0"/>
        <pt x="98" y="644" on="1"/>
        <pt x="98" y="810" on="1"/>
        <pt x="99" y="888" on="0"/>
        <pt x="124" y="1047" on="0"/>
        <pt x="177" y="1195" on="0"/>
        <pt x="258" y="1324" on="0"/>
        <pt x="370" y="1421" on="0"/>
        <pt x="515" y="1476" on="0"/>
        <pt x="605" y="1476" on="1"/>
        <pt x="707" y="1476" on="0"/>
        <pt x="864" y="1407" on="0"/>
        <pt x="923" y="1348" on="1"/>
        <pt x="1022" y="1516" on="1"/>
        <pt x="1164" y="1516" on="1"/>
        <pt x="1003" y="1244" on="1"/>
        <pt x="1031" y="1197" on="0"/>
        <pt x="1072" y="1092" on="0"/>
        <pt x="1099" y="981" on="0"/>
        <pt x="1112" y="866" on="0"/>
        <pt x="1113" y="810" on="1"/>
      </contour>
      <contour>
        <pt x="280" y="644" on="1"/>
        <pt x="281" y="575" on="0"/>
        <pt x="304" y="420" on="0"/>
        <pt x="333" y="350" on="1"/>
        <pt x="831" y="1193" on="1"/>
        <pt x="794" y="1246" on="0"/>
        <pt x="683" y="1311" on="0"/>
        <pt x="605" y="1311" on="1"/>
        <pt x="541" y="1311" on="0"/>
        <pt x="443" y="1265" on="0"/>
        <pt x="371" y="1188" on="0"/>
        <pt x="323" y="1087" on="0"/>
        <pt x="294" y="976" on="0"/>
        <pt x="281" y="863" on="0"/>
        <pt x="280" y="812" on="1"/>
      </contour>
      <contour>
        <pt x="930" y="812" on="1"/>
        <pt x="929" y="870" on="0"/>
        <pt x="914" y="999" on="0"/>
        <pt x="895" y="1061" on="1"/>
        <pt x="404" y="231" on="1"/>
        <pt x="441" y="190" on="0"/>
        <pt x="541" y="143" on="0"/>
        <pt x="607" y="143" on="1"/>
        <pt x="672" y="143" on="0"/>
        <pt x="771" y="189" on="0"/>
        <pt x="842" y="266" on="0"/>
        <pt x="889" y="367" on="0"/>
        <pt x="918" y="478" on="0"/>
        <pt x="929" y="592" on="0"/>
        <pt x="930" y="644" on="1"/>
      </contour>
    </TTGlyph>
    <TTGlyph name="Oslashacute" xMin="71" yMin="-93" xMax="1164" yMax="1886">
      <component glyphName="Oslash" x="0" y="0" flags="0x204"/>
      <component glyphName="acute" x="123" y="405" flags="0x4"/>
    </TTGlyph>
    <TTGlyph name="Otilde" xMin="106" yMin="-20" xMax="1121" yMax="1895">
      <component glyphName="O" x="0" y="0" flags="0x204"/>
      <component glyphName="tilde" x="151" y="374" flags="0x4"/>
    </TTGlyph>
    <TTGlyph name="Otilde.smcp" xMin="130" yMin="-16" xMax="1098" yMax="1582">
      <component glyphName="O.smcp" x="0" y="0" flags="0x204"/>
      <component glyphName="tilde" x="167" y="61" flags="0x4"/>
    </TTGlyph>
    <TTGlyph name="P" xMin="191" yMin="0" xMax="1145" yMax="1456">
      <contour>
        <pt x="376" y="584" on="1"/>
        <pt x="376" y="0" on="1"/>
        <pt x="191" y="0" on="1"/>
        <pt x="191" y="1456" on="1"/>
        <pt x="663" y="1456" on="1"/>
        <pt x="761" y="1454" on="0"/>
        <pt x="936" y="1396" on="0"/>
        <pt x="1068" y="1286" on="0"/>
        <pt x="1145" y="1124" on="0"/>
        <pt x="1145" y="1019" on="1"/>
        <pt x="1145" y="914" on="0"/>
        <pt x="1068" y="753" on="0"/>
        <pt x="936" y="643" on="0"/>
        <pt x="761" y="585" on="0"/>
        <pt x="663" y="584" on="1"/>
      </contour>
      <contour>
        <pt x="376" y="736" on="1"/>
        <pt x="663" y="736" on="1"/>
        <pt x="727" y="737" on="0"/>
        <pt x="835" y="776" on="0"/>
        <pt x="915" y="848" on="0"/>
        <pt x="960" y="951" on="0"/>
        <pt x="960" y="1017" on="1"/>
        <pt x="960" y="1083" on="0"/>
        <pt x="915" y="1189" on="0"/>
        <pt x="836" y="1263" on="0"/>
        <pt x="727" y="1303" on="0"/>
        <pt x="663" y="1304" on="1"/>
        <pt x="376" y="1304" on="1"/>
      </contour>
    </TTGlyph>
    <TTGlyph name="P.smcp" xMin="204" yMin="0" xMax="1099" yMax="1165">
      <contour>
        <pt x="388" y="438" on="1"/>
        <pt x="388" y="0" on="1"/>
        <pt x="204" y="0" on="1"/>
        <pt x="204" y="1165" on="1"/>
        <pt x="662" y="1165" on="1"/>
        <pt x="746" y="1164" on="0"/>
        <pt x="903" y="1118" on="0"/>
        <pt x="1025" y="1027" on="0"/>
        <pt x="1099" y="890" on="0"/>
        <pt x="1099" y="798" on="1"/>
        <pt x="1099" y="703" on="0"/>
        <pt x="1025" y="568" on="0"/>
        <pt x="904" y="481" on="0"/>
        <pt x="746" y="439" on="0"/>
        <pt x="662" y="438" on="1"/>
      </contour>
      <contour>
        <pt x="388" y="590" on="1"/>
        <pt x="662" y="590" on="1"/>
        <pt x="711" y="591" on="0"/>
        <pt x="803" y="614" on="0"/>
        <pt x="872" y="664" on="0"/>
        <pt x="914" y="741" on="0"/>
        <pt x="914" y="796" on="1"/>
        <pt x="914" y="850" on="0"/>
        <pt x="872" y="930" on="0"/>
        <pt x="803" y="983" on="0"/>
        <pt x="711" y="1011" on="0"/>
        <pt x="662" y="1012" on="1"/>
        <pt x="388" y="1012" on="1"/>
      </contour>
    </TTGlyph>
    <TTGlyph name="Phi" xMin="69" yMin="0" xMax="1159" yMax="1456">
      <contour>
        <pt x="707" y="1250" on="1"/>
        <pt x="804" y="1242" on="0"/>
        <pt x="969" y="1160" on="0"/>
        <pt x="1090" y="1022" on="0"/>
        <pt x="1159" y="836" on="0"/>
        <pt x="1159" y="725" on="1"/>
        <pt x="1159" y="613" on="0"/>
        <pt x="1090" y="426" on="0"/>
        <pt x="969" y="287" on="0"/>
        <pt x="804" y="203" on="0"/>
        <pt x="707" y="196" on="1"/>
        <pt x="707" y="0" on="1"/>
        <pt x="522" y="0" on="1"/>
        <pt x="522" y="196" on="1"/>
        <pt x="424" y="203" on="0"/>
        <pt x="259" y="285" on="0"/>
        <pt x="137" y="423" on="0"/>
        <pt x="69" y="611" on="0"/>
        <pt x="69" y="723" on="1"/>
        <pt x="69" y="834" on="0"/>
        <pt x="137" y="1022" on="0"/>
        <pt x="259" y="1160" on="0"/>
        <pt x="424" y="1243" on="0"/>
        <pt x="522" y="1250" on="1"/>
        <pt x="522" y="1456" on="1"/>
        <pt x="707" y="1456" on="1"/>
      </contour>
      <contour>
        <pt x="252" y="723" on="1"/>
        <pt x="252" y="643" on="0"/>
        <pt x="288" y="510" on="0"/>
        <pt x="357" y="413" on="0"/>
        <pt x="457" y="354" on="0"/>
        <pt x="522" y="348" on="1"/>
        <pt x="522" y="1098" on="1"/>
        <pt x="457" y="1091" on="0"/>
        <pt x="357" y="1032" on="0"/>
        <pt x="288" y="934" on="0"/>
        <pt x="252" y="802" on="0"/>
      </contour>
      <contour>
        <pt x="975" y="725" on="1"/>
        <pt x="975" y="804" on="0"/>
        <pt x="939" y="935" on="0"/>
        <pt x="870" y="1032" on="0"/>
        <pt x="771" y="1091" on="0"/>
        <pt x="707" y="1098" on="1"/>
        <pt x="707" y="348" on="1"/>
        <pt x="771" y="355" on="0"/>
        <pt x="870" y="414" on="0"/>
        <pt x="939" y="512" on="0"/>
        <pt x="975" y="645" on="0"/>
      </contour>
    </TTGlyph>
    <TTGlyph name="Pi" xMin="162" yMin="0" xMax="1066" yMax="1456">
      <contour>
        <pt x="1066" y="0" on="1"/>
        <pt x="881" y="0" on="1"/>
        <pt x="881" y="1304" on="1"/>
        <pt x="347" y="1304" on="1"/>
        <pt x="347" y="0" on="1"/>
        <pt x="162" y="0" on="1"/>
        <pt x="162" y="1456" on="1"/>
        <pt x="1066" y="1456" on="1"/>
      </contour>
    </TTGlyph>
    <TTGlyph name="Psi" xMin="101" yMin="0" xMax="1138" yMax="1456">
      <contour>
        <pt x="711" y="479" on="1"/>
        <pt x="766" y="491" on="0"/>
        <pt x="855" y="547" on="0"/>
        <pt x="918" y="637" on="0"/>
        <pt x="953" y="762" on="0"/>
        <pt x="953" y="842" on="1"/>
        <pt x="953" y="1456" on="1"/>
        <pt x="1138" y="1456" on="1"/>
        <pt x="1138" y="842" on="1"/>
        <pt x="1138" y="724" on="0"/>
        <pt x="1075" y="541" on="0"/>
        <pt x="963" y="411" on="0"/>
        <pt x="805" y="335" on="0"/>
        <pt x="711" y="324" on="1"/>
        <pt x="711" y="0" on="1"/>
        <pt x="526" y="0" on="1"/>
        <pt x="526" y="324" on="1"/>
        <pt x="431" y="335" on="0"/>
        <pt x="275" y="411" on="0"/>
        <pt x="163" y="541" on="0"/>
        <pt x="101" y="724" on="0"/>
        <pt x="101" y="842" on="1"/>
        <pt x="101" y="1456" on="1"/>
        <pt x="286" y="1456" on="1"/>
        <pt x="286" y="842" on="1"/>
        <pt x="286" y="762" on="0"/>
        <pt x="320" y="638" on="0"/>
        <pt x="383" y="548" on="0"/>
        <pt x="472" y="492" on="0"/>
        <pt x="526" y="480" on="1"/>
        <pt x="526" y="1456" on="1"/>
        <pt x="711" y="1456" on="1"/>
      </contour>
    </TTGlyph>
    <TTGlyph name="Q" xMin="94" yMin="-246" xMax="1164" yMax="1476">
      <contour>
        <pt x="1134" y="663" on="1"/>
        <pt x="1133" y="582" on="0"/>
        <pt x="1107" y="418" on="0"/>
        <pt x="1054" y="266" on="0"/>
        <pt x="971" y="133" on="0"/>
        <pt x="913" y="84" on="1"/>
        <pt x="1164" y="-125" on="1"/>
        <pt x="1037" y="-246" on="1"/>
        <pt x="749" y="-2" on="1"/>
        <pt x="687" y="-20" on="0"/>
        <pt x="615" y="-20" on="1"/>
        <pt x="522" y="-20" on="0"/>
        <pt x="374" y="37" on="0"/>
        <pt x="259" y="135" on="0"/>
        <pt x="175" y="268" on="0"/>
        <pt x="121" y="420" on="0"/>
        <pt x="95" y="583" on="0"/>
        <pt x="94" y="663" on="1"/>
        <pt x="94" y="791" on="1"/>
        <pt x="95" y="871" on="0"/>
        <pt x="121" y="1035" on="0"/>
        <pt x="175" y="1187" on="0"/>
        <pt x="257" y="1320" on="0"/>
        <pt x="372" y="1419" on="0"/>
        <pt x="521" y="1476" on="0"/>
        <pt x="614" y="1476" on="1"/>
        <pt x="707" y="1476" on="0"/>
        <pt x="856" y="1419" on="0"/>
        <pt x="971" y="1321" on="0"/>
        <pt x="1054" y="1188" on="0"/>
        <pt x="1107" y="1036" on="0"/>
        <pt x="1133" y="871" on="0"/>
        <pt x="1134" y="791" on="1"/>
      </contour>
      <contour>
        <pt x="950" y="793" on="1"/>
        <pt x="949" y="848" on="0"/>
        <pt x="938" y="967" on="0"/>
        <pt x="909" y="1082" on="0"/>
        <pt x="860" y="1186" on="0"/>
        <pt x="786" y="1265" on="0"/>
        <pt x="683" y="1311" on="0"/>
        <pt x="614" y="1311" on="1"/>
        <pt x="546" y="1311" on="0"/>
        <pt x="444" y="1264" on="0"/>
        <pt x="370" y="1185" on="0"/>
        <pt x="321" y="1081" on="0"/>
        <pt x="291" y="966" on="0"/>
        <pt x="278" y="847" on="0"/>
        <pt x="278" y="793" on="1"/>
        <pt x="278" y="663" on="1"/>
        <pt x="278" y="609" on="0"/>
        <pt x="291" y="490" on="0"/>
        <pt x="321" y="374" on="0"/>
        <pt x="370" y="270" on="0"/>
        <pt x="444" y="190" on="0"/>
        <pt x="547" y="143" on="0"/>
        <pt x="615" y="143" on="1"/>
        <pt x="684" y="143" on="0"/>
        <pt x="787" y="190" on="0"/>
        <pt x="861" y="269" on="0"/>
        <pt x="909" y="373" on="0"/>
        <pt x="938" y="489" on="0"/>
        <pt x="949" y="608" on="0"/>
        <pt x="950" y="663" on="1"/>
      </contour>
    </TTGlyph>
    <TTGlyph name="Q.smcp" xMin="94" yMin="-202" xMax="1127" yMax="1181">
      <contour>
        <pt x="1125" y="548" on="1"/>
        <pt x="1124" y="474" on="0"/>
        <pt x="1095" y="335" on="0"/>
        <pt x="1039" y="212" on="0"/>
        <pt x="957" y="110" on="0"/>
        <pt x="904" y="72" on="1"/>
        <pt x="1127" y="-91" on="1"/>
        <pt x="1002" y="-202" on="1"/>
        <pt x="736" y="-2" on="1"/>
        <pt x="675" y="-16" on="0"/>
        <pt x="611" y="-16" on="1"/>
        <pt x="489" y="-16" on="0"/>
        <pt x="298" y="74" on="0"/>
        <pt x="166" y="228" on="0"/>
        <pt x="95" y="433" on="0"/>
        <pt x="94" y="548" on="1"/>
        <pt x="94" y="615" on="1"/>
        <pt x="95" y="730" on="0"/>
        <pt x="165" y="935" on="0"/>
        <pt x="297" y="1090" on="0"/>
        <pt x="487" y="1181" on="0"/>
        <pt x="609" y="1181" on="1"/>
        <pt x="731" y="1181" on="0"/>
        <pt x="922" y="1091" on="0"/>
        <pt x="1054" y="937" on="0"/>
        <pt x="1124" y="731" on="0"/>
        <pt x="1125" y="615" on="1"/>
      </contour>
      <contour>
        <pt x="941" y="617" on="1"/>
        <pt x="940" y="695" on="0"/>
        <pt x="902" y="842" on="0"/>
        <pt x="822" y="956" on="0"/>
        <pt x="697" y="1025" on="0"/>
        <pt x="609" y="1025" on="1"/>
        <pt x="522" y="1025" on="0"/>
        <pt x="398" y="955" on="0"/>
        <pt x="318" y="840" on="0"/>
        <pt x="279" y="693" on="0"/>
        <pt x="278" y="617" on="1"/>
        <pt x="278" y="548" on="1"/>
        <pt x="279" y="471" on="0"/>
        <pt x="318" y="324" on="0"/>
        <pt x="399" y="208" on="0"/>
        <pt x="524" y="138" on="0"/>
        <pt x="611" y="138" on="1"/>
        <pt x="699" y="138" on="0"/>
        <pt x="823" y="208" on="0"/>
        <pt x="903" y="322" on="0"/>
        <pt x="940" y="470" on="0"/>
        <pt x="941" y="548" on="1"/>
      </contour>
    </TTGlyph>
    <TTGlyph name="R" xMin="181" yMin="0" xMax="1138" yMax="1456">
      <contour>
        <pt x="656" y="594" on="1"/>
        <pt x="365" y="594" on="1"/>
        <pt x="365" y="0" on="1"/>
        <pt x="181" y="0" on="1"/>
        <pt x="181" y="1456" on="1"/>
        <pt x="608" y="1456" on="1"/>
        <pt x="710" y="1454" on="0"/>
        <pt x="890" y="1400" on="0"/>
        <pt x="1025" y="1292" on="0"/>
        <pt x="1102" y="1129" on="0"/>
        <pt x="1102" y="1019" on="1"/>
        <pt x="1102" y="948" on="0"/>
        <pt x="1061" y="830" on="0"/>
        <pt x="989" y="734" on="0"/>
        <pt x="889" y="660" on="0"/>
        <pt x="829" y="634" on="1"/>
        <pt x="1138" y="12" on="1"/>
        <pt x="1137" y="0" on="1"/>
        <pt x="942" y="0" on="1"/>
      </contour>
      <contour>
        <pt x="365" y="746" on="1"/>
        <pt x="613" y="746" on="1"/>
        <pt x="675" y="747" on="0"/>
        <pt x="785" y="784" on="0"/>
        <pt x="868" y="854" on="0"/>
        <pt x="916" y="955" on="0"/>
        <pt x="916" y="1021" on="1"/>
        <pt x="916" y="1091" on="0"/>
        <pt x="870" y="1196" on="0"/>
        <pt x="788" y="1267" on="0"/>
        <pt x="675" y="1303" on="0"/>
        <pt x="608" y="1304" on="1"/>
        <pt x="365" y="1304" on="1"/>
      </contour>
    </TTGlyph>
    <TTGlyph name="R.alt" xMin="163" yMin="0" xMax="1120" yMax="1455">
      <contour>
        <pt x="348" y="633" on="1"/>
        <pt x="348" y="0" on="1"/>
        <pt x="163" y="0" on="1"/>
        <pt x="163" y="1455" on="1"/>
        <pt x="572" y="1455" on="1"/>
        <pt x="689" y="1455" on="0"/>
        <pt x="870" y="1402" on="0"/>
        <pt x="994" y="1297" on="0"/>
        <pt x="1058" y="1143" on="0"/>
        <pt x="1058" y="1041" on="1"/>
        <pt x="1057" y="928" on="0"/>
        <pt x="940" y="763" on="0"/>
        <pt x="828" y="714" on="1"/>
        <pt x="890" y="694" on="0"/>
        <pt x="976" y="627" on="0"/>
        <pt x="1029" y="539" on="0"/>
        <pt x="1053" y="432" on="0"/>
        <pt x="1053" y="371" on="1"/>
        <pt x="1053" y="234" on="1"/>
        <pt x="1053" y="172" on="0"/>
        <pt x="1082" y="62" on="0"/>
        <pt x="1120" y="24" on="1"/>
        <pt x="1120" y="0" on="1"/>
        <pt x="930" y="0" on="1"/>
        <pt x="907" y="21" on="0"/>
        <pt x="882" y="86" on="0"/>
        <pt x="870" y="155" on="0"/>
        <pt x="868" y="217" on="0"/>
        <pt x="868" y="236" on="1"/>
        <pt x="868" y="369" on="1"/>
        <pt x="868" y="429" on="0"/>
        <pt x="831" y="526" on="0"/>
        <pt x="762" y="595" on="0"/>
        <pt x="666" y="633" on="0"/>
        <pt x="606" y="633" on="1"/>
      </contour>
      <contour>
        <pt x="348" y="784" on="1"/>
        <pt x="553" y="784" on="1"/>
        <pt x="722" y="785" on="0"/>
        <pt x="872" y="915" on="0"/>
        <pt x="872" y="1043" on="1"/>
        <pt x="872" y="1103" on="0"/>
        <pt x="837" y="1200" on="0"/>
        <pt x="764" y="1267" on="0"/>
        <pt x="650" y="1304" on="0"/>
        <pt x="572" y="1304" on="1"/>
        <pt x="348" y="1304" on="1"/>
      </contour>
    </TTGlyph>
    <TTGlyph name="R.smcp" xMin="144" yMin="0" xMax="1068" yMax="1165">
      <contour>
        <pt x="609" y="449" on="1"/>
        <pt x="329" y="449" on="1"/>
        <pt x="329" y="0" on="1"/>
        <pt x="144" y="0" on="1"/>
        <pt x="144" y="1165" on="1"/>
        <pt x="570" y="1165" on="1"/>
        <pt x="654" y="1164" on="0"/>
        <pt x="815" y="1124" on="0"/>
        <pt x="940" y="1038" on="0"/>
        <pt x="1015" y="904" on="0"/>
        <pt x="1015" y="809" on="1"/>
        <pt x="1015" y="746" on="0"/>
        <pt x="979" y="650" on="0"/>
        <pt x="915" y="575" on="0"/>
        <pt x="828" y="518" on="0"/>
        <pt x="778" y="496" on="1"/>
        <pt x="1068" y="10" on="1"/>
        <pt x="1068" y="0" on="1"/>
        <pt x="869" y="0" on="1"/>
      </contour>
      <contour>
        <pt x="329" y="600" on="1"/>
        <pt x="575" y="600" on="1"/>
        <pt x="622" y="601" on="0"/>
        <pt x="713" y="625" on="0"/>
        <pt x="784" y="674" on="0"/>
        <pt x="829" y="749" on="0"/>
        <pt x="829" y="802" on="1"/>
        <pt x="829" y="858" on="0"/>
        <pt x="786" y="937" on="0"/>
        <pt x="714" y="987" on="0"/>
        <pt x="620" y="1011" on="0"/>
        <pt x="570" y="1012" on="1"/>
        <pt x="329" y="1012" on="1"/>
      </contour>
    </TTGlyph>
    <TTGlyph name="Racute" xMin="181" yMin="0" xMax="1138" yMax="1812">
      <component glyphName="R" x="0" y="0" flags="0x204"/>
      <component glyphName="acute" x="120" y="331" flags="0x4"/>
    </TTGlyph>
    <TTGlyph name="Racute.smcp" xMin="144" yMin="0" xMax="1068" yMax="1532">
      <component glyphName="R.smcp" x="0" y="0" flags="0x204"/>
      <component glyphName="acute" x="30" y="51" flags="0x4"/>
    </TTGlyph>
    <TTGlyph name="Rcaron" xMin="181" yMin="0" xMax="1138" yMax="1853">
      <component glyphName="R" x="0" y="0" flags="0x204"/>
      <component glyphName="caron" x="3" y="336" flags="0x4"/>
    </TTGlyph>
    <TTGlyph name="Rcaron.smcp" xMin="144" yMin="0" xMax="1068" yMax="1573">
      <component glyphName="R.smcp" x="0" y="0" flags="0x204"/>
      <component glyphName="caron" x="-86" y="56" flags="0x4"/>
    </TTGlyph>
    <TTGlyph name="Rcommaaccent" xMin="181" yMin="-456" xMax="1138" yMax="1456">
      <component glyphName="R" x="0" y="0" flags="0x204"/>
      <component glyphName="commaaccent" x="156" y="-286" flags="0x4"/>
    </TTGlyph>
    <TTGlyph name="Rcommaaccent.smcp" xMin="144" yMin="-458" xMax="1068" yMax="1165">
      <component glyphName="R.smcp" x="0" y="0" flags="0x204"/>
      <component glyphName="commaaccent" x="69" y="-288" flags="0x4"/>
    </TTGlyph>
    <TTGlyph name="Rho" xMin="191" yMin="0" xMax="1145" yMax="1456">
      <component glyphName="P" x="0" y="0" flags="0x204"/>
    </TTGlyph>
    <TTGlyph name="S" xMin="118" yMin="-20" xMax="1129" yMax="1476">
      <contour>
        <pt x="936" y="368" on="1"/>
        <pt x="936" y="435" on="0"/>
        <pt x="875" y="527" on="0"/>
        <pt x="779" y="590" on="0"/>
        <pt x="664" y="632" on="0"/>
        <pt x="611" y="649" on="1"/>
        <pt x="534" y="674" on="0"/>
        <pt x="375" y="744" on="0"/>
        <pt x="244" y="846" on="0"/>
        <pt x="161" y="985" on="0"/>
        <pt x="161" y="1079" on="1"/>
        <pt x="161" y="1173" on="0"/>
        <pt x="244" y="1321" on="0"/>
        <pt x="378" y="1423" on="0"/>
        <pt x="548" y="1476" on="0"/>
        <pt x="634" y="1476" on="1"/>
        <pt x="729" y="1476" on="0"/>
        <pt x="905" y="1413" on="0"/>
        <pt x="1041" y="1299" on="0"/>
        <pt x="1123" y="1137" on="0"/>
        <pt x="1125" y="1037" on="1"/>
        <pt x="935" y="1037" on="1"/>
        <pt x="927" y="1100" on="0"/>
        <pt x="881" y="1203" on="0"/>
        <pt x="805" y="1277" on="0"/>
        <pt x="700" y="1318" on="0"/>
        <pt x="634" y="1318" on="1"/>
        <pt x="581" y="1318" on="0"/>
        <pt x="480" y="1288" on="0"/>
        <pt x="401" y="1228" on="0"/>
        <pt x="354" y="1140" on="0"/>
        <pt x="354" y="1082" on="1"/>
        <pt x="355" y="1019" on="0"/>
        <pt x="417" y="932" on="0"/>
        <pt x="512" y="872" on="0"/>
        <pt x="623" y="832" on="0"/>
        <pt x="672" y="817" on="1"/>
        <pt x="726" y="800" on="0"/>
        <pt x="836" y="757" on="0"/>
        <pt x="938" y="701" on="0"/>
        <pt x="1026" y="631" on="0"/>
        <pt x="1092" y="542" on="0"/>
        <pt x="1129" y="435" on="0"/>
        <pt x="1129" y="370" on="1"/>
        <pt x="1129" y="272" on="0"/>
        <pt x="1042" y="126" on="0"/>
        <pt x="904" y="29" on="0"/>
        <pt x="730" y="-20" on="0"/>
        <pt x="643" y="-20" on="1"/>
        <pt x="546" y="-20" on="0"/>
        <pt x="360" y="40" on="0"/>
        <pt x="213" y="153" on="0"/>
        <pt x="121" y="316" on="0"/>
        <pt x="118" y="420" on="1"/>
        <pt x="307" y="420" on="1"/>
        <pt x="316" y="352" on="0"/>
        <pt x="372" y="247" on="0"/>
        <pt x="460" y="174" on="0"/>
        <pt x="575" y="137" on="0"/>
        <pt x="643" y="137" on="1"/>
        <pt x="697" y="137" on="0"/>
        <pt x="802" y="164" on="0"/>
        <pt x="884" y="221" on="0"/>
        <pt x="936" y="308" on="0"/>
      </contour>
    </TTGlyph>
    <TTGlyph name="S.smcp" xMin="138" yMin="-16" xMax="1081" yMax="1181">
      <contour>
        <pt x="895" y="298" on="1"/>
        <pt x="896" y="334" on="0"/>
        <pt x="870" y="388" on="0"/>
        <pt x="825" y="430" on="0"/>
        <pt x="767" y="459" on="0"/>
        <pt x="704" y="481" on="0"/>
        <pt x="641" y="497" on="0"/>
        <pt x="614" y="504" on="1"/>
        <pt x="545" y="521" on="0"/>
        <pt x="392" y="572" on="0"/>
        <pt x="263" y="654" on="0"/>
        <pt x="180" y="774" on="0"/>
        <pt x="180" y="860" on="1"/>
        <pt x="180" y="917" on="0"/>
        <pt x="219" y="1010" on="0"/>
        <pt x="285" y="1081" on="0"/>
        <pt x="373" y="1132" on="0"/>
        <pt x="472" y="1165" on="0"/>
        <pt x="575" y="1181" on="0"/>
        <pt x="623" y="1181" on="1"/>
        <pt x="707" y="1181" on="0"/>
        <pt x="866" y="1138" on="0"/>
        <pt x="992" y="1049" on="0"/>
        <pt x="1073" y="915" on="0"/>
        <pt x="1079" y="825" on="1"/>
        <pt x="892" y="825" on="1"/>
        <pt x="890" y="880" on="0"/>
        <pt x="843" y="958" on="0"/>
        <pt x="767" y="1008" on="0"/>
        <pt x="671" y="1030" on="0"/>
        <pt x="621" y="1030" on="1"/>
        <pt x="581" y="1030" on="0"/>
        <pt x="491" y="1014" on="0"/>
        <pt x="415" y="975" on="0"/>
        <pt x="365" y="910" on="0"/>
        <pt x="365" y="861" on="1"/>
        <pt x="365" y="827" on="0"/>
        <pt x="396" y="775" on="0"/>
        <pt x="448" y="735" on="0"/>
        <pt x="513" y="706" on="0"/>
        <pt x="580" y="685" on="0"/>
        <pt x="644" y="670" on="0"/>
        <pt x="669" y="664" on="1"/>
        <pt x="739" y="646" on="0"/>
        <pt x="885" y="591" on="0"/>
        <pt x="1005" y="506" on="0"/>
        <pt x="1081" y="385" on="0"/>
        <pt x="1081" y="300" on="1"/>
        <pt x="1081" y="241" on="0"/>
        <pt x="1041" y="148" on="0"/>
        <pt x="973" y="78" on="0"/>
        <pt x="883" y="29" on="0"/>
        <pt x="783" y="-2" on="0"/>
        <pt x="678" y="-16" on="0"/>
        <pt x="629" y="-16" on="1"/>
        <pt x="543" y="-16" on="0"/>
        <pt x="372" y="26" on="0"/>
        <pt x="234" y="115" on="0"/>
        <pt x="144" y="253" on="0"/>
        <pt x="138" y="349" on="1"/>
        <pt x="326" y="349" on="1"/>
        <pt x="328" y="288" on="0"/>
        <pt x="383" y="205" on="0"/>
        <pt x="469" y="154" on="0"/>
        <pt x="575" y="133" on="0"/>
        <pt x="629" y="133" on="1"/>
        <pt x="669" y="133" on="0"/>
        <pt x="762" y="147" on="0"/>
        <pt x="841" y="184" on="0"/>
        <pt x="894" y="248" on="0"/>
      </contour>
    </TTGlyph>
    <TTGlyph name="Sacute" xMin="118" yMin="-20" xMax="1129" yMax="1845">
      <component glyphName="S" x="0" y="0" flags="0x204"/>
      <component glyphName="acute" x="130" y="364" flags="0x4"/>
    </TTGlyph>
    <TTGlyph name="Sacute.smcp" xMin="138" yMin="-16" xMax="1081" yMax="1532">
      <component glyphName="S.smcp" x="0" y="0" flags="0x204"/>
      <component glyphName="acute" x="113" y="51" flags="0x4"/>
    </TTGlyph>
    <TTGlyph name="Scaron" xMin="118" yMin="-20" xMax="1129" yMax="1886">
      <component glyphName="S" x="0" y="0" flags="0x204"/>
      <component glyphName="caron" x="13" y="369" flags="0x4"/>
    </TTGlyph>
    <TTGlyph name="Scaron.smcp" xMin="138" yMin="-16" xMax="1081" yMax="1573">
      <component glyphName="S.smcp" x="0" y="0" flags="0x204"/>
      <component glyphName="caron" x="-3" y="56" flags="0x4"/>
    </TTGlyph>
    <TTGlyph name="Scedilla" xMin="118" yMin="-444" xMax="1129" yMax="1476">
      <component glyphName="S" x="0" y="0" flags="0x204"/>
      <component glyphName="cedilla" x="81" y="-9" flags="0x4"/>
    </TTGlyph>
    <TTGlyph name="Scedilla.smcp" xMin="138" yMin="-435" xMax="1081" yMax="1181">
      <component glyphName="S.smcp" x="0" y="0" flags="0x204"/>
      <component glyphName="cedilla" x="61" y="0" flags="0x4"/>
    </TTGlyph>
    <TTGlyph name="Scircumflex" xMin="118" yMin="-20" xMax="1129" yMax="1885">
      <component glyphName="S" x="0" y="0" flags="0x204"/>
      <component glyphName="circumflex" x="132" y="368" flags="0x4"/>
    </TTGlyph>
    <TTGlyph name="Scircumflex.smcp" xMin="138" yMin="-16" xMax="1081" yMax="1572">
      <component glyphName="S.smcp" x="0" y="0" flags="0x204"/>
      <component glyphName="circumflex" x="115" y="55" flags="0x4"/>
    </TTGlyph>
    <TTGlyph name="Sigma" xMin="112" yMin="0" xMax="1135" yMax="1456">
      <contour>
        <pt x="793" y="717" on="1"/>
        <pt x="341" y="152" on="1"/>
        <pt x="1135" y="152" on="1"/>
        <pt x="1135" y="0" on="1"/>
        <pt x="112" y="0" on="1"/>
        <pt x="112" y="144" on="1"/>
        <pt x="597" y="729" on="1"/>
        <pt x="112" y="1312" on="1"/>
        <pt x="112" y="1456" on="1"/>
        <pt x="1085" y="1456" on="1"/>
        <pt x="1085" y="1304" on="1"/>
        <pt x="342" y="1304" on="1"/>
        <pt x="793" y="742" on="1"/>
      </contour>
    </TTGlyph>
    <TTGlyph name="T" xMin="76" yMin="0" xMax="1156" yMax="1456">
      <contour>
        <pt x="1156" y="1298" on="1"/>
        <pt x="706" y="1298" on="1"/>
        <pt x="706" y="0" on="1"/>
        <pt x="526" y="0" on="1"/>
        <pt x="526" y="1298" on="1"/>
        <pt x="76" y="1298" on="1"/>
        <pt x="76" y="1456" on="1"/>
        <pt x="1156" y="1456" on="1"/>
      </contour>
    </TTGlyph>
    <TTGlyph name="T.smcp" xMin="93" yMin="0" xMax="1129" yMax="1165">
      <contour>
        <pt x="1129" y="1012" on="1"/>
        <pt x="704" y="1012" on="1"/>
        <pt x="704" y="0" on="1"/>
        <pt x="516" y="0" on="1"/>
        <pt x="516" y="1012" on="1"/>
        <pt x="93" y="1012" on="1"/>
        <pt x="93" y="1165" on="1"/>
        <pt x="1129" y="1165" on="1"/>
      </contour>
    </TTGlyph>
    <TTGlyph name="Tau" xMin="76" yMin="0" xMax="1156" yMax="1456">
      <component glyphName="T" x="0" y="0" flags="0x204"/>
    </TTGlyph>
    <TTGlyph name="Tbar" xMin="76" yMin="0" xMax="1156" yMax="1456">
      <contour>
        <pt x="941" y="823" on="1"/>
        <pt x="706" y="823" on="1"/>
        <pt x="706" y="0" on="1"/>
        <pt x="526" y="0" on="1"/>
        <pt x="526" y="823" on="1"/>
        <pt x="304" y="823" on="1"/>
        <pt x="304" y="974" on="1"/>
        <pt x="526" y="974" on="1"/>
        <pt x="526" y="1298" on="1"/>
        <pt x="76" y="1298" on="1"/>
        <pt x="76" y="1456" on="1"/>
        <pt x="1156" y="1456" on="1"/>
        <pt x="1156" y="1298" on="1"/>
        <pt x="706" y="1298" on="1"/>
        <pt x="706" y="974" on="1"/>
        <pt x="941" y="974" on="1"/>
      </contour>
    </TTGlyph>
    <TTGlyph name="Tbar.smcp" xMin="93" yMin="0" xMax="1129" yMax="1165">
      <component glyphName="T.smcp" x="0" y="0" flags="0x204"/>
      <component glyphName="crossbar" x="-13" y="-32" flags="0x4"/>
    </TTGlyph>
    <TTGlyph name="Tcaron" xMin="76" yMin="0" xMax="1156" yMax="1853">
      <component glyphName="T" x="0" y="0" flags="0x204"/>
      <component glyphName="caron" x="13" y="336" flags="0x4"/>
    </TTGlyph>
    <TTGlyph name="Tcaron.smcp" xMin="93" yMin="0" xMax="1129" yMax="1573">
      <component glyphName="T.smcp" x="0" y="0" flags="0x204"/>
      <component glyphName="caron" x="-7" y="56" flags="0x4"/>
    </TTGlyph>
    <TTGlyph name="Tcommaaccent.smcp" xMin="93" yMin="-464" xMax="1129" yMax="1165">
      <component glyphName="T.smcp" x="0" y="0" flags="0x204"/>
      <component glyphName="commaaccent" x="148" y="-294" flags="0x4"/>
    </TTGlyph>
    <TTGlyph name="Theta" xMin="106" yMin="-20" xMax="1121" yMax="1476">
      <contour>
        <pt x="845" y="660" on="1"/>
        <pt x="381" y="660" on="1"/>
        <pt x="381" y="811" on="1"/>
        <pt x="845" y="811" on="1"/>
      </contour>
      <contour>
        <pt x="1121" y="644" on="1"/>
        <pt x="1120" y="566" on="0"/>
        <pt x="1095" y="407" on="0"/>
        <pt x="1043" y="259" on="0"/>
        <pt x="962" y="131" on="0"/>
        <pt x="850" y="35" on="0"/>
        <pt x="705" y="-20" on="0"/>
        <pt x="615" y="-20" on="1"/>
        <pt x="525" y="-20" on="0"/>
        <pt x="380" y="35" on="0"/>
        <pt x="268" y="131" on="0"/>
        <pt x="186" y="260" on="0"/>
        <pt x="133" y="408" on="0"/>
        <pt x="107" y="566" on="0"/>
        <pt x="106" y="644" on="1"/>
        <pt x="106" y="810" on="1"/>
        <pt x="107" y="888" on="0"/>
        <pt x="132" y="1047" on="0"/>
        <pt x="185" y="1195" on="0"/>
        <pt x="266" y="1324" on="0"/>
        <pt x="378" y="1421" on="0"/>
        <pt x="523" y="1476" on="0"/>
        <pt x="613" y="1476" on="1"/>
        <pt x="703" y="1476" on="0"/>
        <pt x="849" y="1421" on="0"/>
        <pt x="961" y="1325" on="0"/>
        <pt x="1042" y="1196" on="0"/>
        <pt x="1095" y="1048" on="0"/>
        <pt x="1120" y="888" on="0"/>
        <pt x="1121" y="810" on="1"/>
      </contour>
      <contour>
        <pt x="938" y="812" on="1"/>
        <pt x="937" y="864" on="0"/>
        <pt x="925" y="977" on="0"/>
        <pt x="896" y="1088" on="0"/>
        <pt x="848" y="1189" on="0"/>
        <pt x="776" y="1266" on="0"/>
        <pt x="678" y="1311" on="0"/>
        <pt x="613" y="1311" on="1"/>
        <pt x="549" y="1311" on="0"/>
        <pt x="451" y="1265" on="0"/>
        <pt x="379" y="1188" on="0"/>
        <pt x="331" y="1087" on="0"/>
        <pt x="302" y="976" on="0"/>
        <pt x="289" y="863" on="0"/>
        <pt x="288" y="812" on="1"/>
        <pt x="288" y="644" on="1"/>
        <pt x="289" y="593" on="0"/>
        <pt x="302" y="479" on="0"/>
        <pt x="332" y="368" on="0"/>
        <pt x="380" y="266" on="0"/>
        <pt x="452" y="189" on="0"/>
        <pt x="550" y="143" on="0"/>
        <pt x="615" y="143" on="1"/>
        <pt x="680" y="143" on="0"/>
        <pt x="779" y="189" on="0"/>
        <pt x="850" y="266" on="0"/>
        <pt x="897" y="367" on="0"/>
        <pt x="926" y="478" on="0"/>
        <pt x="937" y="592" on="0"/>
        <pt x="938" y="644" on="1"/>
      </contour>
    </TTGlyph>
    <TTGlyph name="Thorn" xMin="168" yMin="0" xMax="1118" yMax="1456">
      <contour>
        <pt x="353" y="1456" on="1"/>
        <pt x="353" y="1163" on="1"/>
        <pt x="630" y="1163" on="1"/>
        <pt x="747" y="1163" on="0"/>
        <pt x="928" y="1100" on="0"/>
        <pt x="1053" y="987" on="0"/>
        <pt x="1118" y="831" on="0"/>
        <pt x="1118" y="738" on="1"/>
        <pt x="1118" y="645" on="0"/>
        <pt x="1053" y="489" on="0"/>
        <pt x="928" y="376" on="0"/>
        <pt x="747" y="313" on="0"/>
        <pt x="630" y="313" on="1"/>
        <pt x="353" y="313" on="1"/>
        <pt x="353" y="0" on="1"/>
        <pt x="168" y="0" on="1"/>
        <pt x="168" y="1456" on="1"/>
      </contour>
      <contour>
        <pt x="353" y="1011" on="1"/>
        <pt x="353" y="465" on="1"/>
        <pt x="630" y="465" on="1"/>
        <pt x="708" y="465" on="0"/>
        <pt x="822" y="510" on="0"/>
        <pt x="897" y="585" on="0"/>
        <pt x="933" y="683" on="0"/>
        <pt x="933" y="736" on="1"/>
        <pt x="933" y="790" on="0"/>
        <pt x="897" y="889" on="0"/>
        <pt x="823" y="966" on="0"/>
        <pt x="708" y="1011" on="0"/>
        <pt x="630" y="1011" on="1"/>
      </contour>
    </TTGlyph>
    <TTGlyph name="U" xMin="139" yMin="-20" xMax="1090" yMax="1456">
      <contour>
        <pt x="1088" y="1456" on="1"/>
        <pt x="1090" y="470" on="1"/>
        <pt x="1088" y="368" on="0"/>
        <pt x="1018" y="190" on="0"/>
        <pt x="892" y="57" on="0"/>
        <pt x="718" y="-20" on="0"/>
        <pt x="614" y="-20" on="1"/>
        <pt x="508" y="-20" on="0"/>
        <pt x="334" y="56" on="0"/>
        <pt x="210" y="189" on="0"/>
        <pt x="140" y="368" on="0"/>
        <pt x="139" y="470" on="1"/>
        <pt x="141" y="1456" on="1"/>
        <pt x="317" y="1456" on="1"/>
        <pt x="321" y="470" on="1"/>
        <pt x="322" y="405" on="0"/>
        <pt x="361" y="285" on="0"/>
        <pt x="434" y="193" on="0"/>
        <pt x="543" y="137" on="0"/>
        <pt x="614" y="137" on="1"/>
        <pt x="685" y="137" on="0"/>
        <pt x="793" y="192" on="0"/>
        <pt x="866" y="285" on="0"/>
        <pt x="904" y="405" on="0"/>
        <pt x="906" y="470" on="1"/>
        <pt x="909" y="1456" on="1"/>
      </contour>
    </TTGlyph>
    <TTGlyph name="U.smcp" xMin="181" yMin="-16" xMax="1067" yMax="1165">
      <contour>
        <pt x="1066" y="1165" on="1"/>
        <pt x="1067" y="385" on="1"/>
        <pt x="1065" y="290" on="0"/>
        <pt x="994" y="142" on="0"/>
        <pt x="874" y="38" on="0"/>
        <pt x="714" y="-16" on="0"/>
        <pt x="623" y="-16" on="1"/>
        <pt x="531" y="-16" on="0"/>
        <pt x="371" y="38" on="0"/>
        <pt x="252" y="140" on="0"/>
        <pt x="182" y="289" on="0"/>
        <pt x="181" y="385" on="1"/>
        <pt x="182" y="1165" on="1"/>
        <pt x="363" y="1165" on="1"/>
        <pt x="364" y="385" on="1"/>
        <pt x="365" y="326" on="0"/>
        <pt x="402" y="233" on="0"/>
        <pt x="469" y="169" on="0"/>
        <pt x="564" y="135" on="0"/>
        <pt x="623" y="135" on="1"/>
        <pt x="682" y="135" on="0"/>
        <pt x="777" y="169" on="0"/>
        <pt x="844" y="233" on="0"/>
        <pt x="881" y="326" on="0"/>
        <pt x="882" y="385" on="1"/>
        <pt x="883" y="1165" on="1"/>
      </contour>
    </TTGlyph>
    <TTGlyph name="Uacute" xMin="139" yMin="-20" xMax="1090" yMax="1812">
      <component glyphName="U" x="0" y="0" flags="0x204"/>
      <component glyphName="acute" x="163" y="331" flags="0x4"/>
    </TTGlyph>
    <TTGlyph name="Uacute.smcp" xMin="181" yMin="-16" xMax="1067" yMax="1532">
      <component glyphName="U.smcp" x="0" y="0" flags="0x204"/>
      <component glyphName="acute" x="149" y="51" flags="0x4"/>
    </TTGlyph>
    <TTGlyph name="Ubreve" xMin="139" yMin="-20" xMax="1090" yMax="1854">
      <component glyphName="U" x="0" y="0" flags="0x204"/>
      <component glyphName="breve" x="45" y="396" flags="0x4"/>
    </TTGlyph>
    <TTGlyph name="Ubreve.smcp" xMin="181" yMin="-16" xMax="1067" yMax="1574">
      <component glyphName="U.smcp" x="0" y="0" flags="0x204"/>
      <component glyphName="breve" x="31" y="116" flags="0x4"/>
    </TTGlyph>
    <TTGlyph name="Ucircumflex" xMin="139" yMin="-20" xMax="1090" yMax="1852">
      <component glyphName="U" x="0" y="0" flags="0x204"/>
      <component glyphName="circumflex" x="165" y="335" flags="0x4"/>
    </TTGlyph>
    <TTGlyph name="Ucircumflex.smcp" xMin="181" yMin="-16" xMax="1067" yMax="1572">
      <component glyphName="U.smcp" x="0" y="0" flags="0x204"/>
      <component glyphName="circumflex" x="151" y="55" flags="0x4"/>
    </TTGlyph>
    <TTGlyph name="Udieresis" xMin="139" yMin="-20" xMax="1090" yMax="1812">
      <component glyphName="U" x="0" y="0" flags="0x204"/>
      <component glyphName="dieresis" x="45" y="335" flags="0x4"/>
    </TTGlyph>
    <TTGlyph name="Udieresis.smcp" xMin="181" yMin="-16" xMax="1067" yMax="1532">
      <component glyphName="U.smcp" x="0" y="0" flags="0x204"/>
      <component glyphName="dieresis" x="31" y="55" flags="0x4"/>
    </TTGlyph>
    <TTGlyph name="Ugrave" xMin="139" yMin="-20" xMax="1090" yMax="1815">
      <component glyphName="U" x="0" y="0" flags="0x204"/>
      <component glyphName="grave" x="-73" y="334" flags="0x4"/>
    </TTGlyph>
    <TTGlyph name="Ugrave.smcp" xMin="181" yMin="-16" xMax="1067" yMax="1535">
      <component glyphName="U.smcp" x="0" y="0" flags="0x204"/>
      <component glyphName="grave" x="-87" y="54" flags="0x4"/>
    </TTGlyph>
    <TTGlyph name="Uhorn" xMin="139" yMin="-20" xMax="1411" yMax="1512">
      <contour>
        <pt x="1088" y="1456" on="1"/>
        <pt x="1088" y="1272" on="1"/>
        <pt x="1133" y="1278" on="0"/>
        <pt x="1193" y="1312" on="0"/>
        <pt x="1229" y="1371" on="0"/>
        <pt x="1244" y="1456" on="0"/>
        <pt x="1244" y="1512" on="1"/>
        <pt x="1411" y="1512" on="1"/>
        <pt x="1411" y="1332" on="0"/>
        <pt x="1255" y="1147" on="0"/>
        <pt x="1089" y="1136" on="1"/>
        <pt x="1090" y="470" on="1"/>
        <pt x="1088" y="368" on="0"/>
        <pt x="1018" y="190" on="0"/>
        <pt x="892" y="57" on="0"/>
        <pt x="718" y="-20" on="0"/>
        <pt x="614" y="-20" on="1"/>
        <pt x="508" y="-20" on="0"/>
        <pt x="334" y="56" on="0"/>
        <pt x="210" y="189" on="0"/>
        <pt x="140" y="368" on="0"/>
        <pt x="139" y="470" on="1"/>
        <pt x="141" y="1456" on="1"/>
        <pt x="317" y="1456" on="1"/>
        <pt x="321" y="470" on="1"/>
        <pt x="322" y="405" on="0"/>
        <pt x="361" y="285" on="0"/>
        <pt x="434" y="193" on="0"/>
        <pt x="543" y="137" on="0"/>
        <pt x="614" y="137" on="1"/>
        <pt x="685" y="137" on="0"/>
        <pt x="793" y="192" on="0"/>
        <pt x="866" y="285" on="0"/>
        <pt x="904" y="405" on="0"/>
        <pt x="906" y="470" on="1"/>
        <pt x="909" y="1456" on="1"/>
      </contour>
    </TTGlyph>
    <TTGlyph name="Uhungarumlaut" xMin="139" yMin="-20" xMax="1161" yMax="1854">
      <component glyphName="U" x="0" y="0" flags="0x204"/>
      <component glyphName="hungarumlaut" x="179" y="335" flags="0x4"/>
    </TTGlyph>
    <TTGlyph name="Uhungarumlaut.smcp" xMin="181" yMin="-16" xMax="1147" yMax="1574">
      <component glyphName="U.smcp" x="0" y="0" flags="0x204"/>
      <component glyphName="hungarumlaut" x="165" y="55" flags="0x4"/>
    </TTGlyph>
    <TTGlyph name="Umacron" xMin="139" yMin="-20" xMax="1090" yMax="1774">
      <component glyphName="U" x="0" y="0" flags="0x204"/>
      <component glyphName="macron" x="49" y="318" flags="0x4"/>
    </TTGlyph>
    <TTGlyph name="Umacron.smcp" xMin="181" yMin="-16" xMax="1067" yMax="1494">
      <component glyphName="U.smcp" x="0" y="0" flags="0x204"/>
      <component glyphName="macron" x="35" y="38" flags="0x4"/>
    </TTGlyph>
    <TTGlyph name="Uogonek" xMin="139" yMin="-386" xMax="1090" yMax="1456">
      <contour>
        <pt x="1088" y="1456" on="1"/>
        <pt x="1090" y="470" on="1"/>
        <pt x="1089" y="396" on="0"/>
        <pt x="1050" y="260" on="0"/>
        <pt x="980" y="144" on="0"/>
        <pt x="880" y="54" on="0"/>
        <pt x="819" y="25" on="1"/>
        <pt x="757" y="-15" on="0"/>
        <pt x="685" y="-114" on="0"/>
        <pt x="685" y="-172" on="1"/>
        <pt x="685" y="-206" on="0"/>
        <pt x="721" y="-247" on="0"/>
        <pt x="763" y="-247" on="1"/>
        <pt x="795" y="-248" on="0"/>
        <pt x="848" y="-229" on="0"/>
        <pt x="864" y="-221" on="1"/>
        <pt x="895" y="-342" on="1"/>
        <pt x="867" y="-358" on="0"/>
        <pt x="782" y="-386" on="0"/>
        <pt x="717" y="-386" on="1"/>
        <pt x="676" y="-386" on="0"/>
        <pt x="606" y="-362" on="0"/>
        <pt x="554" y="-314" on="0"/>
        <pt x="524" y="-243" on="0"/>
        <pt x="524" y="-196" on="1"/>
        <pt x="524" y="-151" on="0"/>
        <pt x="564" y="-61" on="0"/>
        <pt x="602" y="-19" on="1"/>
        <pt x="498" y="-17" on="0"/>
        <pt x="329" y="61" on="0"/>
        <pt x="208" y="193" on="0"/>
        <pt x="140" y="369" on="0"/>
        <pt x="139" y="470" on="1"/>
        <pt x="141" y="1456" on="1"/>
        <pt x="317" y="1456" on="1"/>
        <pt x="321" y="470" on="1"/>
        <pt x="322" y="405" on="0"/>
        <pt x="361" y="285" on="0"/>
        <pt x="434" y="193" on="0"/>
        <pt x="543" y="137" on="0"/>
        <pt x="614" y="137" on="1"/>
        <pt x="685" y="137" on="0"/>
        <pt x="793" y="192" on="0"/>
        <pt x="866" y="285" on="0"/>
        <pt x="904" y="405" on="0"/>
        <pt x="906" y="470" on="1"/>
        <pt x="909" y="1456" on="1"/>
      </contour>
    </TTGlyph>
    <TTGlyph name="Uogonek.smcp" xMin="181" yMin="-372" xMax="1067" yMax="1165">
      <contour>
        <pt x="1066" y="1165" on="1"/>
        <pt x="1067" y="385" on="1"/>
        <pt x="1066" y="321" on="0"/>
        <pt x="1032" y="211" on="0"/>
        <pt x="972" y="121" on="0"/>
        <pt x="888" y="51" on="0"/>
        <pt x="838" y="28" on="1"/>
        <pt x="782" y="-10" on="0"/>
        <pt x="719" y="-104" on="0"/>
        <pt x="719" y="-158" on="1"/>
        <pt x="719" y="-192" on="0"/>
        <pt x="755" y="-233" on="0"/>
        <pt x="797" y="-233" on="1"/>
        <pt x="829" y="-234" on="0"/>
        <pt x="882" y="-215" on="0"/>
        <pt x="898" y="-207" on="1"/>
        <pt x="929" y="-328" on="1"/>
        <pt x="901" y="-344" on="0"/>
        <pt x="816" y="-372" on="0"/>
        <pt x="751" y="-372" on="1"/>
        <pt x="710" y="-372" on="0"/>
        <pt x="640" y="-348" on="0"/>
        <pt x="588" y="-300" on="0"/>
        <pt x="558" y="-229" on="0"/>
        <pt x="558" y="-182" on="1"/>
        <pt x="558" y="-140" on="0"/>
        <pt x="594" y="-56" on="0"/>
        <pt x="627" y="-16" on="1"/>
        <pt x="623" y="-16" on="1"/>
        <pt x="531" y="-16" on="0"/>
        <pt x="371" y="38" on="0"/>
        <pt x="252" y="140" on="0"/>
        <pt x="182" y="289" on="0"/>
        <pt x="181" y="385" on="1"/>
        <pt x="182" y="1165" on="1"/>
        <pt x="363" y="1165" on="1"/>
        <pt x="364" y="385" on="1"/>
        <pt x="365" y="326" on="0"/>
        <pt x="402" y="233" on="0"/>
        <pt x="469" y="169" on="0"/>
        <pt x="564" y="135" on="0"/>
        <pt x="623" y="135" on="1"/>
        <pt x="682" y="135" on="0"/>
        <pt x="777" y="169" on="0"/>
        <pt x="844" y="233" on="0"/>
        <pt x="881" y="326" on="0"/>
        <pt x="882" y="385" on="1"/>
        <pt x="883" y="1165" on="1"/>
      </contour>
    </TTGlyph>
    <TTGlyph name="Upsilon" xMin="61" yMin="0" xMax="1145" yMax="1456">
      <component glyphName="Y" x="0" y="0" flags="0x204"/>
    </TTGlyph>
    <TTGlyph name="Upsilondieresis" xMin="61" yMin="0" xMax="1145" yMax="1823">
      <component glyphName="Y" x="0" y="0" flags="0x204"/>
      <component glyphName="dieresis" x="-4" y="346" flags="0x4"/>
    </TTGlyph>
    <TTGlyph name="Upsilontonos" xMin="-78" yMin="0" xMax="1245" yMax="1658">
      <component glyphName="Y" x="100" y="0" flags="0x4"/>
      <component glyphName="tonos" x="-631" y="0" flags="0x4"/>
    </TTGlyph>
    <TTGlyph name="Uring" xMin="139" yMin="-20" xMax="1090" yMax="1919">
      <component glyphName="U" x="0" y="0" flags="0x204"/>
      <component glyphName="ring" x="44" y="408" flags="0x4"/>
    </TTGlyph>
    <TTGlyph name="Uring.smcp" xMin="181" yMin="-16" xMax="1067" yMax="1639">
      <component glyphName="U.smcp" x="0" y="0" flags="0x204"/>
      <component glyphName="ring" x="30" y="128" flags="0x4"/>
    </TTGlyph>
    <TTGlyph name="Utilde" xMin="139" yMin="-20" xMax="1090" yMax="1862">
      <component glyphName="U" x="0" y="0" flags="0x204"/>
      <component glyphName="tilde" x="177" y="341" flags="0x4"/>
    </TTGlyph>
    <TTGlyph name="Utilde.smcp" xMin="181" yMin="-16" xMax="1067" yMax="1582">
      <component glyphName="U.smcp" x="0" y="0" flags="0x204"/>
      <component glyphName="tilde" x="163" y="61" flags="0x4"/>
    </TTGlyph>
    <TTGlyph name="V" xMin="71" yMin="0" xMax="1151" yMax="1456">
      <contour>
        <pt x="610" y="298" on="1"/>
        <pt x="954" y="1456" on="1"/>
        <pt x="1151" y="1456" on="1"/>
        <pt x="692" y="0" on="1"/>
        <pt x="531" y="0" on="1"/>
        <pt x="71" y="1456" on="1"/>
        <pt x="269" y="1456" on="1"/>
      </contour>
    </TTGlyph>
    <TTGlyph name="V.smcp" xMin="86" yMin="0" xMax="1155" yMax="1165">
      <contour>
        <pt x="592" y="310" on="1"/>
        <pt x="620" y="203" on="1"/>
        <pt x="649" y="309" on="1"/>
        <pt x="954" y="1165" on="1"/>
        <pt x="1155" y="1165" on="1"/>
        <pt x="707" y="0" on="1"/>
        <pt x="533" y="0" on="1"/>
        <pt x="86" y="1165" on="1"/>
        <pt x="286" y="1165" on="1"/>
      </contour>
    </TTGlyph>
    <TTGlyph name="W" xMin="73" yMin="0" xMax="1182" yMax="1456">
      <contour>
        <pt x="896" y="394" on="1"/>
        <pt x="1007" y="1456" on="1"/>
        <pt x="1182" y="1456" on="1"/>
        <pt x="1005" y="0" on="1"/>
        <pt x="816" y="0" on="1"/>
        <pt x="629" y="1097" on="1"/>
        <pt x="440" y="0" on="1"/>
        <pt x="250" y="0" on="1"/>
        <pt x="73" y="1456" on="1"/>
        <pt x="249" y="1456" on="1"/>
        <pt x="360" y="394" on="1"/>
        <pt x="547" y="1456" on="1"/>
        <pt x="708" y="1456" on="1"/>
      </contour>
    </TTGlyph>
    <TTGlyph name="W.smcp" xMin="47" yMin="0" xMax="1211" yMax="1165">
      <contour>
        <pt x="888" y="339" on="1"/>
        <pt x="1039" y="1165" on="1"/>
        <pt x="1211" y="1165" on="1"/>
        <pt x="978" y="0" on="1"/>
        <pt x="819" y="0" on="1"/>
        <pt x="631" y="830" on="1"/>
        <pt x="438" y="0" on="1"/>
        <pt x="279" y="0" on="1"/>
        <pt x="47" y="1165" on="1"/>
        <pt x="218" y="1165" on="1"/>
        <pt x="370" y="339" on="1"/>
        <pt x="554" y="1165" on="1"/>
        <pt x="708" y="1165" on="1"/>
      </contour>
    </TTGlyph>
    <TTGlyph name="Wacute" xMin="73" yMin="0" xMax="1182" yMax="1824">
      <component glyphName="W" x="0" y="0" flags="0x204"/>
      <component glyphName="acute" x="125" y="343" flags="0x4"/>
    </TTGlyph>
    <TTGlyph name="Wcircumflex" xMin="73" yMin="0" xMax="1182" yMax="1864">
      <component glyphName="W" x="0" y="0" flags="0x204"/>
      <component glyphName="circumflex" x="127" y="347" flags="0x4"/>
    </TTGlyph>
    <TTGlyph name="Wcircumflex.smcp" xMin="47" yMin="0" xMax="1211" yMax="1572">
      <component glyphName="W.smcp" x="0" y="0" flags="0x204"/>
      <component glyphName="circumflex" x="301" y="55" flags="0x4"/>
    </TTGlyph>
    <TTGlyph name="Wdieresis" xMin="73" yMin="0" xMax="1182" yMax="1824">
      <component glyphName="W" x="0" y="0" flags="0x204"/>
      <component glyphName="dieresis" x="7" y="347" flags="0x4"/>
    </TTGlyph>
    <TTGlyph name="Wgrave" xMin="73" yMin="0" xMax="1182" yMax="1827">
      <component glyphName="W" x="0" y="0" flags="0x204"/>
      <component glyphName="grave" x="-111" y="346" flags="0x4"/>
    </TTGlyph>
    <TTGlyph name="X" xMin="87" yMin="0" xMax="1167" yMax="1456">
      <contour>
        <pt x="625" y="885" on="1"/>
        <pt x="939" y="1456" on="1"/>
        <pt x="1157" y="1456" on="1"/>
        <pt x="734" y="734" on="1"/>
        <pt x="1167" y="0" on="1"/>
        <pt x="951" y="0" on="1"/>
        <pt x="629" y="582" on="1"/>
        <pt x="306" y="0" on="1"/>
        <pt x="87" y="0" on="1"/>
        <pt x="521" y="734" on="1"/>
        <pt x="98" y="1456" on="1"/>
        <pt x="315" y="1456" on="1"/>
      </contour>
    </TTGlyph>
    <TTGlyph name="X.smcp" xMin="96" yMin="0" xMax="1126" yMax="1165">
      <contour>
        <pt x="607" y="730" on="1"/>
        <pt x="892" y="1165" on="1"/>
        <pt x="1111" y="1165" on="1"/>
        <pt x="719" y="587" on="1"/>
        <pt x="1126" y="0" on="1"/>
        <pt x="906" y="0" on="1"/>
        <pt x="610" y="443" on="1"/>
        <pt x="316" y="0" on="1"/>
        <pt x="96" y="0" on="1"/>
        <pt x="500" y="587" on="1"/>
        <pt x="105" y="1165" on="1"/>
        <pt x="324" y="1165" on="1"/>
      </contour>
    </TTGlyph>
    <TTGlyph name="Xi" xMin="145" yMin="0" xMax="1079" yMax="1456">
      <contour>
        <pt x="145" y="151" on="1"/>
        <pt x="1079" y="151" on="1"/>
        <pt x="1079" y="0" on="1"/>
        <pt x="145" y="0" on="1"/>
      </contour>
      <contour>
        <pt x="230" y="830" on="1"/>
        <pt x="984" y="830" on="1"/>
        <pt x="984" y="678" on="1"/>
        <pt x="230" y="678" on="1"/>
      </contour>
      <contour>
        <pt x="147" y="1456" on="1"/>
        <pt x="1065" y="1456" on="1"/>
        <pt x="1065" y="1304" on="1"/>
        <pt x="147" y="1304" on="1"/>
      </contour>
    </TTGlyph>
    <TTGlyph name="Y" xMin="61" yMin="0" xMax="1145" yMax="1456">
      <contour>
        <pt x="603" y="725" on="1"/>
        <pt x="935" y="1456" on="1"/>
        <pt x="1145" y="1456" on="1"/>
        <pt x="692" y="543" on="1"/>
        <pt x="689" y="0" on="1"/>
        <pt x="517" y="0" on="1"/>
        <pt x="514" y="543" on="1"/>
        <pt x="61" y="1456" on="1"/>
        <pt x="272" y="1456" on="1"/>
      </contour>
    </TTGlyph>
    <TTGlyph name="Y.smcp" xMin="77" yMin="0" xMax="1153" yMax="1165">
      <contour>
        <pt x="614" y="580" on="1"/>
        <pt x="941" y="1165" on="1"/>
        <pt x="1153" y="1165" on="1"/>
        <pt x="705" y="405" on="1"/>
        <pt x="705" y="0" on="1"/>
        <pt x="518" y="0" on="1"/>
        <pt x="518" y="417" on="1"/>
        <pt x="77" y="1165" on="1"/>
        <pt x="289" y="1165" on="1"/>
      </contour>
    </TTGlyph>
    <TTGlyph name="Yacute" xMin="61" yMin="0" xMax="1145" yMax="1823">
      <component glyphName="Y" x="0" y="0" flags="0x204"/>
      <component glyphName="acute" x="113" y="342" flags="0x4"/>
    </TTGlyph>
    <TTGlyph name="Yacute.smcp" xMin="77" yMin="0" xMax="1153" yMax="1532">
      <component glyphName="Y.smcp" x="0" y="0" flags="0x204"/>
      <component glyphName="acute" x="98" y="51" flags="0x4"/>
    </TTGlyph>
    <TTGlyph name="Ycircumflex" xMin="61" yMin="0" xMax="1145" yMax="1863">
      <component glyphName="Y" x="0" y="0" flags="0x204"/>
      <component glyphName="circumflex" x="115" y="346" flags="0x4"/>
    </TTGlyph>
    <TTGlyph name="Ycircumflex.smcp" xMin="77" yMin="0" xMax="1153" yMax="1572">
      <component glyphName="Y.smcp" x="0" y="0" flags="0x204"/>
      <component glyphName="circumflex" x="100" y="55" flags="0x4"/>
    </TTGlyph>
    <TTGlyph name="Ydieresis" xMin="61" yMin="0" xMax="1145" yMax="1823">
      <component glyphName="Y" x="0" y="0" flags="0x204"/>
      <component glyphName="dieresis" x="-4" y="346" flags="0x4"/>
    </TTGlyph>
    <TTGlyph name="Ydieresis.smcp" xMin="77" yMin="0" xMax="1153" yMax="1532">
      <component glyphName="Y.smcp" x="0" y="0" flags="0x204"/>
      <component glyphName="dieresis" x="-19" y="55" flags="0x4"/>
    </TTGlyph>
    <TTGlyph name="Ygrave" xMin="61" yMin="0" xMax="1145" yMax="1826">
      <component glyphName="Y" x="0" y="0" flags="0x204"/>
      <component glyphName="grave" x="-123" y="345" flags="0x4"/>
    </TTGlyph>
    <TTGlyph name="Z" xMin="114" yMin="0" xMax="1079" yMax="1456">
      <contour>
        <pt x="325" y="157" on="1"/>
        <pt x="1079" y="157" on="1"/>
        <pt x="1079" y="0" on="1"/>
        <pt x="116" y="0" on="1"/>
        <pt x="114" y="144" on="1"/>
        <pt x="839" y="1298" on="1"/>
        <pt x="127" y="1298" on="1"/>
        <pt x="127" y="1456" on="1"/>
        <pt x="1050" y="1456" on="1"/>
        <pt x="1052" y="1315" on="1"/>
      </contour>
    </TTGlyph>
    <TTGlyph name="Z.smcp" xMin="185" yMin="0" xMax="1090" yMax="1165">
      <contour>
        <pt x="415" y="151" on="1"/>
        <pt x="1090" y="151" on="1"/>
        <pt x="1090" y="0" on="1"/>
        <pt x="185" y="0" on="1"/>
        <pt x="185" y="124" on="1"/>
        <pt x="836" y="1012" on="1"/>
        <pt x="194" y="1012" on="1"/>
        <pt x="194" y="1165" on="1"/>
        <pt x="1065" y="1165" on="1"/>
        <pt x="1066" y="1044" on="1"/>
      </contour>
    </TTGlyph>
    <TTGlyph name="Zacute" xMin="114" yMin="0" xMax="1079" yMax="1812">
      <component glyphName="Z" x="0" y="0" flags="0x204"/>
      <component glyphName="acute" x="157" y="331" flags="0x4"/>
    </TTGlyph>
    <TTGlyph name="Zacute.smcp" xMin="185" yMin="0" xMax="1090" yMax="1532">
      <component glyphName="Z.smcp" x="0" y="0" flags="0x204"/>
      <component glyphName="acute" x="160" y="51" flags="0x4"/>
    </TTGlyph>
    <TTGlyph name="Zcaron" xMin="114" yMin="0" xMax="1079" yMax="1853">
      <component glyphName="Z" x="0" y="0" flags="0x204"/>
      <component glyphName="caron" x="40" y="336" flags="0x4"/>
    </TTGlyph>
    <TTGlyph name="Zcaron.smcp" xMin="185" yMin="0" xMax="1090" yMax="1573">
      <component glyphName="Z.smcp" x="0" y="0" flags="0x204"/>
      <component glyphName="caron" x="43" y="56" flags="0x4"/>
    </TTGlyph>
    <TTGlyph name="Zdotaccent" xMin="114" yMin="0" xMax="1079" yMax="1805">
      <component glyphName="Z" x="0" y="0" flags="0x204"/>
      <component glyphName="dotaccent" x="39" y="335" flags="0x4"/>
    </TTGlyph>
    <TTGlyph name="Zdotaccent.smcp" xMin="185" yMin="0" xMax="1090" yMax="1525">
      <component glyphName="Z.smcp" x="0" y="0" flags="0x204"/>
      <component glyphName="dotaccent" x="42" y="55" flags="0x4"/>
    </TTGlyph>
    <TTGlyph name="Zeta" xMin="114" yMin="0" xMax="1079" yMax="1456">
      <component glyphName="Z" x="0" y="0" flags="0x204"/>
    </TTGlyph>
    <TTGlyph name="a" xMin="156" yMin="-20" xMax="1078" yMax="1102">
      <contour>
        <pt x="885" y="0" on="1"/>
        <pt x="874" y="21" on="0"/>
        <pt x="861" y="84" on="0"/>
        <pt x="858" y="118" on="1"/>
        <pt x="830" y="90" on="0"/>
        <pt x="761" y="40" on="0"/>
        <pt x="678" y="2" on="0"/>
        <pt x="584" y="-20" on="0"/>
        <pt x="531" y="-20" on="1"/>
        <pt x="445" y="-20" on="0"/>
        <pt x="306" y="30" on="0"/>
        <pt x="209" y="115" on="0"/>
        <pt x="156" y="232" on="0"/>
        <pt x="156" y="300" on="1"/>
        <pt x="156" y="389" on="0"/>
        <pt x="227" y="523" on="0"/>
        <pt x="357" y="612" on="0"/>
        <pt x="540" y="656" on="0"/>
        <pt x="653" y="656" on="1"/>
        <pt x="855" y="656" on="1"/>
        <pt x="855" y="741" on="1"/>
        <pt x="855" y="790" on="0"/>
        <pt x="819" y="868" on="0"/>
        <pt x="753" y="923" on="0"/>
        <pt x="658" y="953" on="0"/>
        <pt x="599" y="953" on="1"/>
        <pt x="544" y="953" on="0"/>
        <pt x="457" y="925" on="0"/>
        <pt x="397" y="879" on="0"/>
        <pt x="364" y="816" on="0"/>
        <pt x="364" y="782" on="1"/>
        <pt x="178" y="782" on="1"/>
        <pt x="179" y="841" on="0"/>
        <pt x="238" y="955" on="0"/>
        <pt x="349" y="1046" on="0"/>
        <pt x="508" y="1102" on="0"/>
        <pt x="609" y="1102" on="1"/>
        <pt x="701" y="1102" on="0"/>
        <pt x="859" y="1057" on="0"/>
        <pt x="974" y="966" on="0"/>
        <pt x="1040" y="830" on="0"/>
        <pt x="1040" y="739" on="1"/>
        <pt x="1040" y="236" on="1"/>
        <pt x="1040" y="182" on="0"/>
        <pt x="1060" y="61" on="0"/>
        <pt x="1078" y="16" on="1"/>
        <pt x="1078" y="0" on="1"/>
      </contour>
      <contour>
        <pt x="558" y="141" on="1"/>
        <pt x="612" y="141" on="0"/>
        <pt x="706" y="169" on="0"/>
        <pt x="783" y="215" on="0"/>
        <pt x="839" y="274" on="0"/>
        <pt x="855" y="306" on="1"/>
        <pt x="855" y="525" on="1"/>
        <pt x="683" y="525" on="1"/>
        <pt x="521" y="525" on="0"/>
        <pt x="341" y="429" on="0"/>
        <pt x="341" y="326" on="1"/>
        <pt x="341" y="286" on="0"/>
        <pt x="368" y="218" on="0"/>
        <pt x="422" y="169" on="0"/>
        <pt x="504" y="141" on="0"/>
      </contour>
    </TTGlyph>
    <TTGlyph name="aacute" xMin="156" yMin="-20" xMax="1078" yMax="1502">
      <component glyphName="a" x="0" y="0" flags="0x204"/>
      <component glyphName="acute" x="129" y="21" flags="0x4"/>
    </TTGlyph>
    <TTGlyph name="abreve" xMin="156" yMin="-20" xMax="1078" yMax="1544">
      <component glyphName="a" x="0" y="0" flags="0x204"/>
      <component glyphName="breve" x="11" y="86" flags="0x4"/>
    </TTGlyph>
    <TTGlyph name="acircumflex" xMin="156" yMin="-20" xMax="1078" yMax="1542">
      <component glyphName="a" x="0" y="0" flags="0x204"/>
      <component glyphName="circumflex" x="131" y="25" flags="0x4"/>
    </TTGlyph>
    <TTGlyph name="acute" xMin="410" yMin="1215" xMax="818" yMax="1481">
      <contour>
        <pt x="594" y="1481" on="1"/>
        <pt x="818" y="1481" on="1"/>
        <pt x="550" y="1215" on="1"/>
        <pt x="410" y="1215" on="1"/>
      </contour>
    </TTGlyph>
    <TTGlyph name="acutecomb" xMin="-664" yMin="1212" xMax="-362" yMax="1559">
      <contour>
        <pt x="-534" y="1559" on="1"/>
        <pt x="-362" y="1559" on="1"/>
        <pt x="-548" y="1212" on="1"/>
        <pt x="-664" y="1212" on="1"/>
      </contour>
    </TTGlyph>
    <TTGlyph name="adieresis" xMin="156" yMin="-20" xMax="1078" yMax="1502">
      <component glyphName="a" x="0" y="0" flags="0x204"/>
      <component glyphName="dieresis" x="11" y="25" flags="0x4"/>
    </TTGlyph>
    <TTGlyph name="ae" xMin="43" yMin="-20" xMax="1193" yMax="1102">
      <contour>
        <pt x="896" y="-20" on="1"/>
        <pt x="793" y="-20" on="0"/>
        <pt x="645" y="55" on="0"/>
        <pt x="599" y="126" on="1"/>
        <pt x="580" y="97" on="0"/>
        <pt x="529" y="44" on="0"/>
        <pt x="463" y="4" on="0"/>
        <pt x="383" y="-20" on="0"/>
        <pt x="335" y="-20" on="1"/>
        <pt x="264" y="-20" on="0"/>
        <pt x="156" y="24" on="0"/>
        <pt x="82" y="103" on="0"/>
        <pt x="43" y="216" on="0"/>
        <pt x="43" y="285" on="1"/>
        <pt x="43" y="451" on="0"/>
        <pt x="251" y="635" on="0"/>
        <pt x="448" y="635" on="1"/>
        <pt x="511" y="635" on="1"/>
        <pt x="511" y="783" on="1"/>
        <pt x="511" y="859" on="0"/>
        <pt x="449" y="950" on="0"/>
        <pt x="381" y="950" on="1"/>
        <pt x="318" y="950" on="0"/>
        <pt x="240" y="867" on="0"/>
        <pt x="240" y="792" on="1"/>
        <pt x="61" y="800" on="1"/>
        <pt x="61" y="869" on="0"/>
        <pt x="106" y="980" on="0"/>
        <pt x="189" y="1059" on="0"/>
        <pt x="307" y="1102" on="0"/>
        <pt x="379" y="1102" on="1"/>
        <pt x="462" y="1102" on="0"/>
        <pt x="587" y="1048" on="0"/>
        <pt x="626" y="995" on="1"/>
        <pt x="669" y="1046" on="0"/>
        <pt x="788" y="1102" on="0"/>
        <pt x="862" y="1102" on="1"/>
        <pt x="943" y="1102" on="0"/>
        <pt x="1066" y="1049" on="0"/>
        <pt x="1150" y="952" on="0"/>
        <pt x="1193" y="815" on="0"/>
        <pt x="1193" y="731" on="1"/>
        <pt x="1193" y="497" on="1"/>
        <pt x="688" y="497" on="1"/>
        <pt x="688" y="411" on="1"/>
        <pt x="688" y="345" on="0"/>
        <pt x="715" y="241" on="0"/>
        <pt x="774" y="169" on="0"/>
        <pt x="866" y="130" on="0"/>
        <pt x="932" y="130" on="1"/>
        <pt x="970" y="130" on="0"/>
        <pt x="1029" y="144" on="0"/>
        <pt x="1076" y="165" on="0"/>
        <pt x="1114" y="189" on="0"/>
        <pt x="1130" y="200" on="1"/>
        <pt x="1176" y="64" on="1"/>
        <pt x="1163" y="54" on="0"/>
        <pt x="1117" y="25" on="0"/>
        <pt x="1048" y="-1" on="0"/>
        <pt x="955" y="-20" on="0"/>
      </contour>
      <contour>
        <pt x="862" y="950" on="1"/>
        <pt x="817" y="950" on="0"/>
        <pt x="752" y="911" on="0"/>
        <pt x="710" y="845" on="0"/>
        <pt x="689" y="757" on="0"/>
        <pt x="688" y="709" on="1"/>
        <pt x="688" y="640" on="1"/>
        <pt x="1017" y="640" on="1"/>
        <pt x="1017" y="768" on="1"/>
        <pt x="1017" y="803" on="0"/>
        <pt x="997" y="868" on="0"/>
        <pt x="957" y="919" on="0"/>
        <pt x="899" y="950" on="0"/>
      </contour>
      <contour>
        <pt x="371" y="130" on="1"/>
        <pt x="408" y="130" on="0"/>
        <pt x="484" y="173" on="0"/>
        <pt x="512" y="202" on="1"/>
        <pt x="511" y="495" on="1"/>
        <pt x="450" y="495" on="1"/>
        <pt x="397" y="495" on="0"/>
        <pt x="313" y="460" on="0"/>
        <pt x="255" y="401" on="0"/>
        <pt x="224" y="324" on="0"/>
        <pt x="224" y="281" on="1"/>
        <pt x="224" y="250" on="0"/>
        <pt x="243" y="195" on="0"/>
        <pt x="280" y="154" on="0"/>
        <pt x="335" y="130" on="0"/>
      </contour>
    </TTGlyph>
    <TTGlyph name="aeacute" xMin="43" yMin="-20" xMax="1193" yMax="1503">
      <component glyphName="ae" x="0" y="0" flags="0x204"/>
      <component glyphName="acute" x="152" y="22" flags="0x4"/>
    </TTGlyph>
    <TTGlyph name="agrave" xMin="156" yMin="-20" xMax="1078" yMax="1505">
      <component glyphName="a" x="0" y="0" flags="0x204"/>
      <component glyphName="grave" x="-107" y="24" flags="0x4"/>
    </TTGlyph>
    <TTGlyph name="alpha" xMin="129" yMin="-21" xMax="1162" yMax="1102">
      <contour>
        <pt x="1007" y="1082" on="1"/>
        <pt x="1007" y="277" on="1"/>
        <pt x="1007" y="239" on="0"/>
        <pt x="1019" y="188" on="0"/>
        <pt x="1040" y="158" on="0"/>
        <pt x="1069" y="145" on="0"/>
        <pt x="1087" y="145" on="1"/>
        <pt x="1102" y="145" on="0"/>
        <pt x="1129" y="149" on="0"/>
        <pt x="1139" y="151" on="1"/>
        <pt x="1162" y="13" on="1"/>
        <pt x="1131" y="-8" on="0"/>
        <pt x="1072" y="-21" on="0"/>
        <pt x="1040" y="-21" on="1"/>
        <pt x="965" y="-21" on="0"/>
        <pt x="866" y="46" on="0"/>
        <pt x="842" y="120" on="1"/>
        <pt x="788" y="51" on="0"/>
        <pt x="634" y="-21" on="0"/>
        <pt x="531" y="-21" on="1"/>
        <pt x="433" y="-21" on="0"/>
        <pt x="283" y="58" on="0"/>
        <pt x="181" y="197" on="0"/>
        <pt x="129" y="388" on="0"/>
        <pt x="129" y="500" on="1"/>
        <pt x="129" y="521" on="1"/>
        <pt x="129" y="646" on="0"/>
        <pt x="181" y="859" on="0"/>
        <pt x="283" y="1014" on="0"/>
        <pt x="434" y="1102" on="0"/>
        <pt x="533" y="1102" on="1"/>
        <pt x="637" y="1102" on="0"/>
        <pt x="792" y="1026" on="0"/>
        <pt x="846" y="955" on="1"/>
        <pt x="895" y="1082" on="1"/>
      </contour>
      <contour>
        <pt x="314" y="500" on="1"/>
        <pt x="314" y="425" on="0"/>
        <pt x="342" y="291" on="0"/>
        <pt x="405" y="190" on="0"/>
        <pt x="505" y="130" on="0"/>
        <pt x="576" y="130" on="1"/>
        <pt x="665" y="130" on="0"/>
        <pt x="784" y="212" on="0"/>
        <pt x="822" y="277" on="1"/>
        <pt x="822" y="808" on="1"/>
        <pt x="803" y="839" on="0"/>
        <pt x="755" y="891" on="0"/>
        <pt x="694" y="929" on="0"/>
        <pt x="621" y="950" on="0"/>
        <pt x="578" y="950" on="1"/>
        <pt x="506" y="950" on="0"/>
        <pt x="405" y="880" on="0"/>
        <pt x="342" y="761" on="0"/>
        <pt x="314" y="606" on="0"/>
        <pt x="314" y="521" on="1"/>
      </contour>
    </TTGlyph>
    <TTGlyph name="alphatonos" xMin="129" yMin="-21" xMax="1162" yMax="1662">
      <component glyphName="alpha" x="0" y="0" flags="0x204"/>
      <component glyphName="tonos" x="15" y="4" flags="0x4"/>
    </TTGlyph>
    <TTGlyph name="amacron" xMin="156" yMin="-20" xMax="1078" yMax="1464">
      <component glyphName="a" x="0" y="0" flags="0x204"/>
      <component glyphName="macron" x="15" y="8" flags="0x4"/>
    </TTGlyph>
    <TTGlyph name="ampersand" xMin="107" yMin="-20" xMax="1193" yMax="1477">
      <contour>
        <pt x="107" y="373" on="1"/>
        <pt x="107" y="440" on="0"/>
        <pt x="147" y="554" on="0"/>
        <pt x="219" y="653" on="0"/>
        <pt x="319" y="742" on="0"/>
        <pt x="380" y="785" on="1"/>
        <pt x="313" y="876" on="0"/>
        <pt x="234" y="1038" on="0"/>
        <pt x="234" y="1126" on="1"/>
        <pt x="234" y="1211" on="0"/>
        <pt x="285" y="1342" on="0"/>
        <pt x="379" y="1431" on="0"/>
        <pt x="511" y="1477" on="0"/>
        <pt x="593" y="1477" on="1"/>
        <pt x="664" y="1477" on="0"/>
        <pt x="780" y="1427" on="0"/>
        <pt x="861" y="1342" on="0"/>
        <pt x="905" y="1230" on="0"/>
        <pt x="905" y="1168" on="1"/>
        <pt x="905" y="1115" on="0"/>
        <pt x="874" y="1028" on="0"/>
        <pt x="819" y="952" on="0"/>
        <pt x="743" y="884" on="0"/>
        <pt x="699" y="851" on="1"/>
        <pt x="605" y="771" on="1"/>
        <pt x="912" y="368" on="1"/>
        <pt x="947" y="432" on="0"/>
        <pt x="987" y="584" on="0"/>
        <pt x="988" y="672" on="1"/>
        <pt x="1155" y="672" on="1"/>
        <pt x="1155" y="544" on="0"/>
        <pt x="1082" y="325" on="0"/>
        <pt x="1012" y="237" on="1"/>
        <pt x="1193" y="0" on="1"/>
        <pt x="972" y="0" on="1"/>
        <pt x="889" y="110" on="1"/>
        <pt x="815" y="47" on="0"/>
        <pt x="637" y="-20" on="0"/>
        <pt x="539" y="-20" on="1"/>
        <pt x="440" y="-20" on="0"/>
        <pt x="280" y="38" on="0"/>
        <pt x="168" y="142" on="0"/>
        <pt x="107" y="287" on="0"/>
      </contour>
      <contour>
        <pt x="539" y="130" on="1"/>
        <pt x="610" y="130" on="0"/>
        <pt x="742" y="182" on="0"/>
        <pt x="799" y="230" on="1"/>
        <pt x="476" y="661" on="1"/>
        <pt x="448" y="637" on="1"/>
        <pt x="398" y="596" on="0"/>
        <pt x="336" y="518" on="0"/>
        <pt x="303" y="449" on="0"/>
        <pt x="292" y="392" on="0"/>
        <pt x="292" y="373" on="1"/>
        <pt x="292" y="322" on="0"/>
        <pt x="324" y="234" on="0"/>
        <pt x="386" y="168" on="0"/>
        <pt x="478" y="130" on="0"/>
      </contour>
      <contour>
        <pt x="420" y="1128" on="1"/>
        <pt x="420" y="1072" on="0"/>
        <pt x="470" y="955" on="0"/>
        <pt x="515" y="890" on="1"/>
        <pt x="632" y="983" on="1"/>
        <pt x="663" y="1004" on="0"/>
        <pt x="703" y="1050" on="0"/>
        <pt x="725" y="1097" on="0"/>
        <pt x="734" y="1145" on="0"/>
        <pt x="734" y="1168" on="1"/>
        <pt x="734" y="1198" on="0"/>
        <pt x="715" y="1255" on="0"/>
        <pt x="678" y="1298" on="0"/>
        <pt x="626" y="1325" on="0"/>
        <pt x="593" y="1325" on="1"/>
        <pt x="550" y="1325" on="0"/>
        <pt x="485" y="1293" on="0"/>
        <pt x="442" y="1239" on="0"/>
        <pt x="420" y="1168" on="0"/>
      </contour>
    </TTGlyph>
    <TTGlyph name="ampersand.alt" xMin="90" yMin="-21" xMax="1178" yMax="1476">
      <contour>
        <pt x="1178" y="817" on="1"/>
        <pt x="1178" y="666" on="1"/>
        <pt x="981" y="666" on="1"/>
        <pt x="981" y="143" on="1"/>
        <pt x="893" y="65" on="0"/>
        <pt x="674" y="-21" on="0"/>
        <pt x="540" y="-20" on="1"/>
        <pt x="446" y="-20" on="0"/>
        <pt x="282" y="36" on="0"/>
        <pt x="160" y="143" on="0"/>
        <pt x="90" y="300" on="0"/>
        <pt x="90" y="401" on="1"/>
        <pt x="90" y="452" on="0"/>
        <pt x="113" y="556" on="0"/>
        <pt x="169" y="649" on="0"/>
        <pt x="262" y="724" on="0"/>
        <pt x="333" y="747" on="1"/>
        <pt x="280" y="772" on="0"/>
        <pt x="204" y="847" on="0"/>
        <pt x="155" y="933" on="0"/>
        <pt x="132" y="1024" on="0"/>
        <pt x="132" y="1066" on="1"/>
        <pt x="132" y="1167" on="0"/>
        <pt x="201" y="1320" on="0"/>
        <pt x="318" y="1424" on="0"/>
        <pt x="472" y="1476" on="0"/>
        <pt x="557" y="1476" on="1"/>
        <pt x="653" y="1476" on="0"/>
        <pt x="808" y="1413" on="0"/>
        <pt x="917" y="1304" on="0"/>
        <pt x="976" y="1157" on="0"/>
        <pt x="976" y="1074" on="1"/>
        <pt x="791" y="1074" on="1"/>
        <pt x="791" y="1131" on="0"/>
        <pt x="758" y="1223" on="0"/>
        <pt x="698" y="1289" on="0"/>
        <pt x="611" y="1324" on="0"/>
        <pt x="557" y="1324" on="1"/>
        <pt x="509" y="1324" on="0"/>
        <pt x="422" y="1292" on="0"/>
        <pt x="356" y="1228" on="0"/>
        <pt x="317" y="1133" on="0"/>
        <pt x="317" y="1070" on="1"/>
        <pt x="317" y="1014" on="0"/>
        <pt x="349" y="922" on="0"/>
        <pt x="412" y="854" on="0"/>
        <pt x="503" y="817" on="0"/>
        <pt x="563" y="817" on="1"/>
      </contour>
      <contour>
        <pt x="560" y="666" on="1"/>
        <pt x="495" y="666" on="0"/>
        <pt x="390" y="633" on="0"/>
        <pt x="316" y="566" on="0"/>
        <pt x="275" y="465" on="0"/>
        <pt x="275" y="397" on="1"/>
        <pt x="275" y="329" on="0"/>
        <pt x="319" y="231" on="0"/>
        <pt x="398" y="167" on="0"/>
        <pt x="509" y="137" on="0"/>
        <pt x="575" y="137" on="1"/>
        <pt x="605" y="136" on="0"/>
        <pt x="668" y="147" on="0"/>
        <pt x="728" y="167" on="0"/>
        <pt x="780" y="193" on="0"/>
        <pt x="799" y="208" on="1"/>
        <pt x="799" y="666" on="1"/>
      </contour>
    </TTGlyph>
    <TTGlyph name="anoteleia" xMin="560" yMin="619" xMax="790" yMax="841">
      <component glyphName="periodcentered" x="56" y="0" flags="0x204"/>
    </TTGlyph>
    <TTGlyph name="aogonek" xMin="156" yMin="-433" xMax="1078" yMax="1102">
      <contour>
        <pt x="879" y="14" on="1"/>
        <pt x="871" y="35" on="0"/>
        <pt x="861" y="89" on="0"/>
        <pt x="858" y="118" on="1"/>
        <pt x="830" y="90" on="0"/>
        <pt x="761" y="40" on="0"/>
        <pt x="678" y="2" on="0"/>
        <pt x="584" y="-20" on="0"/>
        <pt x="531" y="-20" on="1"/>
        <pt x="445" y="-20" on="0"/>
        <pt x="306" y="30" on="0"/>
        <pt x="209" y="115" on="0"/>
        <pt x="156" y="232" on="0"/>
        <pt x="156" y="300" on="1"/>
        <pt x="156" y="389" on="0"/>
        <pt x="227" y="523" on="0"/>
        <pt x="357" y="612" on="0"/>
        <pt x="540" y="656" on="0"/>
        <pt x="653" y="656" on="1"/>
        <pt x="855" y="656" on="1"/>
        <pt x="855" y="741" on="1"/>
        <pt x="855" y="790" on="0"/>
        <pt x="819" y="868" on="0"/>
        <pt x="753" y="923" on="0"/>
        <pt x="658" y="953" on="0"/>
        <pt x="599" y="953" on="1"/>
        <pt x="544" y="953" on="0"/>
        <pt x="457" y="925" on="0"/>
        <pt x="397" y="879" on="0"/>
        <pt x="364" y="816" on="0"/>
        <pt x="364" y="782" on="1"/>
        <pt x="178" y="782" on="1"/>
        <pt x="179" y="841" on="0"/>
        <pt x="238" y="955" on="0"/>
        <pt x="349" y="1046" on="0"/>
        <pt x="508" y="1102" on="0"/>
        <pt x="609" y="1102" on="1"/>
        <pt x="701" y="1102" on="0"/>
        <pt x="859" y="1057" on="0"/>
        <pt x="974" y="966" on="0"/>
        <pt x="1040" y="830" on="0"/>
        <pt x="1040" y="739" on="1"/>
        <pt x="1040" y="236" on="1"/>
        <pt x="1040" y="182" on="0"/>
        <pt x="1060" y="61" on="0"/>
        <pt x="1078" y="16" on="1"/>
        <pt x="1078" y="0" on="1"/>
        <pt x="1040" y="0" on="1"/>
        <pt x="962" y="-42" on="0"/>
        <pt x="868" y="-153" on="0"/>
        <pt x="868" y="-219" on="1"/>
        <pt x="868" y="-253" on="0"/>
        <pt x="904" y="-294" on="0"/>
        <pt x="946" y="-294" on="1"/>
        <pt x="978" y="-295" on="0"/>
        <pt x="1031" y="-276" on="0"/>
        <pt x="1047" y="-268" on="1"/>
        <pt x="1078" y="-389" on="1"/>
        <pt x="1050" y="-405" on="0"/>
        <pt x="965" y="-433" on="0"/>
        <pt x="900" y="-433" on="1"/>
        <pt x="859" y="-433" on="0"/>
        <pt x="789" y="-409" on="0"/>
        <pt x="737" y="-361" on="0"/>
        <pt x="707" y="-290" on="0"/>
        <pt x="707" y="-243" on="1"/>
        <pt x="707" y="-175" on="0"/>
        <pt x="798" y="-40" on="0"/>
      </contour>
      <contour>
        <pt x="558" y="141" on="1"/>
        <pt x="612" y="141" on="0"/>
        <pt x="706" y="169" on="0"/>
        <pt x="783" y="215" on="0"/>
        <pt x="839" y="274" on="0"/>
        <pt x="855" y="306" on="1"/>
        <pt x="855" y="525" on="1"/>
        <pt x="683" y="525" on="1"/>
        <pt x="521" y="525" on="0"/>
        <pt x="341" y="429" on="0"/>
        <pt x="341" y="326" on="1"/>
        <pt x="341" y="286" on="0"/>
        <pt x="368" y="218" on="0"/>
        <pt x="422" y="169" on="0"/>
        <pt x="504" y="141" on="0"/>
      </contour>
    </TTGlyph>
    <TTGlyph name="approxequal" xMin="141" yMin="276" xMax="1086" yMax="1023">
      <contour>
        <pt x="151" y="873" on="1"/>
        <pt x="199" y="941" on="0"/>
        <pt x="321" y="1019" on="0"/>
        <pt x="388" y="1019" on="1"/>
        <pt x="427" y="1020" on="0"/>
        <pt x="486" y="1009" on="0"/>
        <pt x="539" y="989" on="0"/>
        <pt x="590" y="962" on="0"/>
        <pt x="622" y="946" on="1"/>
        <pt x="651" y="931" on="0"/>
        <pt x="699" y="906" on="0"/>
        <pt x="748" y="888" on="0"/>
        <pt x="804" y="877" on="0"/>
        <pt x="840" y="877" on="1"/>
        <pt x="907" y="877" on="0"/>
        <pt x="1029" y="955" on="0"/>
        <pt x="1076" y="1023" on="1"/>
        <pt x="1086" y="852" on="1"/>
        <pt x="1038" y="785" on="0"/>
        <pt x="916" y="706" on="0"/>
        <pt x="850" y="706" on="1"/>
        <pt x="813" y="706" on="0"/>
        <pt x="758" y="717" on="0"/>
        <pt x="709" y="735" on="0"/>
        <pt x="661" y="760" on="0"/>
        <pt x="631" y="775" on="1"/>
        <pt x="600" y="791" on="0"/>
        <pt x="548" y="819" on="0"/>
        <pt x="496" y="839" on="0"/>
        <pt x="436" y="850" on="0"/>
        <pt x="397" y="849" on="1"/>
        <pt x="330" y="848" on="0"/>
        <pt x="208" y="770" on="0"/>
        <pt x="161" y="702" on="1"/>
      </contour>
      <contour>
        <pt x="141" y="447" on="1"/>
        <pt x="189" y="514" on="0"/>
        <pt x="311" y="592" on="0"/>
        <pt x="378" y="593" on="1"/>
        <pt x="417" y="594" on="0"/>
        <pt x="476" y="583" on="0"/>
        <pt x="529" y="563" on="0"/>
        <pt x="580" y="535" on="0"/>
        <pt x="612" y="520" on="1"/>
        <pt x="641" y="505" on="0"/>
        <pt x="689" y="479" on="0"/>
        <pt x="738" y="461" on="0"/>
        <pt x="794" y="450" on="0"/>
        <pt x="830" y="450" on="1"/>
        <pt x="897" y="450" on="0"/>
        <pt x="1019" y="529" on="0"/>
        <pt x="1066" y="597" on="1"/>
        <pt x="1076" y="426" on="1"/>
        <pt x="1028" y="358" on="0"/>
        <pt x="906" y="280" on="0"/>
        <pt x="840" y="280" on="1"/>
        <pt x="803" y="280" on="0"/>
        <pt x="748" y="290" on="0"/>
        <pt x="699" y="309" on="0"/>
        <pt x="651" y="334" on="0"/>
        <pt x="621" y="349" on="1"/>
        <pt x="590" y="365" on="0"/>
        <pt x="538" y="392" on="0"/>
        <pt x="486" y="412" on="0"/>
        <pt x="426" y="423" on="0"/>
        <pt x="387" y="422" on="1"/>
        <pt x="320" y="422" on="0"/>
        <pt x="198" y="344" on="0"/>
        <pt x="151" y="276" on="1"/>
      </contour>
    </TTGlyph>
    <TTGlyph name="aring" xMin="156" yMin="-20" xMax="1078" yMax="1609">
      <component glyphName="a" x="0" y="0" flags="0x204"/>
      <component glyphName="ring" x="10" y="98" flags="0x4"/>
    </TTGlyph>
    <TTGlyph name="aringacute" xMin="156" yMin="-20" xMax="1078" yMax="1750">
      <component glyphName="a" x="0" y="0" flags="0x204"/>
      <component glyphName="ringacute" x="-8" y="100" flags="0x4"/>
    </TTGlyph>
    <TTGlyph name="asciicircum" xMin="231" yMin="677" xMax="997" yMax="1456">
      <contour>
        <pt x="403" y="677" on="1"/>
        <pt x="231" y="677" on="1"/>
        <pt x="551" y="1456" on="1"/>
        <pt x="678" y="1456" on="1"/>
        <pt x="997" y="677" on="1"/>
        <pt x="826" y="677" on="1"/>
        <pt x="628" y="1163" on="1"/>
        <pt x="613" y="1231" on="1"/>
        <pt x="598" y="1163" on="1"/>
      </contour>
    </TTGlyph>
    <TTGlyph name="asciitilde" xMin="48" yMin="402" xMax="1180" yMax="802">
      <contour>
        <pt x="1180" y="740" on="1"/>
        <pt x="1180" y="674" on="0"/>
        <pt x="1136" y="552" on="0"/>
        <pt x="1056" y="458" on="0"/>
        <pt x="946" y="402" on="0"/>
        <pt x="879" y="402" on="1"/>
        <pt x="832" y="402" on="0"/>
        <pt x="751" y="420" on="0"/>
        <pt x="674" y="456" on="0"/>
        <pt x="599" y="508" on="0"/>
        <pt x="559" y="542" on="1"/>
        <pt x="504" y="587" on="0"/>
        <pt x="404" y="640" on="0"/>
        <pt x="348" y="639" on="1"/>
        <pt x="313" y="639" on="0"/>
        <pt x="252" y="610" on="0"/>
        <pt x="208" y="561" on="0"/>
        <pt x="182" y="494" on="0"/>
        <pt x="182" y="456" on="1"/>
        <pt x="48" y="473" on="1"/>
        <pt x="48" y="539" on="0"/>
        <pt x="92" y="659" on="0"/>
        <pt x="171" y="749" on="0"/>
        <pt x="281" y="802" on="0"/>
        <pt x="348" y="802" on="1"/>
        <pt x="394" y="802" on="0"/>
        <pt x="477" y="783" on="0"/>
        <pt x="555" y="747" on="0"/>
        <pt x="630" y="695" on="0"/>
        <pt x="669" y="663" on="1"/>
        <pt x="726" y="615" on="0"/>
        <pt x="823" y="564" on="0"/>
        <pt x="879" y="565" on="1"/>
        <pt x="914" y="565" on="0"/>
        <pt x="975" y="597" on="0"/>
        <pt x="1020" y="650" on="0"/>
        <pt x="1046" y="720" on="0"/>
        <pt x="1046" y="758" on="1"/>
      </contour>
    </TTGlyph>
    <TTGlyph name="asterisk" xMin="160" yMin="241" xMax="1120" yMax="1224">
      <contour>
        <pt x="537" y="683" on="1"/>
        <pt x="160" y="779" on="1"/>
        <pt x="214" y="954" on="1"/>
        <pt x="579" y="803" on="1"/>
        <pt x="554" y="1224" on="1"/>
        <pt x="732" y="1224" on="1"/>
        <pt x="703" y="797" on="1"/>
        <pt x="1066" y="947" on="1"/>
        <pt x="1120" y="769" on="1"/>
        <pt x="738" y="675" on="1"/>
        <pt x="994" y="351" on="1"/>
        <pt x="848" y="241" on="1"/>
        <pt x="634" y="604" on="1"/>
        <pt x="422" y="250" on="1"/>
        <pt x="276" y="356" on="1"/>
      </contour>
    </TTGlyph>
    <TTGlyph name="at" xMin="64" yMin="-8" xMax="1163" yMax="1458">
      <contour>
        <pt x="1159" y="789" on="1"/>
        <pt x="1156" y="709" on="0"/>
        <pt x="1124" y="542" on="0"/>
        <pt x="1059" y="406" on="0"/>
        <pt x="957" y="320" on="0"/>
        <pt x="883" y="320" on="1"/>
        <pt x="822" y="320" on="0"/>
        <pt x="741" y="384" on="0"/>
        <pt x="724" y="441" on="1"/>
        <pt x="689" y="385" on="0"/>
        <pt x="586" y="320" on="0"/>
        <pt x="524" y="320" on="1"/>
        <pt x="475" y="320" on="0"/>
        <pt x="403" y="372" on="0"/>
        <pt x="358" y="466" on="0"/>
        <pt x="341" y="596" on="0"/>
        <pt x="347" y="674" on="1"/>
        <pt x="356" y="785" on="0"/>
        <pt x="412" y="964" on="0"/>
        <pt x="501" y="1089" on="0"/>
        <pt x="619" y="1156" on="0"/>
        <pt x="690" y="1156" on="1"/>
        <pt x="757" y="1156" on="0"/>
        <pt x="845" y="1103" on="0"/>
        <pt x="871" y="1067" on="1"/>
        <pt x="827" y="563" on="1"/>
        <pt x="824" y="522" on="0"/>
        <pt x="834" y="471" on="0"/>
        <pt x="853" y="442" on="0"/>
        <pt x="881" y="432" on="0"/>
        <pt x="897" y="432" on="1"/>
        <pt x="934" y="432" on="0"/>
        <pt x="991" y="489" on="0"/>
        <pt x="1029" y="586" on="0"/>
        <pt x="1049" y="716" on="0"/>
        <pt x="1050" y="789" on="1"/>
        <pt x="1054" y="916" on="0"/>
        <pt x="1004" y="1118" on="0"/>
        <pt x="901" y="1258" on="0"/>
        <pt x="751" y="1332" on="0"/>
        <pt x="655" y="1332" on="1"/>
        <pt x="554" y="1332" on="0"/>
        <pt x="387" y="1237" on="0"/>
        <pt x="265" y="1067" on="0"/>
        <pt x="195" y="831" on="0"/>
        <pt x="191" y="691" on="1"/>
        <pt x="186" y="555" on="0"/>
        <pt x="234" y="343" on="0"/>
        <pt x="340" y="196" on="0"/>
        <pt x="505" y="119" on="0"/>
        <pt x="617" y="119" on="1"/>
        <pt x="647" y="119" on="0"/>
        <pt x="709" y="128" on="0"/>
        <pt x="769" y="145" on="0"/>
        <pt x="823" y="169" on="0"/>
        <pt x="845" y="184" on="1"/>
        <pt x="877" y="67" on="1"/>
        <pt x="852" y="48" on="0"/>
        <pt x="788" y="20" on="0"/>
        <pt x="718" y="1" on="0"/>
        <pt x="646" y="-8" on="0"/>
        <pt x="614" y="-8" on="1"/>
        <pt x="467" y="-8" on="0"/>
        <pt x="256" y="95" on="0"/>
        <pt x="123" y="281" on="0"/>
        <pt x="64" y="538" on="0"/>
        <pt x="69" y="691" on="1"/>
        <pt x="73" y="794" on="0"/>
        <pt x="115" y="989" on="0"/>
        <pt x="188" y="1159" on="0"/>
        <pt x="291" y="1300" on="0"/>
        <pt x="419" y="1402" on="0"/>
        <pt x="572" y="1458" on="0"/>
        <pt x="658" y="1458" on="1"/>
        <pt x="780" y="1458" on="0"/>
        <pt x="970" y="1363" on="0"/>
        <pt x="1099" y="1187" on="0"/>
        <pt x="1163" y="940" on="0"/>
      </contour>
      <contour>
        <pt x="470" y="674" on="1"/>
        <pt x="465" y="572" on="0"/>
        <pt x="509" y="458" on="0"/>
        <pt x="557" y="458" on="1"/>
        <pt x="606" y="458" on="0"/>
        <pt x="686" y="512" on="0"/>
        <pt x="716" y="575" on="1"/>
        <pt x="755" y="1020" on="1"/>
        <pt x="727" y="1033" on="0"/>
        <pt x="697" y="1033" on="1"/>
        <pt x="644" y="1033" on="0"/>
        <pt x="565" y="982" on="0"/>
        <pt x="511" y="889" on="0"/>
        <pt x="478" y="756" on="0"/>
      </contour>
    </TTGlyph>
    <TTGlyph name="at.alt" xMin="141" yMin="-104" xMax="1123" yMax="1259">
      <contour>
        <pt x="960" y="262" on="1"/>
        <pt x="952" y="277" on="0"/>
        <pt x="941" y="323" on="0"/>
        <pt x="938" y="348" on="1"/>
        <pt x="903" y="310" on="0"/>
        <pt x="800" y="255" on="0"/>
        <pt x="734" y="255" on="1"/>
        <pt x="669" y="255" on="0"/>
        <pt x="569" y="300" on="0"/>
        <pt x="501" y="378" on="0"/>
        <pt x="466" y="484" on="0"/>
        <pt x="466" y="545" on="1"/>
        <pt x="466" y="621" on="0"/>
        <pt x="522" y="740" on="0"/>
        <pt x="621" y="823" on="0"/>
        <pt x="756" y="867" on="0"/>
        <pt x="836" y="867" on="1"/>
        <pt x="933" y="867" on="1"/>
        <pt x="928" y="926" on="0"/>
        <pt x="887" y="1018" on="0"/>
        <pt x="818" y="1081" on="0"/>
        <pt x="724" y="1114" on="0"/>
        <pt x="667" y="1114" on="1"/>
        <pt x="574" y="1114" on="0"/>
        <pt x="435" y="1043" on="0"/>
        <pt x="343" y="910" on="0"/>
        <pt x="298" y="720" on="0"/>
        <pt x="300" y="601" on="1"/>
        <pt x="301" y="541" on="1"/>
        <pt x="303" y="419" on="0"/>
        <pt x="360" y="233" on="0"/>
        <pt x="461" y="107" on="0"/>
        <pt x="602" y="43" on="0"/>
        <pt x="688" y="43" on="1"/>
        <pt x="716" y="43" on="0"/>
        <pt x="774" y="52" on="0"/>
        <pt x="829" y="68" on="0"/>
        <pt x="877" y="90" on="0"/>
        <pt x="895" y="103" on="1"/>
        <pt x="944" y="-29" on="1"/>
        <pt x="919" y="-48" on="0"/>
        <pt x="856" y="-76" on="0"/>
        <pt x="787" y="-95" on="0"/>
        <pt x="717" y="-104" on="0"/>
        <pt x="685" y="-104" on="1"/>
        <pt x="545" y="-104" on="0"/>
        <pt x="344" y="-6" on="0"/>
        <pt x="213" y="169" on="0"/>
        <pt x="148" y="412" on="0"/>
        <pt x="145" y="556" on="1"/>
        <pt x="144" y="601" on="1"/>
        <pt x="141" y="744" on="0"/>
        <pt x="208" y="985" on="0"/>
        <pt x="344" y="1161" on="0"/>
        <pt x="546" y="1259" on="0"/>
        <pt x="677" y="1259" on="1"/>
        <pt x="763" y="1259" on="0"/>
        <pt x="913" y="1208" on="0"/>
        <pt x="1025" y="1103" on="0"/>
        <pt x="1090" y="943" on="0"/>
        <pt x="1090" y="833" on="1"/>
        <pt x="1090" y="462" on="1"/>
        <pt x="1090" y="416" on="0"/>
        <pt x="1106" y="314" on="0"/>
        <pt x="1123" y="276" on="1"/>
        <pt x="1123" y="262" on="1"/>
      </contour>
      <contour>
        <pt x="766" y="391" on="1"/>
        <pt x="799" y="391" on="0"/>
        <pt x="854" y="409" on="0"/>
        <pt x="898" y="439" on="0"/>
        <pt x="927" y="476" on="0"/>
        <pt x="934" y="494" on="1"/>
        <pt x="934" y="738" on="1"/>
        <pt x="862" y="738" on="1"/>
        <pt x="811" y="738" on="0"/>
        <pt x="723" y="720" on="0"/>
        <pt x="658" y="679" on="0"/>
        <pt x="622" y="611" on="0"/>
        <pt x="622" y="562" on="1"/>
        <pt x="622" y="526" on="0"/>
        <pt x="639" y="463" on="0"/>
        <pt x="674" y="417" on="0"/>
        <pt x="728" y="391" on="0"/>
      </contour>
    </TTGlyph>
    <TTGlyph name="atilde" xMin="156" yMin="-20" xMax="1078" yMax="1552">
      <component glyphName="a" x="0" y="0" flags="0x204"/>
      <component glyphName="tilde" x="143" y="31" flags="0x4"/>
    </TTGlyph>
    <TTGlyph name="b" xMin="175" yMin="-20" xMax="1091" yMax="1536">
      <contour>
        <pt x="1091" y="529" on="1"/>
        <pt x="1091" y="413" on="0"/>
        <pt x="1035" y="212" on="0"/>
        <pt x="927" y="64" on="0"/>
        <pt x="768" y="-20" on="0"/>
        <pt x="665" y="-20" on="1"/>
        <pt x="561" y="-20" on="0"/>
        <pt x="408" y="54" on="0"/>
        <pt x="354" y="123" on="1"/>
        <pt x="345" y="0" on="1"/>
        <pt x="175" y="0" on="1"/>
        <pt x="175" y="1536" on="1"/>
        <pt x="360" y="1536" on="1"/>
        <pt x="360" y="966" on="1"/>
        <pt x="413" y="1032" on="0"/>
        <pt x="563" y="1102" on="0"/>
        <pt x="663" y="1102" on="1"/>
        <pt x="767" y="1102" on="0"/>
        <pt x="927" y="1020" on="0"/>
        <pt x="1035" y="874" on="0"/>
        <pt x="1091" y="671" on="0"/>
        <pt x="1091" y="550" on="1"/>
      </contour>
      <contour>
        <pt x="906" y="550" on="1"/>
        <pt x="906" y="629" on="0"/>
        <pt x="875" y="772" on="0"/>
        <pt x="807" y="881" on="0"/>
        <pt x="697" y="945" on="0"/>
        <pt x="617" y="945" on="1"/>
        <pt x="569" y="945" on="0"/>
        <pt x="489" y="920" on="0"/>
        <pt x="426" y="875" on="0"/>
        <pt x="377" y="814" on="0"/>
        <pt x="360" y="778" on="1"/>
        <pt x="360" y="305" on="1"/>
        <pt x="378" y="269" on="0"/>
        <pt x="427" y="208" on="0"/>
        <pt x="491" y="162" on="0"/>
        <pt x="571" y="137" on="0"/>
        <pt x="619" y="137" on="1"/>
        <pt x="695" y="137" on="0"/>
        <pt x="804" y="200" on="0"/>
        <pt x="873" y="308" on="0"/>
        <pt x="906" y="450" on="0"/>
        <pt x="906" y="529" on="1"/>
      </contour>
    </TTGlyph>
    <TTGlyph name="backslash" xMin="231" yMin="-125" xMax="1006" yMax="1456">
      <contour>
        <pt x="231" y="1456" on="1"/>
        <pt x="398" y="1456" on="1"/>
        <pt x="1006" y="-125" on="1"/>
        <pt x="839" y="-125" on="1"/>
      </contour>
    </TTGlyph>
    <TTGlyph name="bar" xMin="540" yMin="-398" xMax="689" yMax="1456">
      <contour>
        <pt x="689" y="-398" on="1"/>
        <pt x="540" y="-398" on="1"/>
        <pt x="540" y="1456" on="1"/>
        <pt x="689" y="1456" on="1"/>
      </contour>
    </TTGlyph>
    <TTGlyph name="beta" xMin="174" yMin="-384" xMax="1115" yMax="1476">
      <contour>
        <pt x="619" y="1476" on="1"/>
        <pt x="716" y="1476" on="0"/>
        <pt x="874" y="1419" on="0"/>
        <pt x="986" y="1314" on="0"/>
        <pt x="1047" y="1170" on="0"/>
        <pt x="1047" y="1083" on="1"/>
        <pt x="1047" y="991" on="0"/>
        <pt x="949" y="840" on="0"/>
        <pt x="861" y="793" on="1"/>
        <pt x="982" y="749" on="0"/>
        <pt x="1115" y="555" on="0"/>
        <pt x="1115" y="424" on="1"/>
        <pt x="1115" y="317" on="0"/>
        <pt x="1047" y="152" on="0"/>
        <pt x="925" y="38" on="0"/>
        <pt x="759" y="-21" on="0"/>
        <pt x="661" y="-21" on="1"/>
        <pt x="580" y="-21" on="0"/>
        <pt x="422" y="25" on="0"/>
        <pt x="360" y="75" on="1"/>
        <pt x="360" y="-384" on="1"/>
        <pt x="174" y="-384" on="1"/>
        <pt x="174" y="1073" on="1"/>
        <pt x="174" y="1155" on="0"/>
        <pt x="245" y="1302" on="0"/>
        <pt x="366" y="1412" on="0"/>
        <pt x="527" y="1476" on="0"/>
      </contour>
      <contour>
        <pt x="615" y="858" on="1"/>
        <pt x="679" y="858" on="0"/>
        <pt x="773" y="892" on="0"/>
        <pt x="833" y="952" on="0"/>
        <pt x="862" y="1036" on="0"/>
        <pt x="862" y="1087" on="1"/>
        <pt x="862" y="1133" on="0"/>
        <pt x="830" y="1219" on="0"/>
        <pt x="768" y="1285" on="0"/>
        <pt x="677" y="1325" on="0"/>
        <pt x="619" y="1325" on="1"/>
        <pt x="564" y="1325" on="0"/>
        <pt x="469" y="1286" on="0"/>
        <pt x="400" y="1218" on="0"/>
        <pt x="360" y="1126" on="0"/>
        <pt x="360" y="1073" on="1"/>
        <pt x="360" y="246" on="1"/>
        <pt x="405" y="193" on="0"/>
        <pt x="549" y="130" on="0"/>
        <pt x="642" y="130" on="1"/>
        <pt x="709" y="130" on="0"/>
        <pt x="816" y="173" on="0"/>
        <pt x="890" y="250" on="0"/>
        <pt x="930" y="357" on="0"/>
        <pt x="930" y="420" on="1"/>
        <pt x="930" y="473" on="0"/>
        <pt x="896" y="575" on="0"/>
        <pt x="830" y="656" on="0"/>
        <pt x="735" y="706" on="0"/>
        <pt x="674" y="706" on="1"/>
        <pt x="531" y="706" on="1"/>
        <pt x="531" y="858" on="1"/>
      </contour>
    </TTGlyph>
    <TTGlyph name="braceleft" xMin="323" yMin="-366" xMax="999" yMax="1597">
      <contour>
        <pt x="978" y="-366" on="1"/>
        <pt x="913" y="-364" on="0"/>
        <pt x="807" y="-324" on="0"/>
        <pt x="723" y="-256" on="0"/>
        <pt x="662" y="-166" on="0"/>
        <pt x="621" y="-63" on="0"/>
        <pt x="601" y="46" on="0"/>
        <pt x="601" y="99" on="1"/>
        <pt x="601" y="268" on="1"/>
        <pt x="601" y="412" on="0"/>
        <pt x="464" y="542" on="0"/>
        <pt x="323" y="543" on="1"/>
        <pt x="323" y="688" on="1"/>
        <pt x="464" y="688" on="0"/>
        <pt x="601" y="817" on="0"/>
        <pt x="601" y="962" on="1"/>
        <pt x="601" y="1132" on="1"/>
        <pt x="601" y="1185" on="0"/>
        <pt x="619" y="1294" on="0"/>
        <pt x="657" y="1397" on="0"/>
        <pt x="716" y="1487" on="0"/>
        <pt x="800" y="1555" on="0"/>
        <pt x="909" y="1595" on="0"/>
        <pt x="978" y="1597" on="1"/>
        <pt x="999" y="1482" on="1"/>
        <pt x="927" y="1480" on="0"/>
        <pt x="842" y="1416" on="0"/>
        <pt x="799" y="1317" on="0"/>
        <pt x="787" y="1193" on="0"/>
        <pt x="787" y="1132" on="1"/>
        <pt x="787" y="962" on="1"/>
        <pt x="786" y="842" on="0"/>
        <pt x="676" y="661" on="0"/>
        <pt x="560" y="614" on="1"/>
        <pt x="676" y="568" on="0"/>
        <pt x="786" y="387" on="0"/>
        <pt x="787" y="268" on="1"/>
        <pt x="787" y="99" on="1"/>
        <pt x="787" y="37" on="0"/>
        <pt x="807" y="-86" on="0"/>
        <pt x="856" y="-185" on="0"/>
        <pt x="937" y="-249" on="0"/>
        <pt x="999" y="-251" on="1"/>
      </contour>
    </TTGlyph>
    <TTGlyph name="braceright" xMin="323" yMin="-366" xMax="999" yMax="1597">
      <contour>
        <pt x="323" y="-251" on="1"/>
        <pt x="384" y="-249" on="0"/>
        <pt x="466" y="-185" on="0"/>
        <pt x="515" y="-86" on="0"/>
        <pt x="536" y="37" on="0"/>
        <pt x="536" y="99" on="1"/>
        <pt x="536" y="268" on="1"/>
        <pt x="536" y="387" on="0"/>
        <pt x="646" y="568" on="0"/>
        <pt x="762" y="614" on="1"/>
        <pt x="646" y="661" on="0"/>
        <pt x="536" y="842" on="0"/>
        <pt x="536" y="962" on="1"/>
        <pt x="536" y="1132" on="1"/>
        <pt x="536" y="1193" on="0"/>
        <pt x="523" y="1317" on="0"/>
        <pt x="480" y="1416" on="0"/>
        <pt x="396" y="1480" on="0"/>
        <pt x="324" y="1482" on="1"/>
        <pt x="344" y="1597" on="1"/>
        <pt x="413" y="1595" on="0"/>
        <pt x="522" y="1555" on="0"/>
        <pt x="606" y="1487" on="0"/>
        <pt x="665" y="1397" on="0"/>
        <pt x="703" y="1294" on="0"/>
        <pt x="721" y="1185" on="0"/>
        <pt x="721" y="1132" on="1"/>
        <pt x="721" y="962" on="1"/>
        <pt x="721" y="817" on="0"/>
        <pt x="859" y="688" on="0"/>
        <pt x="999" y="688" on="1"/>
        <pt x="999" y="543" on="1"/>
        <pt x="859" y="542" on="0"/>
        <pt x="721" y="412" on="0"/>
        <pt x="721" y="268" on="1"/>
        <pt x="721" y="99" on="1"/>
        <pt x="721" y="19" on="0"/>
        <pt x="677" y="-144" on="0"/>
        <pt x="584" y="-278" on="0"/>
        <pt x="442" y="-364" on="0"/>
        <pt x="344" y="-366" on="1"/>
      </contour>
    </TTGlyph>
    <TTGlyph name="bracketleft" xMin="426" yMin="-312" xMax="822" yMax="1664">
      <contour>
        <pt x="822" y="1512" on="1"/>
        <pt x="601" y="1512" on="1"/>
        <pt x="601" y="-160" on="1"/>
        <pt x="822" y="-160" on="1"/>
        <pt x="822" y="-312" on="1"/>
        <pt x="426" y="-312" on="1"/>
        <pt x="426" y="1664" on="1"/>
        <pt x="822" y="1664" on="1"/>
      </contour>
    </TTGlyph>
    <TTGlyph name="bracketright" xMin="405" yMin="-312" xMax="802" yMax="1664">
      <contour>
        <pt x="405" y="1664" on="1"/>
        <pt x="802" y="1664" on="1"/>
        <pt x="802" y="-312" on="1"/>
        <pt x="405" y="-312" on="1"/>
        <pt x="405" y="-160" on="1"/>
        <pt x="627" y="-160" on="1"/>
        <pt x="627" y="1512" on="1"/>
        <pt x="405" y="1512" on="1"/>
      </contour>
    </TTGlyph>
    <TTGlyph name="breve" xMin="315" yMin="1191" xMax="913" yMax="1458">
      <contour>
        <pt x="913" y="1458" on="1"/>
        <pt x="913" y="1399" on="0"/>
        <pt x="871" y="1300" on="0"/>
        <pt x="793" y="1230" on="0"/>
        <pt x="683" y="1191" on="0"/>
        <pt x="615" y="1191" on="1"/>
        <pt x="546" y="1191" on="0"/>
        <pt x="436" y="1230" on="0"/>
        <pt x="358" y="1300" on="0"/>
        <pt x="315" y="1399" on="0"/>
        <pt x="315" y="1458" on="1"/>
        <pt x="465" y="1458" on="1"/>
        <pt x="465" y="1428" on="0"/>
        <pt x="483" y="1373" on="0"/>
        <pt x="519" y="1333" on="0"/>
        <pt x="575" y="1309" on="0"/>
        <pt x="615" y="1309" on="1"/>
        <pt x="654" y="1309" on="0"/>
        <pt x="709" y="1333" on="0"/>
        <pt x="745" y="1373" on="0"/>
        <pt x="763" y="1428" on="0"/>
        <pt x="763" y="1458" on="1"/>
      </contour>
    </TTGlyph>
    <TTGlyph name="breveacutecomb" xMin="322" yMin="1247" xMax="928" yMax="1674">
      <contour>
        <pt x="928" y="1456" on="1"/>
        <pt x="928" y="1409" on="0"/>
        <pt x="884" y="1332" on="0"/>
        <pt x="805" y="1277" on="0"/>
        <pt x="694" y="1247" on="0"/>
        <pt x="626" y="1247" on="1"/>
        <pt x="557" y="1247" on="0"/>
        <pt x="445" y="1277" on="0"/>
        <pt x="366" y="1332" on="0"/>
        <pt x="322" y="1409" on="0"/>
        <pt x="322" y="1456" on="1"/>
        <pt x="474" y="1456" on="1"/>
        <pt x="474" y="1432" on="0"/>
        <pt x="492" y="1389" on="0"/>
        <pt x="529" y="1358" on="0"/>
        <pt x="586" y="1340" on="0"/>
        <pt x="626" y="1340" on="1"/>
        <pt x="703" y="1340" on="0"/>
        <pt x="774" y="1408" on="0"/>
        <pt x="775" y="1456" on="1"/>
      </contour>
      <contour>
        <pt x="680" y="1674" on="1"/>
        <pt x="833" y="1674" on="1"/>
        <pt x="669" y="1476" on="1"/>
        <pt x="567" y="1476" on="1"/>
      </contour>
    </TTGlyph>
    <TTGlyph name="brevegravecomb" xMin="304" yMin="1190" xMax="940" yMax="1703">
      <contour>
        <pt x="940" y="1456" on="1"/>
        <pt x="940" y="1397" on="0"/>
        <pt x="894" y="1299" on="0"/>
        <pt x="811" y="1229" on="0"/>
        <pt x="694" y="1190" on="0"/>
        <pt x="622" y="1190" on="1"/>
        <pt x="549" y="1190" on="0"/>
        <pt x="432" y="1229" on="0"/>
        <pt x="349" y="1299" on="0"/>
        <pt x="304" y="1397" on="0"/>
        <pt x="304" y="1456" on="1"/>
        <pt x="453" y="1456" on="1"/>
        <pt x="453" y="1426" on="0"/>
        <pt x="473" y="1372" on="0"/>
        <pt x="514" y="1331" on="0"/>
        <pt x="578" y="1308" on="0"/>
        <pt x="622" y="1308" on="1"/>
        <pt x="665" y="1308" on="0"/>
        <pt x="728" y="1331" on="0"/>
        <pt x="769" y="1372" on="0"/>
        <pt x="789" y="1426" on="0"/>
        <pt x="789" y="1456" on="1"/>
      </contour>
      <contour>
        <pt x="706" y="1497" on="1"/>
        <pt x="555" y="1497" on="1"/>
        <pt x="345" y="1703" on="1"/>
        <pt x="561" y="1703" on="1"/>
      </contour>
    </TTGlyph>
    <TTGlyph name="brevehookcomb" xMin="338" yMin="1248" xMax="922" yMax="1795">
      <contour>
        <pt x="922" y="1456" on="1"/>
        <pt x="922" y="1409" on="0"/>
        <pt x="880" y="1333" on="0"/>
        <pt x="805" y="1278" on="0"/>
        <pt x="697" y="1248" on="0"/>
        <pt x="631" y="1248" on="1"/>
        <pt x="565" y="1248" on="0"/>
        <pt x="457" y="1278" on="0"/>
        <pt x="380" y="1333" on="0"/>
        <pt x="338" y="1409" on="0"/>
        <pt x="338" y="1456" on="1"/>
        <pt x="483" y="1456" on="1"/>
        <pt x="484" y="1408" on="0"/>
        <pt x="555" y="1341" on="0"/>
        <pt x="631" y="1341" on="1"/>
        <pt x="705" y="1341" on="0"/>
        <pt x="775" y="1408" on="0"/>
        <pt x="776" y="1456" on="1"/>
      </contour>
      <contour>
        <pt x="566" y="1473" on="1"/>
        <pt x="560" y="1597" on="1"/>
        <pt x="629" y="1601" on="0"/>
        <pt x="700" y="1623" on="0"/>
        <pt x="700" y="1654" on="1"/>
        <pt x="700" y="1671" on="0"/>
        <pt x="673" y="1694" on="0"/>
        <pt x="629" y="1707" on="0"/>
        <pt x="571" y="1713" on="0"/>
        <pt x="539" y="1713" on="1"/>
        <pt x="546" y="1795" on="1"/>
        <pt x="686" y="1795" on="0"/>
        <pt x="839" y="1719" on="0"/>
        <pt x="839" y="1651" on="1"/>
        <pt x="839" y="1622" on="0"/>
        <pt x="813" y="1581" on="0"/>
        <pt x="771" y="1554" on="0"/>
        <pt x="717" y="1538" on="0"/>
        <pt x="690" y="1535" on="1"/>
        <pt x="693" y="1473" on="1"/>
      </contour>
    </TTGlyph>
    <TTGlyph name="brevetildecomb" xMin="372" yMin="1241" xMax="962" yMax="1744">
      <contour>
        <pt x="962" y="1454" on="1"/>
        <pt x="962" y="1407" on="0"/>
        <pt x="920" y="1328" on="0"/>
        <pt x="843" y="1272" on="0"/>
        <pt x="734" y="1241" on="0"/>
        <pt x="667" y="1241" on="1"/>
        <pt x="600" y="1241" on="0"/>
        <pt x="491" y="1272" on="0"/>
        <pt x="414" y="1328" on="0"/>
        <pt x="372" y="1407" on="0"/>
        <pt x="372" y="1454" on="1"/>
        <pt x="521" y="1454" on="1"/>
        <pt x="522" y="1405" on="0"/>
        <pt x="590" y="1336" on="0"/>
        <pt x="667" y="1336" on="1"/>
        <pt x="705" y="1336" on="0"/>
        <pt x="760" y="1355" on="0"/>
        <pt x="796" y="1387" on="0"/>
        <pt x="813" y="1430" on="0"/>
        <pt x="813" y="1454" on="1"/>
      </contour>
      <contour>
        <pt x="953" y="1720" on="1"/>
        <pt x="953" y="1684" on="0"/>
        <pt x="929" y="1619" on="0"/>
        <pt x="885" y="1570" on="0"/>
        <pt x="824" y="1541" on="0"/>
        <pt x="788" y="1541" on="1"/>
        <pt x="748" y="1541" on="0"/>
        <pt x="694" y="1564" on="0"/>
        <pt x="647" y="1593" on="0"/>
        <pt x="600" y="1616" on="0"/>
        <pt x="567" y="1616" on="1"/>
        <pt x="532" y="1616" on="0"/>
        <pt x="486" y="1565" on="0"/>
        <pt x="485" y="1527" on="1"/>
        <pt x="401" y="1548" on="1"/>
        <pt x="401" y="1584" on="0"/>
        <pt x="426" y="1650" on="0"/>
        <pt x="469" y="1700" on="0"/>
        <pt x="530" y="1730" on="0"/>
        <pt x="567" y="1730" on="1"/>
        <pt x="600" y="1730" on="0"/>
        <pt x="653" y="1707" on="0"/>
        <pt x="704" y="1678" on="0"/>
        <pt x="756" y="1655" on="0"/>
        <pt x="788" y="1655" on="1"/>
        <pt x="822" y="1655" on="0"/>
        <pt x="870" y="1706" on="0"/>
        <pt x="870" y="1744" on="1"/>
      </contour>
    </TTGlyph>
    <TTGlyph name="brokenbar" xMin="511" yMin="-270" xMax="696" yMax="1456">
      <contour>
        <pt x="511" y="-270" on="1"/>
        <pt x="511" y="521" on="1"/>
        <pt x="696" y="521" on="1"/>
        <pt x="696" y="-270" on="1"/>
      </contour>
      <contour>
        <pt x="696" y="698" on="1"/>
        <pt x="511" y="698" on="1"/>
        <pt x="511" y="1456" on="1"/>
        <pt x="696" y="1456" on="1"/>
      </contour>
    </TTGlyph>
    <TTGlyph name="bullet" xMin="410" yMin="535" xMax="817" yMax="988">
      <contour>
        <pt x="410" y="790" on="1"/>
        <pt x="410" y="833" on="0"/>
        <pt x="439" y="906" on="0"/>
        <pt x="491" y="958" on="0"/>
        <pt x="566" y="988" on="0"/>
        <pt x="613" y="988" on="1"/>
        <pt x="660" y="988" on="0"/>
        <pt x="736" y="958" on="0"/>
        <pt x="789" y="906" on="0"/>
        <pt x="817" y="833" on="0"/>
        <pt x="817" y="790" on="1"/>
        <pt x="817" y="732" on="1"/>
        <pt x="817" y="689" on="0"/>
        <pt x="789" y="617" on="0"/>
        <pt x="736" y="564" on="0"/>
        <pt x="661" y="535" on="0"/>
        <pt x="614" y="535" on="1"/>
        <pt x="567" y="535" on="0"/>
        <pt x="492" y="564" on="0"/>
        <pt x="439" y="617" on="0"/>
        <pt x="410" y="689" on="0"/>
        <pt x="410" y="732" on="1"/>
      </contour>
    </TTGlyph>
    <TTGlyph name="c" xMin="143" yMin="-20" xMax="1075" yMax="1102">
      <contour>
        <pt x="635" y="130" on="1"/>
        <pt x="685" y="130" on="0"/>
        <pt x="780" y="162" on="0"/>
        <pt x="854" y="219" on="0"/>
        <pt x="899" y="296" on="0"/>
        <pt x="900" y="341" on="1"/>
        <pt x="1075" y="341" on="1"/>
        <pt x="1074" y="269" on="0"/>
        <pt x="1001" y="138" on="0"/>
        <pt x="879" y="39" on="0"/>
        <pt x="721" y="-20" on="0"/>
        <pt x="635" y="-20" on="1"/>
        <pt x="512" y="-20" on="0"/>
        <pt x="328" y="68" on="0"/>
        <pt x="205" y="217" on="0"/>
        <pt x="143" y="412" on="0"/>
        <pt x="143" y="520" on="1"/>
        <pt x="143" y="562" on="1"/>
        <pt x="143" y="669" on="0"/>
        <pt x="205" y="865" on="0"/>
        <pt x="328" y="1014" on="0"/>
        <pt x="512" y="1102" on="0"/>
        <pt x="635" y="1102" on="1"/>
        <pt x="731" y="1102" on="0"/>
        <pt x="892" y="1041" on="0"/>
        <pt x="1009" y="936" on="0"/>
        <pt x="1075" y="792" on="0"/>
        <pt x="1075" y="710" on="1"/>
        <pt x="900" y="710" on="1"/>
        <pt x="899" y="759" on="0"/>
        <pt x="858" y="846" on="0"/>
        <pt x="788" y="912" on="0"/>
        <pt x="691" y="950" on="0"/>
        <pt x="635" y="950" on="1"/>
        <pt x="549" y="950" on="0"/>
        <pt x="432" y="881" on="0"/>
        <pt x="360" y="770" on="0"/>
        <pt x="329" y="632" on="0"/>
        <pt x="329" y="562" on="1"/>
        <pt x="329" y="520" on="1"/>
        <pt x="329" y="449" on="0"/>
        <pt x="360" y="310" on="0"/>
        <pt x="431" y="199" on="0"/>
        <pt x="548" y="130" on="0"/>
      </contour>
    </TTGlyph>
    <TTGlyph name="cacute" xMin="143" yMin="-20" xMax="1075" yMax="1502">
      <component glyphName="c" x="0" y="0" flags="0x204"/>
      <component glyphName="acute" x="147" y="21" flags="0x4"/>
    </TTGlyph>
    <TTGlyph name="caron" xMin="304" yMin="1251" xMax="923" yMax="1517">
      <contour>
        <pt x="612" y="1365" on="1"/>
        <pt x="763" y="1517" on="1"/>
        <pt x="923" y="1517" on="1"/>
        <pt x="923" y="1499" on="1"/>
        <pt x="669" y="1251" on="1"/>
        <pt x="555" y="1251" on="1"/>
        <pt x="304" y="1496" on="1"/>
        <pt x="304" y="1517" on="1"/>
        <pt x="461" y="1517" on="1"/>
      </contour>
    </TTGlyph>
    <TTGlyph name="ccaron" xMin="143" yMin="-20" xMax="1075" yMax="1543">
      <component glyphName="c" x="0" y="0" flags="0x204"/>
      <component glyphName="caron" x="30" y="26" flags="0x4"/>
    </TTGlyph>
    <TTGlyph name="ccedilla" xMin="143" yMin="-435" xMax="1075" yMax="1102">
      <component glyphName="c" x="0" y="0" flags="0x204"/>
      <component glyphName="cedilla" x="75" y="0" flags="0x4"/>
    </TTGlyph>
    <TTGlyph name="ccircumflex" xMin="143" yMin="-20" xMax="1075" yMax="1542">
      <component glyphName="c" x="0" y="0" flags="0x204"/>
      <component glyphName="circumflex" x="149" y="25" flags="0x4"/>
    </TTGlyph>
    <TTGlyph name="cedilla" xMin="461" yMin="-435" xMax="771" yMax="0">
      <contour>
        <pt x="630" y="0" on="1"/>
        <pt x="618" y="-52" on="1"/>
        <pt x="647" y="-57" on="0"/>
        <pt x="702" y="-81" on="0"/>
        <pt x="745" y="-121" on="0"/>
        <pt x="771" y="-182" on="0"/>
        <pt x="771" y="-225" on="1"/>
        <pt x="771" y="-322" on="0"/>
        <pt x="613" y="-434" on="0"/>
        <pt x="468" y="-435" on="1"/>
        <pt x="461" y="-328" on="1"/>
        <pt x="495" y="-328" on="0"/>
        <pt x="555" y="-317" on="0"/>
        <pt x="600" y="-293" on="0"/>
        <pt x="627" y="-256" on="0"/>
        <pt x="627" y="-229" on="1"/>
        <pt x="627" y="-204" on="0"/>
        <pt x="607" y="-170" on="0"/>
        <pt x="566" y="-149" on="0"/>
        <pt x="506" y="-137" on="0"/>
        <pt x="466" y="-134" on="1"/>
        <pt x="497" y="0" on="1"/>
      </contour>
    </TTGlyph>
    <TTGlyph name="cent" xMin="147" yMin="-245" xMax="1079" yMax="1318">
      <contour>
        <pt x="639" y="130" on="1"/>
        <pt x="689" y="130" on="0"/>
        <pt x="784" y="162" on="0"/>
        <pt x="858" y="219" on="0"/>
        <pt x="903" y="296" on="0"/>
        <pt x="904" y="341" on="1"/>
        <pt x="1079" y="341" on="1"/>
        <pt x="1078" y="277" on="0"/>
        <pt x="1020" y="160" on="0"/>
        <pt x="922" y="65" on="0"/>
        <pt x="791" y="-1" on="0"/>
        <pt x="718" y="-13" on="1"/>
        <pt x="718" y="-245" on="1"/>
        <pt x="533" y="-245" on="1"/>
        <pt x="533" y="-10" on="1"/>
        <pt x="437" y="8" on="0"/>
        <pt x="292" y="107" on="0"/>
        <pt x="196" y="249" on="0"/>
        <pt x="147" y="425" on="0"/>
        <pt x="147" y="520" on="1"/>
        <pt x="147" y="562" on="1"/>
        <pt x="147" y="657" on="0"/>
        <pt x="196" y="832" on="0"/>
        <pt x="292" y="975" on="0"/>
        <pt x="437" y="1074" on="0"/>
        <pt x="533" y="1092" on="1"/>
        <pt x="533" y="1318" on="1"/>
        <pt x="718" y="1318" on="1"/>
        <pt x="718" y="1096" on="1"/>
        <pt x="798" y="1084" on="0"/>
        <pt x="930" y="1015" on="0"/>
        <pt x="1026" y="913" on="0"/>
        <pt x="1079" y="783" on="0"/>
        <pt x="1079" y="710" on="1"/>
        <pt x="904" y="710" on="1"/>
        <pt x="903" y="759" on="0"/>
        <pt x="862" y="846" on="0"/>
        <pt x="792" y="912" on="0"/>
        <pt x="695" y="950" on="0"/>
        <pt x="639" y="950" on="1"/>
        <pt x="553" y="950" on="0"/>
        <pt x="436" y="881" on="0"/>
        <pt x="364" y="770" on="0"/>
        <pt x="333" y="632" on="0"/>
        <pt x="333" y="562" on="1"/>
        <pt x="333" y="520" on="1"/>
        <pt x="333" y="449" on="0"/>
        <pt x="364" y="310" on="0"/>
        <pt x="435" y="199" on="0"/>
        <pt x="552" y="130" on="0"/>
      </contour>
    </TTGlyph>
    <TTGlyph name="chi" xMin="110" yMin="0" xMax="1138" yMax="1082">
      <component glyphName="x" x="0" y="0" flags="0x204"/>
    </TTGlyph>
    <TTGlyph name="chi.alt" xMin="107" yMin="-436" xMax="1147" yMax="1097">
      <contour>
        <pt x="212" y="1097" on="1"/>
        <pt x="283" y="1097" on="0"/>
        <pt x="388" y="1043" on="0"/>
        <pt x="463" y="963" on="0"/>
        <pt x="513" y="869" on="0"/>
        <pt x="528" y="829" on="1"/>
        <pt x="646" y="569" on="1"/>
        <pt x="912" y="1082" on="1"/>
        <pt x="1100" y="1082" on="1"/>
        <pt x="736" y="372" on="1"/>
        <pt x="960" y="-117" on="1"/>
        <pt x="974" y="-149" on="0"/>
        <pt x="1003" y="-204" on="0"/>
        <pt x="1036" y="-244" on="0"/>
        <pt x="1076" y="-268" on="0"/>
        <pt x="1100" y="-268" on="1"/>
        <pt x="1116" y="-268" on="0"/>
        <pt x="1130" y="-266" on="0"/>
        <pt x="1147" y="-263" on="1"/>
        <pt x="1145" y="-421" on="1"/>
        <pt x="1134" y="-428" on="0"/>
        <pt x="1098" y="-436" on="0"/>
        <pt x="1085" y="-436" on="1"/>
        <pt x="1026" y="-436" on="0"/>
        <pt x="935" y="-401" on="0"/>
        <pt x="864" y="-332" on="0"/>
        <pt x="808" y="-231" on="0"/>
        <pt x="784" y="-165" on="1"/>
        <pt x="630" y="165" on="1"/>
        <pt x="334" y="-415" on="1"/>
        <pt x="137" y="-415" on="1"/>
        <pt x="539" y="362" on="1"/>
        <pt x="356" y="756" on="1"/>
        <pt x="342" y="790" on="0"/>
        <pt x="308" y="856" on="0"/>
        <pt x="265" y="908" on="0"/>
        <pt x="210" y="939" on="0"/>
        <pt x="176" y="939" on="1"/>
        <pt x="163" y="939" on="0"/>
        <pt x="122" y="935" on="0"/>
        <pt x="108" y="934" on="1"/>
        <pt x="107" y="1082" on="1"/>
        <pt x="125" y="1087" on="0"/>
        <pt x="186" y="1097" on="0"/>
      </contour>
    </TTGlyph>
</ttFont>
